{
.appVersion = "3201";
.formatVersion = 3;
customParameters = (
{
name = macintoshFONDName;
value = "Seymour One";
},
{
name = note;
value = "";
},
{
name = descriptions;
value = "Copyright (c) 2011-12 by Vernon Adams. All rights reserved.";
},
{
name = licenseURL;
value = "http://scripts.sil.org/OFL";
},
{
name = preferredFamilyNames;
value = "Seymour One";
},
{
name = uniqueID;
value = "Vernon Adams: Seymour: 2011";
},
{
name = versionString;
value = "Version 1.000";
},
{
name = codePageRanges;
value = (
);
},
{
name = openTypeOS2FamilyClass;
value = (
10,
2
);
},
{
name = panose;
value = (
3,
8,
8,
2,
4,
4,
5,
6,
0,
5
);
},
{
name = openTypeOS2SubscriptXOffset;
value = 0;
},
{
name = openTypeOS2SubscriptXSize;
value = 1434;
},
{
name = openTypeOS2SubscriptYOffset;
value = 287;
},
{
name = openTypeOS2SubscriptYSize;
value = 1331;
},
{
name = openTypeOS2SuperscriptXOffset;
value = 0;
},
{
name = openTypeOS2SuperscriptXSize;
value = 1434;
},
{
name = openTypeOS2SuperscriptYOffset;
value = 977;
},
{
name = openTypeOS2SuperscriptYSize;
value = 1331;
},
{
name = fsType;
value = (
3,
8
);
},
{
name = unicodeRanges;
value = (
0,
1,
2,
3,
5,
6,
7,
31,
32,
33,
35,
38,
59,
62,
85,
90,
92
);
},
{
name = vendorID;
value = newt;
},
{
name = blueFuzz;
value = 1;
},
{
name = blueScale;
value = 0.03963;
},
{
name = blueShift;
value = 7;
},
{
name = trademarks;
value = "Seymour One is a trademark of vernon adams.";
}
);
date = "2012-09-06 03:51:49 +0000";
familyName = "Seymour One Heavy";
fontMaster = (
{
customParameters = (
{
name = winAscent;
value = 1158;
},
{
name = winDescent;
value = 890;
},
{
name = strikeoutPosition;
value = 512;
},
{
name = strikeoutSize;
value = 102;
}
);
iconName = Bold;
id = m001;
metricValues = (
{
pos = 2264;
},
{
pos = 1465;
},
{
pos = 1026;
},
{
},
{
pos = -890;
},
{
}
);
name = Bold;
}
);
glyphs = (
{
glyphname = A;
kernLeft = A;
kernRight = A;
layers = (
{
anchors = (
{
name = ogonek;
pos = (2048,10);
},
{
name = top;
pos = (1138,1465);
}
);
layerId = m001;
shapes = (
{
closed = 1;
nodes = (
(909,540,l),
(947,641,o),
(1005,779,o),
(1083,1021,c),
(1130,840,o),
(1179,691,o),
(1226,540,c)
);
},
{
closed = 1;
nodes = (
(624,-22,o),
(655,-19,o),
(684,-15,c),
(714,68,o),
(731,101,o),
(759,173,c),
(829,173,o),
(1302,171,o),
(1350,165,c),
(1371,93,o),
(1391,40,o),
(1427,-24,c),
(1466,-26,o),
(1506,-30,o),
(1547,-30,cs),
(1566,-30,o),
(1585,-29,o),
(2205,29,c),
(2184,77,o),
(2152,123,o),
(2121,205,c),
(1957,586,o),
(1601,1414,o),
(1596,1431,c),
(1541,1449,o),
(1478,1451,o),
(1415,1451,cs),
(1156,1451,o),
(912,1421,o),
(711,1410,c),
(340,599,o),
(122,133,o),
(71,30,c),
(176,19,o),
(537,-22,o),
(580,-22,cs)
);
}
);
width = 2276;
}
);
unicode = 65;
},
{
glyphname = AE;
layers = (
{
anchors = (
{
name = top;
pos = (1421,1465);
}
);
layerId = m001;
shapes = (
{
closed = 1;
nodes = (
(1856,349,l),
(1854,556,l),
(2184,556,ls),
(2376,556,o),
(2429,559,o),
(2433,560,c),
(2476,887,l),
(2320,883,l),
(2199,883,o),
(2029,882,o),
(1854,880,c),
(1860,950,o),
(1860,1004,o),
(1866,1047,c),
(2710,1062,l),
(2721,1449,l),
(2555,1449,l),
(1957,1433,l),
(1805,1431,l),
(1805,1432,l),
(1724,1430,l),
(1314,1426,l),
(1314,1423,l),
(911,1415,l),
(787,1241,o),
(37,126,o),
(-52,23,c),
(646,-14,l),
(752,174,l),
(1151,174,l),
(1128,-2,l),
(2232,-8,l),
(2476,-8,o),
(2489,-9,o),
(2728,-10,c),
(2760,349,l)
);
},
{
closed = 1;
nodes = (
(920,541,l),
(1205,1022,l),
(1193,883.333,o),
(1181,724.333,o),
(1169,545,c)
);
}
);
width = 2842;
}
);
unicode = 198;
},
{
glyphname = B;
layers = (
{
layerId = m001;
shapes = (
{
closed = 1;
nodes = (
(955,344,o),
(964,468,o),
(974,614,c),
(1366,614,o),
(1541,580,o),
(1562,468,cs),
(1563,462,o),
(1564,455,o),
(1564,449,cs),
(1568,310,o),
(1221,258,o),
(949,258,c)
);
},
{
closed = 1;
nodes = (
(1002,981,o),
(1014,1081,o),
(1024,1141,c),
(1058,1146,o),
(1059,1148,o),
(1103,1148,cs),
(1283,1148,o),
(1506,1124,o),
(1509,1007,cs),
(1509,997,o),
(1507,987,o),
(1504,977,cs),
(1484,903,o),
(1407,845,o),
(1117,845,cs),
(992,845,l)
);
},
{
closed = 1;
nodes = (
(1989,-52,o),
(2233,202,o),
(2225,538,cs),
(2222,680,o),
(2066,775,o),
(1867,807,c),
(2031,847,o),
(2175,978,o),
(2173,1093,cs),
(2167,1346,o),
(1817,1468,o),
(1256,1468,cs),
(984,1468,o),
(419,1420,o),
(277,1364,c),
(264,1009,l),
(265,1009,l),
(243,703,o),
(219,347,o),
(204,60,cs),
(204,56,o),
(203,56,o),
(204,52,cs),
(204,35,o),
(211,20,o),
(238,13,c),
(349,-11,o),
(842,-52,o),
(1085,-52,cs)
);
}
);
width = 2365;
}
);
unicode = 66;
},
{
glyphname = C;
kernLeft = C;
kernRight = C;
layers = (
{
anchors = (
{
name = bottom;
pos = (850,0);
},
{
name = top;
pos = (850,1465);
}
);
layerId = m001;
shapes = (
{
closed = 1;
nodes = (
(133,125,o),
(698,-45,o),
(1236,-45,cs),
(1321,-45,o),
(1428,-42,o),
(1536,-30,c),
(1536,409,l),
(1442,391,o),
(1327,374,o),
(1262,374,c),
(1055,379,o),
(903,461,o),
(903,710,cs),
(903,933,o),
(1059,1015,o),
(1268,1015,cs),
(1366,1015,o),
(1456,1008,o),
(1536,997,c),
(1536,1453,l),
(1474,1460,o),
(1409,1463,o),
(1343,1463,cs),
(1291,1463,o),
(1238,1461,o),
(1185,1457,cs),
(665,1415,o),
(133,1246,o),
(133,702,cs)
);
}
);
width = 1742;
}
);
unicode = 67;
},
{
glyphname = D;
layers = (
{
anchors = (
{
name = center;
pos = (1160,733);
},
{
name = top;
pos = (1160,1465);
}
);
layerId = m001;
shapes = (
{
closed = 1;
nodes = (
(990,1066,o),
(1097,1072,o),
(1172,1072,cs),
(1319,1072,o),
(1490,976,o),
(1490,744,cs),
(1490,406,o),
(1278,363,o),
(922,360,c),
(955,1064,l)
);
},
{
closed = 1;
nodes = (
(576,-22,ls),
(720,-22,o),
(864,-19,o),
(1010,-14,c),
(1620,14,o),
(2188,19,o),
(2188,783,cs),
(2188,1259,o),
(1797,1454,o),
(1287,1454,cs),
(888,1454,o),
(267,1402,o),
(267,1402,c),
(242,746,o),
(169,76,o),
(153,-22,c)
);
}
);
width = 2319;
}
);
unicode = 68;
},
{
glyphname = Eth;
layers = (
{
layerId = m001;
shapes = (
{
closed = 1;
nodes = (
(1147,559,ls),
(1163,844,l),
(1163,867,o),
(1146,873,o),
(1135,873,cs),
(1074,873,o),
(622,871,o),
(191,871,c),
(84,869,l),
(47,591,l),
(47,568,o),
(86,563,o),
(166,563,c)
);
},
{
ref = D;
}
);
width = 1548;
}
);
unicode = 208;
},
{
glyphname = E;
kernLeft = E;
kernRight = E;
layers = (
{
anchors = (
{
name = bottom;
pos = (1024,0);
},
{
name = ogonek;
pos = (1843,10);
},
{
name = top;
pos = (1024,1465);
}
);
layerId = m001;
shapes = (
{
closed = 1;
nodes = (
(1562,-22,o),
(1695,-23,o),
(1934,-24,c),
(1945,41,o),
(1966,78,o),
(1966,349,c),
(916.004,349,l),
(927.004,556,l),
(987.004,557,o),
(1045,557,o),
(1104,557,cs),
(1168.44,556.609,o),
(1223.34,556.448,o),
(1270.02,556.448,cs),
(1462.38,556.448,o),
(1514.98,559.195,o),
(1519,560,c),
(1541.52,646.319,o),
(1562.28,827.71,o),
(1562.28,878.692,cs),
(1562.28,882.048,o),
(1562.19,884.839,o),
(1562,887,c),
(1535,883,o),
(1508,882,o),
(1482,882,cs),
(1455,882,o),
(1430,883,o),
(1406,883,cs),
(1285,883,o),
(1115,882,o),
(940.004,880,c),
(946.004,950,o),
(946.004,1004,o),
(952.004,1047,c),
(1294,1049,o),
(1647,1045,o),
(1916,1069,c),
(1957,1436,l),
(1897,1449,o),
(1823,1449,o),
(1761,1449,c),
(1043,1433,l),
(400.004,1433,l),
(315.004,1429,o),
(309.004,1430,o),
(243.004,1428,c),
(243.004,1399,o),
(176.004,-1,o),
(175.004,-2,cs),
(376.004,3,l),
(376.004,3,o),
(1042,-22,o),
(1318,-22,cs)
);
}
);
width = 2048;
}
);
unicode = 69;
},
{
glyphname = F;
layers = (
{
layerId = m001;
shapes = (
{
closed = 1;
nodes = (
(911,47,o),
(909,95,o),
(911,143,cs),
(925,512,l),
(1288,514,l),
(1397,516,o),
(1491,519,o),
(1588,529,c),
(1610,640,o),
(1633,757,o),
(1633,827,c),
(1585,837,o),
(1532,839,o),
(1483,839,cs),
(1338,839,o),
(1138,836,o),
(939,834,c),
(941,915,o),
(941,971,o),
(949,1061,c),
(1449,1067,l),
(1610,1067,o),
(1772,1067,o),
(1910,1084,c),
(1929,1254,l),
(1943,1333,o),
(1951,1393,o),
(1951,1437,c),
(1911,1447,o),
(1858,1449,o),
(1816,1449,cs),
(1178,1440,l),
(497,1433,l),
(393,1429,o),
(293,1424,o),
(210,1420,c),
(190,324,ls),
(188,217,o),
(178,83,o),
(177,-24,c),
(245,-25,ls),
(292,-25,o),
(794.412,-2.353,o),
(905,0,c)
);
}
);
width = 1912;
}
);
unicode = 70;
},
{
glyphname = G;
kernLeft = G;
kernRight = G;
layers = (
{
anchors = (
{
name = bottom;
pos = (1099,0);
},
{
name = top;
pos = (1099,1465);
}
);
layerId = m001;
shapes = (
{
closed = 1;
nodes = (
(1832,-10,o),
(1984,0,o),
(2020,0,c),
(2020,777,l),
(1981,786,o),
(1313,787,o),
(1278,790,c),
(1265,501,l),
(1503,501,l),
(1466,430,o),
(1382,361,o),
(1240,361,cs),
(1041,361,o),
(909,476,o),
(909,705,cs),
(909,972,o),
(1174,1040,o),
(1405,1040,cs),
(1584,1040,o),
(1798,999,o),
(1884,978,c),
(1884,1404,l),
(1745,1439,o),
(1457,1466,o),
(1325,1466,cs),
(710,1466,o),
(126,1274,o),
(126,690,cs),
(126,180,o),
(585,-45,o),
(1120,-45,cs),
(1352,-45,o),
(1680,44,o),
(1802,194,c),
(1832,-10,l)
);
}
);
width = 2198;
}
);
unicode = 71;
},
{
glyphname = H;
layers = (
{
anchors = (
{
name = center;
pos = (1211,733);
},
{
name = top;
pos = (1211,1465);
}
);
layerId = m001;
shapes = (
{
closed = 1;
nodes = (
(988,1453,l),
(984,1453.21,o),
(977.485,1453.32,o),
(968.804,1453.32,cs),
(855.959,1453.32,o),
(377.214,1436.07,o),
(302,1424,c),
(290,1410,l),
(286,1350,l),
(269,1184,o),
(262,1074,o),
(256,966,c),
(237,456,ls),
(237,441,o),
(235,417,o),
(235,402,cs),
(230,261,o),
(226,103,o),
(226,-17,c),
(356.43,-23.016,ls),
(376,-23.016,ls),
(916,2,l),
(942,432,l),
(1476,432,l),
(1470,317,o),
(1462,60,o),
(1462,-11,c),
(1537,-11,o),
(2124,2,o),
(2180,2,c),
(2197,698,o),
(2201,677,o),
(2201,717,cs),
(2201,792,o),
(2238,1434,o),
(2237,1454,c),
(1661,1439,l),
(1619,1438,o),
(1554,1435,o),
(1509,1429,c),
(1509,1338,o),
(1490,964,o),
(1488,943,c),
(950,943,l)
);
}
);
width = 2421;
}
);
unicode = 72;
},
{
glyphname = I;
kernLeft = I;
kernRight = I;
layers = (
{
anchors = (
{
name = ogonek;
pos = (1065,10);
},
{
name = top;
pos = (592,1465);
}
);
layerId = m001;
shapes = (
{
closed = 1;
nodes = (
(933,1449,o),
(875,1447,o),
(816,1447,c),
(390.525,1396.09,o),
(333,1397,o),
(273,1368,c),
(276,1353,o),
(277,1334,o),
(277,1312,cs),
(277,1177,o),
(266,1003,o),
(256,789,c),
(238,153,l),
(238,86,o),
(244,26,o),
(253,-30,c),
(383,-30,o),
(632,15,o),
(771,15,c),
(837,17,o),
(896,25,o),
(959,32,c),
(958,38,o),
(958,45,o),
(958,51,cs),
(958,72,o),
(960,92,o),
(961,112,cs),
(974,578,l),
(987,835,o),
(985,1010,o),
(1001,1262,c),
(1001,1333,o),
(998,1393,o),
(990,1449,c)
);
}
);
width = 1183;
}
);
unicode = 73;
},
{
glyphname = J;
layers = (
{
anchors = (
{
name = top;
pos = (682,1465);
}
);
layerId = m001;
shapes = (
{
closed = 1;
nodes = (
(1154,1450,o),
(1097,1447,o),
(1043,1447,c),
(574,1408,l),
(514,1408,o),
(458,1406,o),
(405,1401,c),
(408,1349,o),
(408,1296,o),
(409,1247,c),
(409,997.979,o),
(407,729.314,o),
(407,689,cs),
(407,413,o),
(317,274,o),
(96,236,c),
(203,21,o),
(285,-109,o),
(298,-129,c),
(694,-96,o),
(954,25,o),
(1105,284,c),
(1175,402,o),
(1177,569,o),
(1191,854,cs),
(1214,1315,l),
(1213,1364,o),
(1213,1409,o),
(1209,1452,c)
);
}
);
width = 1363;
}
);
unicode = 74;
},
{
glyphname = K;
layers = (
{
anchors = (
{
name = bottom;
pos = (1166,0);
},
{
name = top;
pos = (1166,1465);
}
);
layerId = m001;
shapes = (
{
closed = 1;
nodes = (
(2158,1248,o),
(2155,1249,o),
(2154,1251,c),
(2154,1249,l),
(1782,1368,l),
(1430,1491,l),
(1365,1415,l),
(950,891,l),
(954,1008,o),
(957,1125,o),
(967,1262,c),
(967,1333,o),
(964,1393,o),
(955,1449,c),
(923,1449,o),
(891,1450,o),
(858,1450,cs),
(694,1450,o),
(279,1397,o),
(217,1368,c),
(220,1353,o),
(221,1334,o),
(221,1312,cs),
(221,1177,o),
(210,1003,o),
(200,789,c),
(181,153,l),
(181,86,o),
(187,26,o),
(196,-30,c),
(330,-30,o),
(859,26,o),
(923,32,c),
(923,36,ls),
(923,56,o),
(937,371,o),
(939,532,c),
(1020,446,o),
(1294,200,o),
(1459,61,c),
(1632,-81,l),
(1738,-27,l),
(2293,202,l),
(1637,716,l),
(2027,1108,l),
(2154,1242,l),
(2154,1249,l),
(2158,1248,l)
);
}
);
width = 2332;
}
);
unicode = 75;
},
{
glyphname = L;
layers = (
{
anchors = (
{
name = bottom;
pos = (968,0);
},
{
name = top;
pos = (968,1465);
}
);
layerId = m001;
shapes = (
{
closed = 1;
nodes = (
(239,-20,o),
(274,-22,o),
(359,-22,cs),
(517,-21,o),
(799,-20,o),
(1075,-20,cs),
(1442,-20,o),
(1796,-21,o),
(1829,-21,c),
(1861,200,l),
(1876,279,o),
(1877,323,o),
(1877,367,c),
(1820,376,o),
(1759,380,o),
(1688,380,cs),
(1683,380,o),
(1676,379,o),
(1668,378,cs),
(903,360,l),
(922,624,o),
(935,758,o),
(942,950,c),
(965,1450,l),
(565,1470,o),
(323,1440,o),
(221,1405,c),
(207,1208,o),
(186,659,o),
(180,570,c),
(164,243,l),
(168,-15,l)
);
}
);
width = 1936;
}
);
unicode = 76;
},
{
glyphname = M;
layers = (
{
layerId = m001;
shapes = (
{
closed = 1;
nodes = (
(134,17,l),
(238,2,o),
(448,-9,o),
(591,-9,cs),
(670,-9,o),
(740,-7,o),
(807,-4,c),
(880,635,l),
(977,419,o),
(1177,23,o),
(1177,23,c),
(1269,18,o),
(1445,21,o),
(1470,21,c),
(1876,673,l),
(1893,518,l),
(1906,366,o),
(1939,-29,o),
(1939,-29,c),
(2099,-29,o),
(2395,2,o),
(2557,13,c),
(2550,136,l),
(2521,580,l),
(2515,798,o),
(2498,1035,o),
(2472,1427,c),
(1725,1474,l),
(1331,779,l),
(1009,1370,l),
(973,1447,l),
(830.919,1436.51,o),
(286.023,1426.93,o),
(225.321,1426.93,cs),
(222.365,1426.93,o),
(220.557,1426.95,o),
(220,1427,c),
(170,471,o),
(160,306,o),
(147,173,c)
);
}
);
width = 2687;
}
);
unicode = 77;
},
{
glyphname = N;
kernLeft = N;
kernRight = N;
layers = (
{
anchors = (
{
name = bottom;
pos = (1184,0);
},
{
name = top;
pos = (1184,1465);
}
);
layerId = m001;
shapes = (
{
closed = 1;
nodes = (
(187,1358.33,o),
(187.444,1248.33,o),
(187.444,1166.19,cs),
(187.444,1125.11,o),
(187.333,1091,o),
(187,1077,cs),
(176,762,o),
(165,427,o),
(154,137,c),
(154,75,o),
(161,21,o),
(169,-29,c),
(375,-29,o),
(622,22,o),
(773,32,c),
(772.795,34.257,o),
(772.632,36.473,o),
(772.632,43.494,cs),
(772.632,70.687,o),
(775.078,169.971,o),
(787,623,c),
(1532,-45,l),
(2058,50,o),
(2140,47,o),
(2229,62,c),
(2218,113,o),
(2217,169,o),
(2217,228,cs),
(2217,229,l),
(2220,455,ls),
(2222,616,o),
(2224,808,o),
(2224,958,cs),
(2224,1058,o),
(2226,1201,o),
(2233,1278,c),
(2233,1342,o),
(2228,1397,o),
(2222,1447,c),
(2172,1447,o),
(2120,1446,o),
(2071,1445,c),
(1636,1420,l),
(1624,1380,o),
(1623,1334,o),
(1620,1279,c),
(1620,839,l),
(1468,1016,o),
(1098,1433,o),
(1066,1470,c),
(187,1391,l)
);
}
);
width = 2368;
}
);
unicode = 78;
},
{
glyphname = O;
kernLeft = O;
kernRight = O;
layers = (
{
anchors = (
{
name = top;
pos = (1283,1465);
}
);
layerId = m001;
shapes = (
{
closed = 1;
nodes = (
(1066,361,o),
(927,454,o),
(927,705,c),
(929,944,o),
(1069,1066,o),
(1294,1066,cs),
(1503,1066,o),
(1646,989,o),
(1646,742,cs),
(1646,484,o),
(1514,368,o),
(1283,361,c)
);
},
{
closed = 1;
nodes = (
(1757,-45,o),
(2439,113,o),
(2439,753,cs),
(2439,1340.29,o),
(1808,1481,o),
(1278.01,1481.34,cs),
(977,1481,o),
(126,1344.29,o),
(126,689,cs),
(126,106,o),
(747,-45,o),
(1235,-45,cs)
);
}
);
width = 2565;
}
);
unicode = 79;
},
{
glyphname = Oslash;
layers = (
{
anchors = (
{
name = top;
pos = (1283,1465);
}
);
layerId = m001;
shapes = (
{
closed = 1;
nodes = (
(1827,1628,ls),
(1827,1635,o),
(1820,1638,o),
(1812,1641,cs),
(1650,1703,l),
(1643,1703,l),
(831,-10,l),
(799,-71,o),
(756,-150,o),
(756,-174,c),
(905,-257,ls),
(914,-262,o),
(923,-264,o),
(931,-264,cs),
(951,-264,o),
(949,-243,o),
(960,-220,cs),
(1026,-84,l),
(1827,1625,l)
);
},
{
ref = O;
}
);
width = 2565;
}
);
unicode = 216;
},
{
glyphname = OE;
layers = (
{
anchors = (
{
name = top;
pos = (1687,1465);
}
);
layerId = m001;
shapes = (
{
closed = 1;
nodes = (
(942,936,o),
(1068,1088,o),
(1303,1088,cs),
(1400,1088,o),
(1638,1056,o),
(1641,1016,c),
(1641,967,o),
(1640,931,o),
(1640,900,cs),
(1640,827,o),
(1641,782,o),
(1641,669,cs),
(1641,592,o),
(1642,572,o),
(1652,436,c),
(1652,382,o),
(1424,340,o),
(1302,340,cs),
(1074,340,o),
(942,463,o),
(942,705,cs)
);
},
{
closed = 1;
nodes = (
(2911,-23,o),
(3039,-23,o),
(3182,-34,c),
(3206,14,o),
(3216,58,o),
(3217,133,c),
(3226,156,o),
(3262,230,o),
(3262,246,cs),
(3262,248,o),
(3262,249,o),
(3261,249,c),
(3261,350,l),
(2354,350,l),
(2365,548,l),
(2428.69,549.355,o),
(2489.22,549.511,o),
(2547.74,549.511,cs),
(2610.49,549.511,ls),
(2743.73,549.511,o),
(2868.38,550.487,o),
(2999,565,c),
(3022,679,o),
(3044,790,o),
(3044,863,c),
(2986,873,o),
(2919,875,o),
(2855,875,cs),
(2725,875,o),
(2552,873,o),
(2377,871,c),
(2389,1031,l),
(2667,1034,o),
(2960,1034,o),
(3191,1036,c),
(3217,1121,o),
(3243,1344,o),
(3243,1427,c),
(3231,1426,o),
(3219,1426,o),
(3208,1426,cs),
(3168,1426,o),
(3133,1428,o),
(3096,1431,cs),
(2946,1441,o),
(2817,1443,o),
(2720,1445,c),
(2044,1435,o),
(1746,1429,o),
(1528,1417,c),
(1410,1392,l),
(1380.3,1440.6,o),
(1339.26,1443,o),
(1283.96,1443,cs),
(1265,1443,ls),
(762,1443,o),
(141,1249,o),
(141,698,cs),
(141,181,o),
(632,-17,o),
(1102,-17,cs),
(1223,-17,o),
(1336,1,o),
(1438,34,c),
(1432,4,ls),
(1431,3,o),
(1430,2,o),
(1430,1,cs),
(1430,-13,o),
(1575,-21,o),
(2798,-23,cs)
);
}
);
width = 3373;
}
);
unicode = 338;
},
{
glyphname = P;
layers = (
{
layerId = m001;
shapes = (
{
closed = 1;
nodes = (
(940,447,l),
(987,447,o),
(1178,441,o),
(1306,441,cs),
(1732,441,o),
(2177,532,o),
(2177,939,cs),
(2177,1349,o),
(1754,1453,o),
(1331,1453,cs),
(987,1453,o),
(595,1421,o),
(265,1363,c),
(259,1109,o),
(245,470,o),
(237,270,c),
(234,98,ls),
(233,64,o),
(232,28,o),
(229,-9,c),
(240,-12,o),
(266,-13,o),
(302,-13,cs),
(462,-13,o),
(820,12,o),
(919,19,c)
);
},
{
closed = 1;
nodes = (
(1463,835,o),
(1372,773,o),
(1162,773,cs),
(1102,773,o),
(1032,778,o),
(952,789,c),
(952,803,o),
(953,898,o),
(966,1044,c),
(994,1058,o),
(1221,1071,o),
(1265,1071,cs),
(1359,1071,o),
(1463,1057,o),
(1463,936,cs)
);
}
);
width = 2260;
}
);
unicode = 80;
},
{
glyphname = Thorn;
layers = (
{
layerId = m001;
shapes = (
{
closed = 1;
nodes = (
(880,-10,l),
(1616,-10,o),
(1990,241,o),
(1990,600,cs),
(1990,915,o),
(1772,1148,o),
(1245,1148,cs),
(1149,1148,o),
(1042,1141,o),
(925,1124,c),
(947,1420,l),
(947,1447,o),
(932,1454,o),
(907,1454,cs),
(877,1454,o),
(839,1447,o),
(817,1441,c),
(282,1418,l),
(226,-232,l),
(226,-274,o),
(228,-316,o),
(229,-353,c),
(239,-353,ls),
(325,-353,o),
(657,-332,o),
(866,-311,c)
);
},
{
closed = 1;
nodes = (
(1359,436,o),
(1290,282,o),
(895,272,c),
(920,831,l),
(1290,831,o),
(1359,728,o),
(1359,581,cs)
);
}
);
width = 2120;
}
);
unicode = 222;
},
{
glyphname = Q;
layers = (
{
layerId = m001;
shapes = (
{
closed = 1;
nodes = (
(1068,361,o),
(904,456,o),
(904,705,cs),
(904,952,o),
(1063,1067,o),
(1287,1067,cs),
(1512,1067,o),
(1621,967,o),
(1621,727,cs),
(1621,549,o),
(1539,362,o),
(1291,362,cs),
(1290,362,o),
(1289,363,o),
(1288,363,cs),
(1287,363,o),
(1286,362,o),
(1284,361,c)
);
},
{
closed = 1;
nodes = (
(1655,-337,o),
(1907,-239,o),
(1907,-211,c),
(1722,49,l),
(2328,170,o),
(2437,497,o),
(2437,756,cs),
(2437,783,o),
(2436,808,o),
(2434,833,cs),
(2397.37,1323.88,o),
(1735,1480,o),
(1274,1480,cs),
(1008,1480,o),
(127,1346.65,o),
(127,689,cs),
(127,166,o),
(587,-38,o),
(1085,-38,cs),
(1195,-38,o),
(1300,-28,o),
(1398,-13,c),
(1413,-30,o),
(1638,-337,o),
(1651,-337,cs)
);
}
);
width = 2516;
}
);
unicode = 81;
},
{
glyphname = R;
kernLeft = R;
kernRight = R;
layers = (
{
anchors = (
{
name = bottom;
pos = (1199,0);
},
{
name = top;
pos = (1199,1465);
}
);
layerId = m001;
shapes = (
{
closed = 1;
nodes = (
(1081,1067,o),
(1137,1070,o),
(1235,1070,cs),
(1322,1070,o),
(1477,1057,o),
(1477,954,cs),
(1477,803,o),
(1255,812,o),
(988,782,c),
(1005,1064,l)
);
},
{
closed = 1;
nodes = (
(2292,19,l),
(2195,140,o),
(1943,501,o),
(1831,629,c),
(2013,691,o),
(2188,822,o),
(2188,1027,cs),
(2188,1415,o),
(1772,1449,o),
(1313,1449,c),
(403,1394,o),
(308,1394,o),
(294,1394,c),
(284,811,l),
(278,646,ls),
(269,406,o),
(258,143,o),
(258,-38,c),
(492,-30,l),
(597,-30,o),
(821,-7,o),
(946,0,cs),
(953,1,o),
(953,5,o),
(953,9,cs),
(973,506,l),
(1218,523,l),
(1270,400,o),
(1464,0,o),
(1511,-86,c),
(1628,-70,l)
);
}
);
width = 2398;
}
);
unicode = 82;
},
{
glyphname = S;
kernLeft = S;
kernRight = S;
layers = (
{
anchors = (
{
name = bottom;
pos = (1085,0);
},
{
name = top;
pos = (1085,1465);
}
);
layerId = m001;
shapes = (
{
closed = 1;
nodes = (
(1603,-51,o),
(2019,69,o),
(2019,454,cs),
(2019,837,o),
(1506,879,o),
(1085,950,cs),
(960,971,o),
(890,979,o),
(890,1019,cs),
(890,1082,o),
(1027,1085,o),
(1102,1085,cs),
(1247,1085,o),
(1522,1043,o),
(1799,968,c),
(1837,1053,o),
(1862,1161,o),
(1907,1330,c),
(1780,1392,o),
(1441,1465,o),
(1209,1465,cs),
(724,1465,o),
(164,1421,o),
(164,985,cs),
(164,574,o),
(656,534,o),
(1180,450,cs),
(1201,447,o),
(1250,445,o),
(1250,399,cs),
(1250,352,o),
(1158,344,o),
(1091,344,cs),
(760,344,o),
(561,393,o),
(270,466,c),
(264,466,o),
(262,462,o),
(262,459,cs),
(228,328,o),
(197,217,o),
(165,84,c),
(442,-8,o),
(765,-49,o),
(1019,-51,c)
);
}
);
width = 2157;
}
);
unicode = 83;
},
{
glyphname = T;
kernLeft = T;
kernRight = T;
layers = (
{
anchors = (
{
name = bottom;
pos = (986,0);
},
{
name = center;
pos = (986,733);
},
{
name = top;
pos = (986,1465);
}
);
layerId = m001;
shapes = (
{
closed = 1;
nodes = (
(1292,44,o),
(1312,590,o),
(1323,835,c),
(1329,1051,l),
(1850,1051,l),
(1881,1151,o),
(1911,1360,o),
(1921,1446,c),
(1871,1447,o),
(1812,1449,o),
(1755,1449,cs),
(1287,1446,o),
(526,1432,o),
(138,1420,c),
(122,1320,o),
(101,1091,o),
(99,1051,c),
(377.667,1051,o),
(499,1051.44,o),
(567.889,1051.44,cs),
(602.333,1051.44,o),
(623.667,1051.33,o),
(645,1051,c),
(638,919,o),
(635,826,o),
(630,669,cs),
(618,265,l),
(610,93,o),
(609,34,o),
(609,-25,c),
(610.417,-25.07,o),
(612.108,-25.104,o),
(614.059,-25.104,cs),
(696.072,-25.104,o),
(1238.3,35.116,o),
(1293,40,c)
);
}
);
width = 1972;
}
);
unicode = 84;
},
{
glyphname = U;
kernLeft = U;
kernRight = U;
layers = (
{
anchors = (
{
name = ogonek;
pos = (2193,10);
},
{
name = top;
pos = (1225,1465);
}
);
layerId = m001;
shapes = (
{
closed = 1;
nodes = (
(1618,-48,o),
(2147,56,o),
(2267,545,c),
(2286,587,o),
(2310,1024,o),
(2315,1283,cs),
(2315,1333,o),
(2314,1379,o),
(2314,1426,c),
(1957,1417,o),
(1741,1411,o),
(1540,1401,c),
(1535,1238,l),
(1516,710,l),
(1515,483,o),
(1388,358,o),
(1209,358,cs),
(984.644,358,o),
(927.199,506.561,o),
(927.199,610.888,cs),
(927.199,618.162,o),
(927.479,625.221,o),
(928,632,cs),
(959,1285,l),
(959,1336,o),
(959,1389,o),
(962,1443,c),
(653,1437,l),
(168,1415,l),
(153,1312,o),
(156,1184,o),
(149,984,c),
(144,677,ls),
(143,648,o),
(142,618,o),
(142,592,cs),
(142,-7,o),
(725.118,-48,o),
(1191,-48,cs)
);
}
);
width = 2435;
}
);
unicode = 85;
},
{
glyphname = V;
layers = (
{
layerId = m001;
shapes = (
{
closed = 1;
nodes = (
(1332,1461,l),
(1091,711,l),
(815,1465,l),
(558,1460,l),
(69,1439,l),
(113,1328,ls),
(125,1298,o),
(617,132,o),
(713,-87,c),
(843,-87,o),
(1263,-65,o),
(1329,-47,c),
(1381,72,l),
(1478,272,o),
(2034,1464,o),
(2034,1470,c),
(1771,1468,l)
);
}
);
width = 2032;
}
);
unicode = 86;
},
{
glyphname = W;
layers = (
{
anchors = (
{
name = top;
pos = (1513,1465);
}
);
layerId = m001;
shapes = (
{
closed = 1;
nodes = (
(1949,-87,o),
(2305,-55,o),
(2371,-37,cs),
(2408,-27,o),
(2395,6,o),
(2427,72,c),
(3014,1428,ls),
(3018,1435,o),
(3020,1442,o),
(3020,1448,cs),
(3020,1469,o),
(2992,1481,o),
(2902,1481,cs),
(2868,1481,o),
(2822,1475,o),
(2760,1468,c),
(2356,1408,ls),
(2326,1403,o),
(2323,1390,o),
(2311,1371,c),
(2120,711,l),
(1847,1458,l),
(1842,1464,o),
(1840,1468,o),
(1833,1468,cs),
(1831,1468,o),
(1828,1468,o),
(1826,1467,c),
(1826,1475,o),
(1819,1479,o),
(1796,1479,cs),
(1756,1479,o),
(1735,1475,o),
(1624,1464,c),
(1302,1428,o),
(1297,1454,o),
(1297,1399,c),
(1296,1400,l),
(1076,711,l),
(843,1458,l),
(838,1464,o),
(836,1468,o),
(829,1468,cs),
(827,1468,o),
(824,1468,o),
(822,1467,c),
(822,1475,o),
(815,1479,o),
(792,1479,cs),
(752,1479,o),
(694,1475,o),
(583,1464,c),
(261,1428,o),
(136,1424,o),
(136,1369,cs),
(136,1361,o),
(138,1353,o),
(143,1343,c),
(140,1340,o),
(138,1334,o),
(138,1328,cs),
(138,1297,o),
(168,1236,o),
(179,1199,c),
(698,-87,l),
(828,-87,o),
(1224,-55,o),
(1290,-37,cs),
(1327,-27,o),
(1374,60,o),
(1396,132,cs),
(1563,673,l),
(1819,-87,l)
);
}
);
width = 3026;
}
);
unicode = 87;
},
{
glyphname = X;
layers = (
{
layerId = m001;
shapes = (
{
closed = 1;
nodes = (
(790,1492,l),
(790,1492,o),
(782,1490,o),
(770,1489,c),
(339,1412,o),
(165,1339,o),
(124,1329,c),
(725,725,l),
(455,455,o),
(371,357,o),
(316,294,cs),
(164,123,l),
(776,-92,l),
(1162,299,l),
(1607,-88,l),
(1783,-23,l),
(2197,172,l),
(2040,321,o),
(1685,652,o),
(1595,732,c),
(1677,806,o),
(1804,939,o),
(2216,1350,c),
(1489,1478,l),
(1159,1130,l)
);
}
);
width = 2260;
}
);
unicode = 88;
},
{
glyphname = Y;
kernLeft = Y;
kernRight = Y;
layers = (
{
anchors = (
{
name = top;
pos = (1021,1465);
}
);
layerId = m001;
shapes = (
{
closed = 1;
nodes = (
(1233,2,l),
(1372,8,l),
(1398,561,l),
(2019,1428,ls),
(2023,1435,o),
(2025,1442,o),
(2025,1448,cs),
(2025,1469,o),
(1997,1481,o),
(1907,1481,cs),
(1873,1481,o),
(1827,1475,o),
(1765,1468,c),
(1371,1446,l),
(1341,1441,o),
(1338,1428,o),
(1326,1409,cs),
(1105,1022,l),
(792,1458,ls),
(787,1464,o),
(785,1468,o),
(778,1468,cs),
(776,1468,o),
(773,1468,o),
(771,1467,c),
(771,1475,o),
(764,1479,o),
(741,1479,cs),
(701,1479,o),
(663,1475,o),
(552,1464,c),
(230,1428,o),
(105,1424,o),
(105,1369,cs),
(105,1361,o),
(107,1353,o),
(112,1343,c),
(656,513,l),
(656,481,o),
(658,46,o),
(667,-10,c)
);
}
);
width = 2033;
}
);
unicode = 89;
},
{
glyphname = Z;
kernLeft = Z;
kernRight = Z;
layers = (
{
anchors = (
{
name = top;
pos = (992,1465);
}
);
layerId = m001;
shapes = (
{
closed = 1;
nodes = (
(1537,0,o),
(1794,25,o),
(1818,28,c),
(1830,77,o),
(1885,374,o),
(1885,415,c),
(1839,421,o),
(1786,426,o),
(1732,426,cs),
(1652,426,o),
(1575,420,o),
(1494,420,cs),
(1191,420,l),
(1415,710,o),
(1814,1334,o),
(1854,1408,c),
(1460,1408,o),
(1071,1420,o),
(675,1420,cs),
(519,1420,o),
(358,1416,o),
(221,1392,c),
(166,1011,l),
(224,1007,o),
(289,1000,o),
(352,1000,cs),
(365,1000,o),
(376,1003,o),
(389,1003,cs),
(525,1003,o),
(762,1001,o),
(879,996,c),
(162,59,ls),
(162,58,o),
(161,26,o),
(161,25,cs),
(219,4,o),
(292,0,o),
(361,0,cs),
(1381,0,ls)
);
}
);
width = 1984;
}
);
unicode = 90;
},
{
glyphname = E_E;
lastChange = "2023-06-29 06:57:00 +0000";
layers = (
{
anchors = (
{
name = bottom;
pos = (1989,0);
},
{
name = ogonek;
pos = (3579,10);
},
{
name = top;
pos = (1989,1026);
}
);
layerId = m001;
shapes = (
{
closed = 1;
nodes = (
(3895,349,l),
(2845,349,l),
(2856,556,l),
(2916,557,o),
(3433,559,o),
(3437,560,c),
(3481,887,l),
(2869,880,l),
(2875,950,o),
(2875,1004,o),
(2881,1047,c),
(3868,1069,l),
(3886,1431,l),
(3690,1433,l),
(2329,1433,l),
(2244,1429,o),
(2238,1430,o),
(2172,1428,c),
(2172,1399,o),
(2145,-6,o),
(2144,-7,c),
(2305,-2,o),
(2971,-9,o),
(3247,-9,cs),
(3491,-9,o),
(3644,-12,o),
(3883,-13,c)
);
},
{
closed = 1;
nodes = (
(1966,349,l),
(916,349,l),
(927,556,l),
(987,557,o),
(1515,559,o),
(1519,560,c),
(1542,646,o),
(1562,828,o),
(1562,879,cs),
(1562,887,l),
(1535,883,o),
(1115,882,o),
(940,880,c),
(946,950,o),
(946,1004,o),
(952,1047,c),
(1916,1069,l),
(1957,1431,l),
(1761,1433,l),
(400,1433,l),
(315,1429,o),
(309,1430,o),
(243,1428,c),
(243,1399,o),
(176,-1,o),
(175,-2,cs),
(376,3,l),
(376,3,o),
(1042,-22,o),
(1318,-22,cs),
(1562,-22,o),
(1695,-23,o),
(1934,-24,c)
);
}
);
width = 3977;
}
);
},
{
glyphname = a;
kernLeft = a;
kernRight = a;
layers = (
{
anchors = (
{
name = ogonek;
pos = (1651,10);
},
{
name = top;
pos = (918,1026);
}
);
layerId = m001;
shapes = (
{
closed = 1;
nodes = (
(999,-39,o),
(1154,66,o),
(1231,191,c),
(1292,-6,l),
(1668,22,l),
(1671,1041,l),
(1219,1079,l),
(1217,866,l),
(1100,1016,o),
(958,1058,o),
(735,1058,cs),
(410,1058,o),
(119,858,o),
(119,476,cs),
(119,114,o),
(451,-39,o),
(751,-39,cs)
);
},
{
closed = 1;
nodes = (
(808,264,o),
(704,327,o),
(704,475,cs),
(704,609,o),
(783,724,o),
(928,724,cs),
(1067,724,o),
(1148,627,o),
(1148,500,cs),
(1148,348,o),
(1068,267,o),
(921,264,c)
);
}
);
width = 1835;
}
);
unicode = 97;
},
{
glyphname = ae;
layers = (
{
anchors = (
{
name = top;
pos = (1306,1026);
}
);
layerId = m001;
shapes = (
{
closed = 1;
nodes = (
(1690,716,o),
(1750,796,o),
(1869,796,cs),
(1967,796,o),
(2032,756,o),
(2039,625,c),
(1678,625,l)
);
},
{
closed = 1;
nodes = (
(735,384,o),
(828,442,o),
(1010,442,cs),
(1090,442,o),
(1104,441,o),
(1155,440,c),
(1163,387,o),
(1179,347,o),
(1190,323,c),
(1078,246,o),
(962,209,o),
(875,209,cs),
(783.235,209,o),
(735,255,o),
(735,308,cs)
);
},
{
closed = 1;
nodes = (
(1455,22,o),
(1669,-38,o),
(1888,-38,cs),
(2144,-38,o),
(2375,21,o),
(2452,83,c),
(2461,337,l),
(2407,337,l),
(2265,276,o),
(2132,248,o),
(2019,248,cs),
(1835,248,o),
(1702,320,o),
(1665,441,c),
(2476,441,l),
(2481,564,ls),
(2482,575,o),
(2482,577,o),
(2482,587,cs),
(2482,923,o),
(2143,1046,o),
(1871,1046,cs),
(1704,1046,o),
(1489,999,o),
(1377,880,c),
(1279,999,o),
(1037,1046,o),
(854,1046,cs),
(598,1046,o),
(337,977,o),
(210,915,c),
(281,671,l),
(325,671,l),
(516,741,o),
(682,776,o),
(813,776,cs),
(973,776,o),
(1081,724,o),
(1116,622,c),
(817,622,ls),
(416,622,o),
(181,495,o),
(181,267,cs),
(181,62,o),
(379,-38,o),
(709,-38,cs),
(921,-38,o),
(1139.71,-7.941,o),
(1315,145,c)
);
}
);
width = 2612;
}
);
unicode = 230;
},
{
glyphname = b;
layers = (
{
layerId = m001;
shapes = (
{
closed = 1;
nodes = (
(883,-37,o),
(1106,-37,cs),
(1477,-37,o),
(1798,217,o),
(1798,528,cs),
(1798,860,o),
(1500,1047,o),
(1162,1047,cs),
(1004,1047,o),
(848,992,o),
(742,920,c),
(744,998,o),
(760,1261,o),
(760,1341,cs),
(760,1373,o),
(762,1406,o),
(762,1438,c),
(721,1447,o),
(674,1449,o),
(628,1449,cs),
(581,1449,o),
(248,1410,o),
(196,1403,c),
(196,1269,l),
(148,140,l),
(149,137,l),
(147,94,o),
(146,49,o),
(145,6,c),
(162,-8,o),
(183,-14,o),
(210,-14,cs),
(223,-14,o),
(426,17,o),
(441,26,c),
(444,26,o),
(542,176,o),
(548,194,c),
(548,190,l),
(669,41,o)
);
},
{
closed = 1;
nodes = (
(1212,661,o),
(1212,518,cs),
(1212,369,o),
(1115,250,o),
(958,250,cs),
(774,250,o),
(690,371,o),
(690,496,cs),
(690,630,o),
(781,768,o),
(956,768,cs),
(1116,768,o)
);
}
);
width = 1909;
}
);
unicode = 98;
},
{
glyphname = c;
kernLeft = c;
kernRight = c;
layers = (
{
anchors = (
{
name = bottom;
pos = (804,0);
},
{
name = top;
pos = (804,1026);
}
);
layerId = m001;
shapes = (
{
closed = 1;
nodes = (
(1196,-39,o),
(1330,-18,o),
(1440,11,c),
(1433,326,l),
(1321,307,o),
(1184,298,o),
(1103,298,cs),
(851,298,o),
(742,383,o),
(742,501,cs),
(742,659,o),
(953,697,o),
(1183,697,cs),
(1292,697,o),
(1366,685,o),
(1463,667,c),
(1488,988,l),
(1366,1014,o),
(1127,1048,o),
(1017,1048,cs),
(599,1048,o),
(119,902,o),
(119,490,cs),
(119,79,o),
(603,-39,o),
(1020,-39,cs)
);
}
);
width = 1638;
}
);
unicode = 99;
},
{
glyphname = d;
layers = (
{
anchors = (
{
name = center;
pos = (949,513);
}
);
layerId = m001;
shapes = (
{
closed = 1;
nodes = (
(784.886,255,o),
(716.465,345.412,o),
(716.465,502.16,cs),
(716.465,618.824,o),
(804.542,770,o),
(968.833,770,cs),
(1117.37,770,o),
(1203.07,651.57,o),
(1203.07,527.71,c),
(1199.41,394.172,o),
(1114.59,255,o),
(920.796,255,cs)
);
},
{
closed = 1;
nodes = (
(1380.89,145.815,o),
(1425,73,o),
(1475,-15,c),
(1569,9,o),
(1729.18,25.381,o),
(1752.2,37.876,c),
(1752.2,1445.19,ls),
(1749.24,1445.19,ls),
(1688.09,1445.19,o),
(1328.78,1419.46,o),
(1232.28,1415.17,c),
(1231.47,1399.71,o),
(1226.24,1342.49,o),
(1226.24,1308.95,cs),
(1223.14,1186.92,o),
(1217.05,1039.85,o),
(1213.95,919.086,c),
(1117.35,992.015,o),
(970.749,1047,o),
(820.192,1047,cs),
(473.817,1047,o),
(119,859.235,o),
(119,482.184,cs),
(119,175.389,o),
(403.605,-33,o),
(765.81,-33,cs),
(1094.66,-33,o),
(1241.41,85.385,o),
(1343.76,219.547,c)
);
}
);
width = 1898;
}
);
unicode = 100;
},
{
glyphname = eth;
layers = (
{
layerId = m001;
shapes = (
{
closed = 1;
nodes = (
(824,265,o),
(695,355,o),
(695,563,cs),
(695,691,o),
(767,803,o),
(963,803,cs),
(997,803,o),
(1017,798,o),
(1062,786,c),
(1130,662,o),
(1161,557,o),
(1161,474,cs),
(1161,340,o),
(1079,265,o),
(945,265,cs)
);
},
{
closed = 1;
nodes = (
(1590,-52,o),
(1711,312,o),
(1711,550,cs),
(1711,822,o),
(1566,1070,o),
(1178,1403,c),
(1472,1470,l),
(1322,1618,l),
(1018,1551,l),
(942,1620,o),
(831,1680,o),
(781,1710,c),
(779,1710,ls),
(753,1710,o),
(536,1672,o),
(446,1652,c),
(464,1634,o),
(623,1494,o),
(662,1441,c),
(396,1368,ls),
(395,1368,o),
(395,1367,o),
(395,1366,cs),
(538,1210,l),
(792,1282,l),
(844,1245,o),
(921,1136,o),
(957,1074,c),
(911,1079,o),
(866,1082,o),
(822,1082,cs),
(422,1082,o),
(102,871,o),
(102,549,cs),
(102,253,o),
(302,-52,o),
(888,-52,cs)
);
}
);
width = 1829;
}
);
unicode = 240;
},
{
glyphname = e;
kernLeft = e;
kernRight = e;
layers = (
{
anchors = (
{
name = bottom;
pos = (818,0);
},
{
name = ogonek;
pos = (1472,10);
},
{
name = top;
pos = (818,1026);
}
);
layerId = m001;
shapes = (
{
closed = 1;
nodes = (
(701.521,717,o),
(764.521,797,o),
(883.521,796,cs),
(981.521,795,o),
(1045.52,755,o),
(1047.52,624,c),
(686.521,626,l)
);
},
{
closed = 1;
nodes = (
(1126.52,-39,o),
(1359.52,19,o),
(1439.52,80,c),
(1458.52,334,l),
(1404.52,334,l),
(1259.52,274,o),
(1125.52,247,o),
(1012.52,247,cs),
(828.521,248,o),
(698.521,321,o),
(666.521,442,c),
(1477.52,438,l),
(1486.52,561,l),
(1488.52,572,o),
(1488.52,574,o),
(1488.52,584,cs),
(1501.52,920,o),
(1147.52,1045,o),
(875.521,1046,cs),
(533.521,1048,o),
(131.521,938,o),
(114.521,500,cs),
(97.521,77,o),
(499.521,-36,o),
(870.521,-38,cs)
);
}
);
width = 1636;
}
);
unicode = 101;
},
{
glyphname = f;
layers = (
{
layerId = m001;
shapes = (
{
closed = 1;
nodes = (
(894,124,l),
(894,274,o),
(910,514,o),
(921,747,c),
(1331,747,l),
(1342,819,o),
(1350,925,o),
(1350,971,c),
(1290,979,o),
(1227,981,o),
(1166,981,cs),
(922,981,l),
(952,1102,o),
(1007,1188,o),
(1254,1188,cs),
(1307,1188,o),
(1367,1184,o),
(1438,1176,c),
(1426,1244,o),
(1410,1358,o),
(1410,1498,c),
(1305,1512,o),
(1205,1519,o),
(1112,1519,cs),
(660,1519,o),
(352,1356,o),
(335,981,c),
(126,981,l),
(118,924,o),
(66,803,o),
(64,754,c),
(91,747,o),
(127,745,o),
(182,745,cs),
(322,745,l),
(306,478,o),
(292,199,o),
(290,68,cs),
(290,35,o),
(293,6,o),
(294,-21,c),
(324,-23,o),
(354,-24,o),
(385,-24,c),
(896,2,l)
);
}
);
width = 1393;
}
);
unicode = 102;
},
{
glyphname = g;
kernLeft = g;
kernRight = g;
layers = (
{
anchors = (
{
name = top;
pos = (971,1026);
}
);
layerId = m001;
shapes = (
{
closed = 1;
nodes = (
(1209,-554,o),
(1691,-345,o),
(1708,19,c),
(1763,1006,l),
(1666,1013,l),
(1229,1047,l),
(1219,944,l),
(1108,1011,o),
(972,1057,o),
(794,1057,cs),
(417,1057,o),
(119,803,o),
(119,491,cs),
(119,148,o),
(456,-17,o),
(772,-17,cs),
(909,-17,o),
(1041,14,o),
(1141,74,c),
(1128,-148,o),
(938,-218,o),
(738,-218,cs),
(627,-218,o),
(513,-196,o),
(425,-168,c),
(378,-168,l),
(325,-476,l),
(452,-529,o),
(604,-554,o),
(760,-554,cs)
);
},
{
closed = 1;
nodes = (
(701,626,o),
(782,760,o),
(945,760,cs),
(1103,760,o),
(1171,636,o),
(1171,512,cs),
(1171,386,o),
(1101,259,o),
(912,259,cs),
(772,259,o),
(701,376,o),
(701,496,cs)
);
}
);
width = 1900;
}
);
unicode = 103;
},
{
glyphname = h;
layers = (
{
anchors = (
{
name = center;
pos = (966,513);
},
{
name = top;
pos = (966,1026);
}
);
layerId = m001;
shapes = (
{
closed = 1;
nodes = (
(1812,592,ls),
(1812,607,ls),
(1812,868,o),
(1589,1058,o),
(1260,1058,cs),
(1108,1058,o),
(933,1017,o),
(747,924,c),
(752,1024,o),
(767,1310,o),
(767,1392,cs),
(767,1424,o),
(764,1453,o),
(756,1477,c),
(719,1477,o),
(678,1471,o),
(640,1470,c),
(286,1436,o),
(223,1432,o),
(178,1430,c),
(131,96,l),
(131,60,o),
(132,32,o),
(135,-1,c),
(629,1,l),
(672,3,o),
(708,7,o),
(738,11,c),
(738,247,ls),
(738,622,o),
(827,708,o),
(991,708,cs),
(1180,708,o),
(1212,597,o),
(1212,521,c),
(1191,-2,l),
(1191,-3,l),
(1294,-3,l),
(1794,1,l)
);
}
);
width = 1931;
}
);
unicode = 104;
},
{
glyphname = i;
kernLeft = i;
kernRight = i;
layers = (
{
layerId = m001;
shapes = (
{
closed = 1;
nodes = (
(679,1026,l),
(520,1009,o),
(358,1000,o),
(205,990,c),
(190,875,o),
(179,588,o),
(174,416,c),
(164,209,o),
(157,55,o),
(157,4,c),
(189,-6,o),
(222,-6,o),
(255,-6,cs),
(256,-6,l),
(398,8,o),
(648,8,o),
(743,21,c),
(741,42,o),
(741,62,o),
(741,82,cs),
(741,89,ls),
(779,1023,l),
(747,1025,o),
(715,1026,o),
(683,1026,cs)
);
},
{
closed = 1;
nodes = (
(861,1511,o),
(773,1605,o),
(610,1605,cs),
(289,1605,o),
(191,1475,o),
(191,1385,cs),
(191,1224,o),
(272,1198,o),
(496,1198,cs),
(651,1198,o),
(828,1255,o),
(844,1378,cs)
);
}
);
width = 944;
}
);
unicode = 105;
},
{
glyphname = idotless;
lastChange = "2023-06-29 06:57:00 +0000";
layers = (
{
anchors = (
{
name = ogonek;
pos = (850,10);
},
{
name = top;
pos = (472,1026);
}
);
layerId = m001;
shapes = (
{
closed = 1;
nodes = (
(679,1026,l),
(520,1009,o),
(358,1000,o),
(205,990,c),
(190,875,o),
(179,588,o),
(174,416,c),
(164,209,o),
(157,55,o),
(157,4,c),
(189,-6,o),
(222,-6,o),
(255,-6,cs),
(256,-6,l),
(398,8,o),
(648,8,o),
(743,21,c),
(741,42,o),
(741,62,o),
(741,82,cs),
(741,89,ls),
(779,1023,l),
(747,1025,o),
(715,1026,o),
(683,1026,cs)
);
}
);
width = 944;
}
);
unicode = 305;
},
{
glyphname = j;
layers = (
{
layerId = m001;
shapes = (
{
closed = 1;
nodes = (
(-63,-439,l),
(-30,-441,o),
(174,-448,o),
(267,-448,cs),
(677,-448,o),
(915,-310,o),
(936,103,c),
(965,1023,l),
(946,1025,o),
(926,1026,o),
(903,1026,cs),
(900,1026,l),
(749,1014,o),
(484,994,o),
(380,980,c),
(374,657,o),
(367,454,o),
(353,184,cs),
(340,-85,o),
(235,-123,o),
(80,-123,cs),
(47,-123,o),
(10,-121,o),
(-28,-119,c),
(-28,-146,o),
(-63,-415,o),
(-63,-438,cs)
);
},
{
closed = 1;
nodes = (
(1026,1546.47,o),
(923,1606,o),
(738,1606,cs),
(458,1606,o),
(371,1500,o),
(371,1415,cs),
(371,1254,o),
(452,1198,o),
(676,1198,cs),
(858,1198,o),
(1026,1263,o),
(1026,1410,cs)
);
}
);
width = 1087;
}
);
unicode = 106;
},
{
glyphname = k;
layers = (
{
anchors = (
{
name = bottom;
pos = (884,0);
}
);
layerId = m001;
shapes = (
{
closed = 1;
nodes = (
(1742,27,l),
(1707,61,o),
(1677,97,o),
(1640,132,c),
(1529,255,o),
(1396,415,o),
(1258,561,c),
(1302,602,o),
(1345,638,o),
(1384,671,c),
(1631,907,l),
(1720,987,l),
(1681,988,o),
(1641,989,o),
(1599,989,cs),
(1027,978,l),
(1001,958,o),
(958,916,o),
(912,872,cs),
(738,709,l),
(741,817,o),
(750,967,o),
(758,1111,cs),
(771,1372,l),
(773,1482,l),
(638,1494,l),
(357,1460,l),
(300,1456,o),
(229,1452,o),
(186,1447,c),
(186,1402,o),
(188,1361,o),
(188,1318,c),
(135,122,l),
(130,-11,l),
(693,28,ls),
(716,30,o),
(718,73,o),
(718,102,cs),
(718,342,l),
(803,412,l),
(902,298,o),
(1071,40,o),
(1156,-28,c)
);
}
);
width = 1768;
}
);
unicode = 107;
},
{
glyphname = l;
layers = (
{
anchors = (
{
name = bottom;
pos = (446,0);
},
{
name = top;
pos = (446,1026);
},
{
name = topright;
pos = (872,1026);
}
);
layerId = m001;
shapes = (
{
closed = 1;
nodes = (
(737,-2,l),
(735,142,l),
(779,1343,l),
(785,1486,l),
(593,1463,o),
(279,1434,o),
(190,1424,c),
(190,1208,o),
(181,1090,o),
(176,928,cs),
(146,-17,l)
);
}
);
width = 892;
}
);
unicode = 108;
},
{
glyphname = m;
layers = (
{
layerId = m001;
shapes = (
{
closed = 1;
nodes = (
(742,113,o),
(740,232,o),
(740,303,cs),
(740,342,ls),
(740,564,o),
(745,757,o),
(937,769,cs),
(1064,777,o),
(1124,717,o),
(1124,529,cs),
(1124,522,o),
(1114,234,o),
(1114,72,c),
(1114,-9,ls),
(1711,9,l),
(1711,323,ls),
(1711,717,o),
(1809,740,o),
(1893,747,cs),
(2041,759,o),
(2090,653,o),
(2090,499,c),
(2090,-11,l),
(2163,-11,o),
(2570,1,o),
(2685,-1,c),
(2695,363,o),
(2703,466,o),
(2703,540,cs),
(2703,834,o),
(2503,1036,o),
(2129,1036,cs),
(1931,1036,o),
(1725,989,o),
(1593,851,c),
(1487,976,o),
(1366,1036,o),
(1138,1036,cs),
(927,1036,o),
(721,983,o),
(595,823,c),
(488,1029,l),
(163,988,l),
(162,961,o),
(147,322,o),
(137,93,c),
(131,-11,l),
(742,-9,l)
);
}
);
width = 2822;
}
);
unicode = 109;
},
{
glyphname = n;
kernLeft = n;
kernRight = n;
layers = (
{
anchors = (
{
name = bottom;
pos = (961,0);
},
{
name = top;
pos = (961,1026);
}
);
layerId = m001;
shapes = (
{
closed = 1;
nodes = (
(1117,709,o),
(1199,605,o),
(1199,469,c),
(1199,469,o),
(1193,-7,o),
(1193,-7,c),
(1789,-3,l),
(1799,361,o),
(1807,466,o),
(1807,540,cs),
(1807,588,o),
(1804,638,o),
(1794,685,c),
(1730,923,o),
(1495.5,1036,o),
(1183.08,1036,cs),
(971.96,1036,o),
(726.928,983.102,o),
(600.798,822.609,c),
(493.613,1029.43,l),
(159,958,l),
(157.824,926.235,o),
(132,90,o),
(131,-10,c),
(728,0,l),
(728,0,o),
(733,232,o),
(733,303,cs),
(733,510,o),
(773.67,709,o),
(999,709,cs)
);
}
);
width = 1925;
}
);
unicode = 110;
},
{
glyphname = o;
kernLeft = o;
kernRight = o;
layers = (
{
anchors = (
{
name = top;
pos = (901,1026);
}
);
layerId = m001;
shapes = (
{
closed = 1;
nodes = (
(1146.02,359.994,o),
(1070.44,239.006,o),
(904.465,236,c),
(742.378,236,o),
(668.282,332.211,o),
(668.282,500.066,cs),
(668.282,631.048,o),
(735.31,773,o),
(898.988,773,cs),
(1059.15,773,o),
(1146.02,662.376,o),
(1146.02,521.743,cs)
);
},
{
closed = 1;
nodes = (
(114,53.1,o),
(521.149,-37,o),
(888.108,-37,cs),
(1240.85,-37,o),
(1687.2,38.23,o),
(1687.2,525.932,cs),
(1687.2,873.263,o),
(1370.74,1070,o),
(945.23,1070,cs),
(459.22,1070,o),
(114,913.821,o),
(114,492.176,cs)
);
}
);
width = 1801;
}
);
unicode = 111;
},
{
glyphname = oslash;
layers = (
{
anchors = (
{
name = top;
pos = (901,1026);
}
);
layerId = m001;
shapes = (
{
closed = 1;
nodes = (
(1374,1200,o),
(1250,1253,o),
(1246,1253,c),
(448,-174,l),
(562,-250,l),
(1375,1199,l)
);
},
{
ref = o;
}
);
width = 1801;
}
);
unicode = 248;
},
{
glyphname = oe;
layers = (
{
anchors = (
{
name = top;
pos = (944,1026);
}
);
layerId = m001;
shapes = (
{
closed = 1;
nodes = (
(1570,831,o),
(1660,781,o),
(1660,682,cs),
(1660,678,o),
(1659,674,o),
(1659,671,c),
(1260,631,l),
(1299,744,o),
(1393,831,o),
(1507,831,cs)
);
},
{
closed = 1;
nodes = (
(539,217,o),
(485,369,o),
(485,499,cs),
(485,599,o),
(535,828,o),
(680,828,cs),
(806,828,o),
(887,703,o),
(887,574,cs),
(887,467,o),
(856,227,o),
(696,217,c)
);
},
{
closed = 1;
nodes = (
(808,-60,o),
(893,7,o),
(1019,126,c),
(1128,-18,o),
(1257,-103,o),
(1449,-103,cs),
(1561,-103,o),
(1685,-52,o),
(1781,-40,c),
(1790,-32,o),
(1792,9,o),
(1792,60,c),
(1822,140,o),
(1852,298,o),
(1858,298,c),
(1858,307,l),
(1752,249,o),
(1627,194,o),
(1488,194,cs),
(1382,194,o),
(1278,261,o),
(1272,411,c),
(1341,410,o),
(1411,409,o),
(1483,406,c),
(1717,416,o),
(1856,411,o),
(1856,444,cs),
(1856,446,o),
(1855,447,o),
(1855,449,c),
(1879,455,o),
(1890,471,o),
(1890,497,c),
(1914,566,o),
(1925,632,o),
(1925,701,cs),
(1925,945,o),
(1715,1125,o),
(1511,1125,cs),
(1338,1125,o),
(1196,1051,o),
(1084,936,c),
(999,1034,o),
(886,1097,o),
(749,1097,cs),
(398,1097,o),
(106,844,o),
(106,485,cs),
(106,228,o),
(232,-60,o),
(535,-60,cs)
);
},
{
closed = 1;
nodes = (
(1863,331,o),
(1890,342,o),
(1921,342,c),
(1901,330,o),
(1880,318,o),
(1858,307,c)
);
}
);
width = 1888;
}
);
unicode = 339;
},
{
glyphname = p;
layers = (
{
layerId = m001;
shapes = (
{
closed = 1;
nodes = (
(691,-152,o),
(705,32,o),
(705,65,cs),
(705,72,l),
(805,8,o),
(958,-37,o),
(1117,-37,cs),
(1479,-37,o),
(1803,201,o),
(1803,560,cs),
(1803,837,o),
(1538,1044,o),
(1192,1044,cs),
(956,1044,o),
(731,986,o),
(600,824,c),
(492,1023,l),
(260,988,l),
(227,986,o),
(202,981,o),
(179,964,c),
(129,-232,l),
(129,-274,o),
(131,-316,o),
(132,-353,c),
(142,-353,ls),
(228,-353,o),
(482,-332,o),
(691,-311,c)
);
},
{
closed = 1;
nodes = (
(1113,751,o),
(1212,670,o),
(1212,523,cs),
(1212,378,o),
(1113,233,o),
(959,233,cs),
(824,233,o),
(720,277,o),
(720,450,cs),
(720,560,o),
(727,751,o),
(986,751,cs)
);
}
);
width = 1914;
}
);
unicode = 112;
},
{
glyphname = thorn;
layers = (
{
layerId = m001;
shapes = (
{
closed = 1;
nodes = (
(691,-152,o),
(705,32,o),
(705,65,cs),
(705,72,l),
(805,8,o),
(958,-37,o),
(1117,-37,cs),
(1479,-37,o),
(1803,201,o),
(1803,560,cs),
(1803,837,o),
(1538,1044,o),
(1192,1044,cs),
(1014,1044,o),
(842,1011,o),
(713,925,c),
(720,1420,ls),
(720,1447,o),
(705,1454,o),
(680,1454,cs),
(650,1454,o),
(612,1447,o),
(590,1441,cs),
(491,1412,o),
(217,1348,o),
(217,1339,c),
(195,1308,l),
(179,964,l),
(129,-232,l),
(129,-274,o),
(131,-316,o),
(132,-353,c),
(142,-353,ls),
(228,-353,o),
(482,-332,o),
(691,-311,c)
);
},
{
closed = 1;
nodes = (
(1113,751,o),
(1212,670,o),
(1212,523,cs),
(1212,378,o),
(1113,233,o),
(959,233,cs),
(824,233,o),
(720,277,o),
(720,450,cs),
(720,560,o),
(727,751,o),
(986,751,cs)
);
}
);
width = 1913;
}
);
unicode = 254;
},
{
glyphname = q;
layers = (
{
layerId = m001;
shapes = (
{
closed = 1;
nodes = (
(781,241,o),
(707,332,o),
(707,464,cs),
(707,624,o),
(812,760,o),
(951,760,cs),
(1071,760,o),
(1156,684,o),
(1189,594,cs),
(1191,587,o),
(1194,581,o),
(1194,569,cs),
(1186,448,o),
(1169,379,o),
(1136,330,c),
(1084,280,o),
(1005,241,o),
(918,241,cs)
);
},
{
closed = 1;
nodes = (
(1226,-354,o),
(1281,-349,o),
(1333,-347,c),
(1333,-347,o),
(1561,-310,o),
(1583,-307,c),
(1641,-303,o),
(1689,-300,o),
(1733,-295,c),
(1733,-177,l),
(1751,185,o),
(1760,542,o),
(1778,903,cs),
(1779,927,o),
(1783,953,o),
(1786,976,c),
(1764,979,o),
(1744,982,o),
(1723,986,cs),
(1668,995,l),
(1581,908,l),
(1316,1008,o),
(1087,1049,o),
(894,1049,cs),
(377,1049,o),
(119,751,o),
(119,481,cs),
(119,147,o),
(412,-37,o),
(752,-37,cs),
(911,-37,o),
(1068,10,o),
(1175,74,c),
(1171,1,o),
(1165,-137,o),
(1165,-238,cs),
(1165,-292,o),
(1167,-335,o),
(1171,-354,c)
);
}
);
width = 1913;
}
);
unicode = 113;
},
{
glyphname = r;
kernLeft = r;
kernRight = r;
layers = (
{
anchors = (
{
name = bottom;
pos = (620,0);
},
{
name = top;
pos = (620,1026);
}
);
layerId = m001;
shapes = (
{
closed = 1;
nodes = (
(682,12,l),
(724,649,ls),
(725,649,o),
(785,718,o),
(918,718,cs),
(974,718,o),
(1043,706,o),
(1125,672,c),
(1230,962,l),
(1195,1008,o),
(1065,1062,o),
(955,1062,cs),
(849,1062,o),
(715,999,o),
(574,817,c),
(458,1018,l),
(181,959,l),
(144,62,l),
(144,37,o),
(147,12,o),
(150,-11,c),
(249,-9,l)
);
}
);
width = 1263;
}
);
unicode = 114;
},
{
glyphname = s;
kernLeft = s;
kernRight = s;
layers = (
{
anchors = (
{
name = bottom;
pos = (783,0);
},
{
name = top;
pos = (783,1026);
}
);
layerId = m001;
shapes = (
{
closed = 1;
nodes = (
(1316,-39,o),
(1447,102,o),
(1447,313,cs),
(1447,615,o),
(1085,638,o),
(785,675,cs),
(713,684,o),
(671,691,o),
(671,723,cs),
(671,748,o),
(723,757,o),
(797,757,cs),
(973,757,o),
(1233,726,o),
(1315,706,c),
(1363,986,l),
(1220,1022,o),
(1056,1049,o),
(856,1049,cs),
(662,1049,o),
(125,1019,o),
(125,701,cs),
(125,428,o),
(482,419,o),
(790,360,c),
(872,343,o),
(913,336,o),
(913,298,cs),
(913,281,o),
(850,266,o),
(736,266,cs),
(611,266,o),
(426,283,o),
(192,332,c),
(126,55,l),
(258,-18,o),
(570,-39,o),
(748,-39,cs)
);
}
);
width = 1565;
}
);
unicode = 115;
},
{
glyphname = germandbls;
layers = (
{
layerId = m001;
shapes = (
{
closed = 1;
nodes = (
(1509,-92,o),
(2008,112,o),
(2008,464,cs),
(2008,618,o),
(1858,766,o),
(1613,803,c),
(1835,868,o),
(1892,1006,o),
(1892,1107,cs),
(1892,1348,o),
(1587,1475,o),
(1136,1464,cs),
(279,1444,o),
(207,1111,o),
(146,337,cs),
(121,22,l),
(167,14,l),
(717,-26,l),
(745,257,l),
(824,958,ls),
(841,1106,o),
(1026,1139,o),
(1105,1139,cs),
(1206,1139,o),
(1268,1089,o),
(1268,1027,cs),
(1268,948,o),
(1165,848,o),
(913,810,c),
(913,621,l),
(1107,607,o),
(1225,518,o),
(1225,423,cs),
(1225,331,o),
(1115,232,o),
(859,189,c),
(942,-112,l)
);
}
);
width = 2121;
}
);
unicode = 223;
},
{
glyphname = t;
kernLeft = t;
kernRight = t;
layers = (
{
anchors = (
{
name = bottom;
pos = (768,0);
},
{
name = center;
pos = (768,513);
}
);
layerId = m001;
shapes = (
{
closed = 1;
nodes = (
(1399,65,o),
(1400,87,o),
(1402,111,c),
(1392,224,o),
(1404,294,o),
(1399,343,c),
(1330,324,o),
(1203,289,o),
(1104,284,c),
(1103,284,l),
(993,285,o),
(902,315,o),
(915,468,c),
(925,554,o),
(938,651,o),
(955,748,c),
(1203,747,ls),
(1223,747,o),
(1241,746,o),
(1260,746,cs),
(1302,746,o),
(1340,748,o),
(1368,757,c),
(1421,970,l),
(1394,978,o),
(1365,981,o),
(1333,981,cs),
(984,982,l),
(1002,1117,o),
(1022,1247,o),
(1031,1345,cs),
(1033,1372,o),
(1033,1397,o),
(1032,1422,c),
(879,1423,o),
(567,1403,o),
(406,1388,c),
(394,1290,o),
(388,1169,o),
(363,984,c),
(151,985,l),
(89,756,l),
(113,749,o),
(152,747,o),
(207,747,cs),
(339,747,l),
(324,650,o),
(314,549,o),
(298,442,c),
(298,430,l),
(271,116,o),
(533,-34,o),
(900,-36,cs),
(1028,-36,o),
(1257,-11,o),
(1397,44,c)
);
}
);
width = 1535;
}
);
unicode = 116;
},
{
glyphname = u;
kernLeft = u;
kernRight = u;
layers = (
{
anchors = (
{
name = ogonek;
pos = (1726,10);
},
{
name = top;
pos = (959,1026);
}
);
layerId = m001;
shapes = (
{
closed = 1;
nodes = (
(1173.33,33.291,o),
(952.794,-38,o),
(745.512,-38,cs),
(443.13,-38,o),
(118.3,68.631,o),
(118.3,407,cs),
(118.3,690.155,o),
(136.027,806.411,o),
(141.206,986.611,c),
(223.041,1000.53,o),
(452.331,1031,o),
(597.901,1031,cs),
(654.47,1031,o),
(701.374,1027.33,o),
(744.009,1023.38,c),
(735.023,850.247,o),
(719.735,517.831,o),
(719.735,507,cs),
(719.735,361.22,o),
(778.609,245,o),
(922.223,245,cs),
(1069.72,245,o),
(1118.97,346.49,o),
(1153.38,429.412,c),
(1208.9,551.159,o),
(1182.33,868.648,o),
(1200.33,997.235,c),
(1342.23,1007.05,o),
(1487.18,1015.02,o),
(1769.2,1030.78,c),
(1770.08,992.403,o),
(1770.1,955.651,o),
(1770.1,918,c),
(1721.41,29.939,l),
(1647.45,16.947,o),
(1568.57,5.25,o),
(1405.97,-16.728,c),
(1383.04,12.791,o),
(1319.73,118.351,o),
(1310.41,190.371,c)
);
}
);
width = 1918;
}
);
unicode = 117;
},
{
glyphname = v;
layers = (
{
layerId = m001;
shapes = (
{
closed = 1;
nodes = (
(493,-9,l),
(568.234,-11,l),
(661.27,-11,o),
(1011,9,o),
(1121,20,c),
(1174.14,118.65,l),
(1558.88,863.836,l),
(1637,1009,l),
(1560,1012,o),
(1323.58,1018,o),
(1232.15,1018,cs),
(1185.92,1018,o),
(1140.51,1017.95,o),
(1095.96,1016.11,c),
(1036.26,893.442,o),
(877,472,o),
(851.373,404.114,c),
(800.636,579.035,o),
(747.632,753.524,o),
(695.964,927.904,c),
(670,1018,l),
(603,1020,o),
(406.599,1001,o),
(93.6,975.506,c),
(172,802,o),
(365.172,320.256,o),
(452.235,90.223,c)
);
}
);
width = 1672;
}
);
unicode = 118;
},
{
glyphname = w;
layers = (
{
anchors = (
{
name = top;
pos = (1178,1026);
}
);
layerId = m001;
shapes = (
{
closed = 1;
nodes = (
(2036.81,417.289,o),
(2153,729,o),
(2272,1004,c),
(1890.31,1022,l),
(1844.8,1022,o),
(1797.77,1017.06,o),
(1752.6,1012.35,c),
(1746.37,982.072,o),
(1739.38,951.356,o),
(1732.34,923.117,cs),
(1603.49,394.396,l),
(1483.94,923.312,l),
(1466.42,1012.2,l),
(1400.19,1016.13,o),
(1334.55,1017.98,o),
(1263.91,1018,cs),
(942,1015,l),
(912.089,892,l),
(779.003,388.311,l),
(684.483,921.528,ls),
(678.396,952.178,o),
(673.615,983.545,o),
(669.496,1012.47,c),
(632.204,1017.19,o),
(596.751,1017.98,o),
(556.685,1018,c),
(457.3,1004.04,l),
(341.39,993.168,o),
(257.589,987.14,o),
(116.1,975.455,c),
(238.015,634.703,o),
(340.78,288.678,o),
(432.858,-5.35,c),
(466.714,-9.138,o),
(504.877,-11,o),
(543.571,-11,c),
(707.833,2.886,o),
(937.013,16.829,o),
(1063.89,32.565,c),
(1069.84,65.866,o),
(1079.01,97.616,o),
(1086.97,128.921,cs),
(1169.05,458.288,l),
(1205.2,279.418,o),
(1234.98,132.269,o),
(1261.6,-12.381,c),
(1297.45,-16.27,o),
(1331.39,-18,o),
(1371.04,-18,c),
(1531.88,-4.103,o),
(1765.6,9.944,o),
(1888.22,27.565,c),
(1901.99,66.192,o),
(1915.67,102.203,o),
(1931.8,138.104,c)
);
}
);
width = 2355;
}
);
unicode = 119;
},
{
glyphname = x;
layers = (
{
layerId = m001;
shapes = (
{
closed = 1;
nodes = (
(1361,-14,o),
(1613,12,o),
(1784,19,c),
(1705,98,l),
(1250,552,l),
(1403,696,o),
(1565,874,o),
(1746,1008,c),
(1286,1018,ls),
(1252,1018,o),
(1215,1018,o),
(1182,1017,c),
(1115,966,l),
(990,827,l),
(952,884,o),
(910,940,o),
(870,995,c),
(805,1044,l),
(97,978,l),
(287,818,o),
(454,646,o),
(619,478,c),
(200,104,l),
(158,70,o),
(120,43,o),
(86,18,c),
(574,-21,l),
(611,-21,o),
(648,-21,o),
(685,-19,c),
(765,37,l),
(781,46,o),
(843,121,o),
(899,184,c),
(964,94,o),
(1044,0,o),
(1070,-19,c),
(1114,-22,o),
(1153,-23,o),
(1194,-24,c)
);
}
);
width = 1869;
}
);
unicode = 120;
},
{
glyphname = y;
kernLeft = y;
kernRight = y;
layers = (
{
anchors = (
{
name = top;
pos = (868,1026);
}
);
layerId = m001;
shapes = (
{
closed = 1;
nodes = (
(638,-291,o),
(308,-384,o),
(249,-384,c),
(422,-664,l),
(920,-664,o),
(1105,-358,o),
(1238,-59,c),
(1648,882,l),
(1701,1010,l),
(1270,1026,l),
(1239,1026,o),
(1211,1026,o),
(1183,1024,c),
(1134,903,o),
(1010,498,o),
(964,374,c),
(683,1025,l),
(99,1000,l),
(156,905,o),
(456,281,o),
(609,7,cs),
(693,-144,l)
);
}
);
width = 1735;
}
);
unicode = 121;
},
{
glyphname = z;
kernLeft = z;
kernRight = z;
layers = (
{
anchors = (
{
name = top;
pos = (721,1026);
}
);
layerId = m001;
shapes = (
{
closed = 1;
nodes = (
(1281,277,l),
(1311,303,o),
(1317,329,o),
(1317,348,cs),
(1317,360,o),
(1315,370,o),
(1315,374,cs),
(1315,379,o),
(1313,380,o),
(1308,380,cs),
(1181,380,o),
(1060,372,o),
(926,372,cs),
(925,372,o),
(923,373,o),
(923,374,cs),
(923,375,o),
(927,377,o),
(943,380,c),
(1241,895,l),
(1261,935,o),
(1344,1006,o),
(1344,1050,cs),
(1344,1053,o),
(1343,1056,o),
(1343,1059,c),
(1281,1059,ls),
(966,1059,o),
(632,1074,o),
(314,1074,cs),
(281,1074,o),
(245,1065,o),
(245,1019,c),
(131,762,l),
(117,751,o),
(110,740,o),
(110,736,cs),
(110,735,o),
(110,735,o),
(111,735,cs),
(216,735,o),
(427,746,o),
(574,746,c),
(157,28,l),
(184,6,o),
(260,0,o),
(314,0,cs),
(1180,0,l)
);
}
);
width = 1442;
}
);
unicode = 122;
},
{
glyphname = ordfeminine;
layers = (
{
layerId = m001;
shapes = (
{
closed = 1;
nodes = (
(704,570,o),
(805,654,o),
(854,756,c),
(894,596,l),
(1137,619,l),
(1139,1448,l),
(847,1478,l),
(845,1305,l),
(769,1427,o),
(678,1461,o),
(534,1461,cs),
(323,1461,o),
(135,1298,o),
(135,987,cs),
(135,693,o),
(350,570,o),
(544,570,cs)
);
},
{
closed = 1;
nodes = (
(581,815,o),
(514,866,o),
(514,987,cs),
(514,1096,o),
(565,1189,o),
(658,1189,cs),
(749,1189,o),
(800,1110,o),
(800,1007,cs),
(800,884,o),
(749,818,o),
(654,815,c)
);
}
);
width = 1304;
}
);
unicode = 170;
},
{
glyphname = ordmasculine;
layers = (
{
layerId = m001;
shapes = (
{
closed = 1;
nodes = (
(696,1245,o),
(782,1170,o),
(782,1031,cs),
(782,861,o),
(693,784,o),
(605,784,cs),
(517,784,o),
(430,860,o),
(430,994,cs),
(430,1166,o),
(520,1245,o),
(609,1245,cs)
);
},
{
closed = 1;
nodes = (
(1070,1258,o),
(942,1481,o),
(627,1481,cs),
(278,1481,o),
(130,1241,o),
(130,976,cs),
(130,753,o),
(281,546,o),
(575,546,cs),
(847,546,o),
(1070,726,o),
(1070,1038,cs)
);
}
);
width = 1029;
}
);
unicode = 186;
},
{
glyphname = "Be-cy";
lastChange = "2023-06-29 06:57:00 +0000";
layers = (
{
layerId = m001;
shapes = (
{
closed = 1;
nodes = (
(1964,-52,o),
(2089,202,o),
(2089,538,cs),
(2089,724,o),
(1959,945,o),
(998,905,c),
(1012,1051,l),
(1850,1051,l),
(1881,1151,o),
(1911,1360,o),
(1921,1446,c),
(1871,1447,o),
(1812,1449,o),
(1755,1449,cs),
(1287,1446,o),
(694,1432,o),
(306,1420,c),
(235,703,o),
(205,398,o),
(184,111,cs),
(184,107,o),
(171,-46,o),
(171,-50,c),
(1060,-52,l)
);
},
{
closed = 1;
nodes = (
(1203,258,o),
(931,258,c),
(939,344,o),
(951,438,o),
(964,584,c),
(1296,603,o),
(1406,580,o),
(1424,468,cs),
(1425,462,o),
(1426,455,o),
(1426,449,cs),
(1426,310,o)
);
}
);
width = 2365;
}
);
unicode = 1041;
},
{
glyphname = "Ve-cy";
lastChange = "2023-06-29 06:57:00 +0000";
layers = (
{
layerId = m001;
shapes = (
{
closed = 1;
nodes = (
(939,384,o),
(951,468,o),
(964,614,c),
(1356,614,o),
(1531,580,o),
(1549,468,cs),
(1550,462,o),
(1551,455,o),
(1551,449,cs),
(1551,310,o),
(1203,298,o),
(931,298,c)
);
},
{
closed = 1;
nodes = (
(1026,1148,l),
(1106,1148,l),
(1286,1148,o),
(1508,1124,o),
(1508,1007,cs),
(1508,997,o),
(1506,987,o),
(1503,977,cs),
(1481,903,o),
(1403,845,o),
(1113,845,c),
(988,845,l)
);
},
{
closed = 1;
nodes = (
(1966,-4,o),
(2214,202,o),
(2214,538,cs),
(2214,680,o),
(2060,775,o),
(1862,807,c),
(2027,847,o),
(2174,978,o),
(2174,1093,cs),
(2174,1346,o),
(1827,1468,o),
(1266,1468,c),
(305,1464,l),
(263,1009,l),
(264,1009,l),
(178,1,l),
(1062,-4,l)
);
}
);
width = 2365;
}
);
unicode = 1042;
},
{
glyphname = "Ge-cy";
kernLeft = afii10020;
kernRight = afii10020;
lastChange = "2023-06-29 06:57:00 +0000";
layers = (
{
anchors = (
{
name = top;
pos = (1211,1465);
}
);
layerId = m001;
shapes = (
{
closed = 1;
nodes = (
(1514,942,l),
(980,942,l),
(926,2,l),
(376,-17,ls),
(356,-17,ls),
(226,-17,l),
(226,103,o),
(234,261,o),
(239,402,cs),
(239,417,o),
(241,441,o),
(241,456,c),
(256,966,l),
(272,1444,l),
(968.804,1453.32,l),
(1577,1451,l)
);
}
);
width = 2421;
}
);
unicode = 1043;
},
{
glyphname = "Gje-cy";
kernLeft = afii10020;
kernRight = afii10020;
lastChange = "2023-06-29 06:57:00 +0000";
layers = (
{
layerId = m001;
shapes = (
{
closed = 1;
nodes = (
(2238,1434,o),
(2201,792,o),
(2201,717,cs),
(2201,677,o),
(2197,698,o),
(2180,2,c),
(1745,-34,ls),
(1659,-41,o),
(1537,-51,o),
(1462,-51,c),
(1462,101,ls),
(1462,216,o),
(1505,827,o),
(1514,942,c),
(980,942,l),
(916,2,l),
(376,-23.016,ls),
(356.43,-23.016,ls),
(226,-17,l),
(226,103,o),
(230,261,o),
(235,402,cs),
(235,417,o),
(237,441,o),
(237,456,cs),
(256,966,l),
(262,1074,o),
(269,1184,o),
(286,1350,c),
(290,1410,l),
(302,1424,l),
(377.214,1436.07,o),
(855.959,1453.32,o),
(968.804,1453.32,cs),
(1552.46,1453.32,o),
(1801.07,1454.26,o),
(2237,1454,c)
);
}
);
width = 2421;
}
);
unicode = 1027;
},
{
glyphname = "De-cy";
lastChange = "2023-06-29 06:57:00 +0000";
layers = (
{
layerId = m001;
shapes = (
{
closed = 1;
nodes = (
(1801,415,o),
(1262,414,o),
(679,414,cs),
(566,414,o),
(87,397,o),
(12,385,c),
(0,371,l),
(-4,311,l),
(-64,-476,l),
(626,-457,l),
(690,-7,l),
(1514,-7,l),
(1502,-450,l),
(2210,-457,l),
(2237,415,l)
);
},
{
closed = 1;
nodes = (
(579,1447,l),
(567,1433,l),
(556,1350,l),
(286,-17,l),
(946,72,l),
(1130,1062,l),
(1494,1062,l),
(1485,947,o),
(1432,216,o),
(1432,101,c),
(2080,2,l),
(2097,698,o),
(2101,677,o),
(2101,717,cs),
(2101,792,o),
(2138,1434,o),
(2137,1454,c),
(1209,1454,l)
);
}
);
width = 2342;
}
);
unicode = 1044;
},
{
glyphname = "Zhe-cy";
lastChange = "2023-06-29 06:57:00 +0000";
layers = (
{
layerId = m001;
shapes = (
{
closed = 1;
nodes = (
(2103,2,l),
(2437,194,l),
(2290,340,o),
(1957,664,o),
(1871,742,c),
(1949,815,o),
(2068,945,o),
(2455,1348,c),
(1881,1473,l),
(1517,1072,l),
(1524,1313,l),
(1530,1454,l),
(1349,1431,o),
(1109,1403,o),
(1025,1393,c),
(1025,1291,o),
(1023,1171,o),
(1020,1100,c),
(652,1492,l),
(652,1492,o),
(645,1490,o),
(634,1489,c),
(228,1413,o),
(64,1342,o),
(26,1332,c),
(614,740,l),
(359,476,o),
(261,368,o),
(206,309,cs),
(63,151,l),
(562,-60,l),
(993,419,l),
(983,-19,l),
(1485,-4,l),
(1483,225,l),
(1489,404,l),
(1938,-61,l)
);
}
);
width = 2260;
}
);
unicode = 1046;
},
{
glyphname = "Ze-cy";
lastChange = "2023-06-29 06:57:00 +0000";
layers = (
{
anchors = (
{
name = bottom;
pos = (819,0);
},
{
name = top;
pos = (819,1465);
}
);
layerId = m001;
shapes = (
{
closed = 1;
nodes = (
(1553,195,o),
(1553,447,cs),
(1553,648,o),
(1429,757,o),
(1264,782,c),
(1396,798,o),
(1524,888,o),
(1524,1094,cs),
(1524,1380,o),
(1234.88,1482,o),
(729,1482,cs),
(571,1482,o),
(404,1470,o),
(241,1452,c),
(241,1151,l),
(316,1154,o),
(395,1159,o),
(466,1159,cs),
(607,1159,o),
(721,1138,o),
(721,1035,cs),
(721,968,o),
(690,902,o),
(553,902,cs),
(391,902,l),
(380,614,l),
(600,614,ls),
(703,614,o),
(738,552,o),
(738,489,cs),
(738,397,o),
(640,372,o),
(495,372,cs),
(423,372,o),
(341,378,o),
(253,385,c),
(251,14,l),
(372,-20,o),
(595,-38,o),
(815,-38,cs),
(1391.47,-38,o)
);
}
);
width = 1637;
}
);
unicode = 1047;
},
{
glyphname = "Ii-cy";
kernLeft = afii10026;
kernRight = afii10026;
lastChange = "2023-06-29 06:57:00 +0000";
layers = (
{
anchors = (
{
name = top;
pos = (1184,1465);
}
);
layerId = m001;
shapes = (
{
closed = 1;
nodes = (
(187,1358.33,o),
(187.444,1248.33,o),
(187.444,1166.19,cs),
(187.444,1125.11,o),
(187.333,1091,o),
(187,1077,cs),
(176,762,o),
(165,427,o),
(154,137,c),
(154,75,o),
(161,21,o),
(169,-29,c),
(375,-29,o),
(622,22,o),
(773,32,c),
(772.795,34.257,o),
(772.632,36.473,o),
(772.632,43.494,cs),
(772.632,70.687,o),
(775.078,169.971,o),
(787,623,c),
(1532,-45,l),
(2058,50,o),
(2140,47,o),
(2229,62,c),
(2218,113,o),
(2217,169,o),
(2217,228,cs),
(2217,229,l),
(2220,455,ls),
(2222,616,o),
(2224,808,o),
(2224,958,cs),
(2224,1058,o),
(2226,1201,o),
(2233,1278,c),
(2233,1342,o),
(2228,1397,o),
(2222,1447,c),
(2172,1447,o),
(2120,1446,o),
(2071,1445,c),
(1636,1420,l),
(1624,1380,o),
(1623,1334,o),
(1620,1279,c),
(1620,839,l),
(1468,1016,o),
(1098,1433,o),
(1066,1470,c),
(187,1391,l)
);
}
);
width = 2368;
}
);
unicode = 1048;
},
{
glyphname = "Iishort-cy";
kernLeft = afii10026;
kernRight = afii10026;
lastChange = "2023-06-29 06:57:00 +0000";
layers = (
{
layerId = m001;
shapes = (
{
closed = 1;
nodes = (
(2199,66,o),
(2199,176,o),
(2199,258,cs),
(2199,299,o),
(2199,333,o),
(2199,347,cs),
(2210,662,o),
(2221,997,o),
(2232,1287,c),
(2232,1349,o),
(2225,1403,o),
(2217,1453,c),
(2011,1453,o),
(1764,1402,o),
(1613,1392,c),
(1613,1390,o),
(1613,1388,o),
(1613,1381,cs),
(1613,1353,o),
(1611,1254,o),
(1599,801,c),
(854,1469,l),
(328,1374,o),
(246,1377,o),
(157,1362,c),
(168,1311,o),
(169,1255,o),
(169,1196,cs),
(169,1195,l),
(166,969,ls),
(164,808,o),
(162,616,o),
(162,466,cs),
(162,366,o),
(160,223,o),
(153,146,c),
(153,82,o),
(158,27,o),
(164,-23,c),
(214,-23,o),
(266,-22,o),
(315,-21,c),
(750,4,l),
(762,44,o),
(763,90,o),
(766,145,c),
(766,585,l),
(918,408,o),
(1288,-9,o),
(1320,-46,c),
(2199,33,l)
);
}
);
width = 2368;
}
);
unicode = 1049;
},
{
glyphname = "El-cy";
lastChange = "2023-06-29 06:57:00 +0000";
layers = (
{
layerId = m001;
shapes = (
{
closed = 1;
nodes = (
(721,2,o),
(858,266,cs),
(915,374,o),
(925,671,o),
(936,942,c),
(1514,942,l),
(1505,827,o),
(1462,216,o),
(1462,101,cs),
(1462,-51,l),
(1537,-51,o),
(1659,-41,o),
(1745,-34,cs),
(2180,2,l),
(2197,698,o),
(2201,677,o),
(2201,717,cs),
(2201,792,o),
(2238,1434,o),
(2237,1454,c),
(1801,1454,o),
(1552,1453,o),
(969,1453,cs),
(856,1453,o),
(377,1436,o),
(302,1424,c),
(290,1410,l),
(286,1350,l),
(269,1184,o),
(262,1074,o),
(256,966,c),
(244,633,l),
(243,633,l),
(243,632,l),
(235,381,o),
(151,253,o),
(-38,217,c),
(59,-2,o),
(114,-134,o),
(126,-154,c),
(485,-121,o)
);
}
);
width = 2421;
}
);
unicode = 1051;
},
{
glyphname = "Pe-cy";
lastChange = "2023-06-29 06:57:00 +0000";
layers = (
{
layerId = m001;
shapes = (
{
closed = 1;
nodes = (
(2238,1434,o),
(2201,792,o),
(2201,717,cs),
(2201,677,o),
(2197,698,o),
(2180,2,c),
(1745,-34,ls),
(1659,-41,o),
(1537,-51,o),
(1462,-51,c),
(1462,101,ls),
(1462,216,o),
(1505,827,o),
(1514,942,c),
(980,942,l),
(916,2,l),
(376,-23.016,ls),
(356.43,-23.016,ls),
(226,-17,l),
(226,103,o),
(230,261,o),
(235,402,cs),
(235,417,o),
(237,441,o),
(237,456,cs),
(256,966,l),
(262,1074,o),
(269,1184,o),
(286,1350,c),
(290,1410,l),
(302,1424,l),
(377.214,1436.07,o),
(855.959,1453.32,o),
(968.804,1453.32,cs),
(1552.46,1453.32,o),
(1801.07,1454.26,o),
(2237,1454,c)
);
}
);
width = 2421;
}
);
unicode = 1055;
},
{
glyphname = "U-cy";
kernLeft = afii10037;
kernRight = afii10037;
lastChange = "2023-06-29 06:57:00 +0000";
layers = (
{
anchors = (
{
name = top;
pos = (962,1465);
}
);
layerId = m001;
shapes = (
{
closed = 1;
nodes = (
(927,3,l),
(1089,6,l),
(1448,572,l),
(1997,1428,ls),
(1972,1468,l),
(1298,1446,l),
(1278,1410,l),
(1049,1027,l),
(766,1458,ls),
(758,1467,l),
(579,1464,l),
(41,1461,ls),
(37,1415,l),
(677,542,l),
(332,0,l)
);
}
);
width = 1987;
}
);
unicode = 1059;
},
{
glyphname = "Ef-cy";
lastChange = "2023-06-29 06:57:00 +0000";
layers = (
{
layerId = m001;
shapes = (
{
closed = 1;
nodes = (
(1066,361,o),
(927,454,o),
(927,705,c),
(929,944,o),
(1069,1066,o),
(1294,1066,cs),
(1503,1066,o),
(1646,989,o),
(1646,742,cs),
(1646,484,o),
(1514,368,o),
(1283,361,c)
);
},
{
closed = 1;
nodes = (
(1757,-45,o),
(2439,113,o),
(2439,753,cs),
(2439,1340,o),
(1808,1481,o),
(1278,1481,cs),
(977,1481,o),
(126,1344,o),
(126,689,cs),
(126,106,o),
(747,-45,o),
(1235,-45,cs)
);
},
{
closed = 1;
nodes = (
(1426,-213,l),
(1425,-17,l),
(1445,1449,l),
(1448,1624,l),
(1167,1622,l),
(1167,1358,o),
(1164,1140,o),
(1159,943,c),
(1146,-211,l)
);
}
);
width = 2565;
}
);
unicode = 1060;
},
{
glyphname = "Che-cy";
lastChange = "2023-06-29 06:57:00 +0000";
layers = (
{
layerId = m001;
shapes = (
{
closed = 1;
nodes = (
(1416,417,l),
(1369,417,o),
(998,411,o),
(870,411,cs),
(444,411,o),
(229,512,o),
(229,919,cs),
(229,1433,l),
(938,1433,l),
(943,1006,ls),
(944,905,o),
(956,880,o),
(1094,883,cs),
(1404,889,l),
(1393,1430,l),
(2091,1423,l),
(2097,1169,o),
(2111,470,o),
(2119,270,c),
(2122,98,ls),
(2123,64,o),
(2124,28,o),
(2127,-9,c),
(2116,-12,o),
(2090,-13,o),
(2054,-13,cs),
(1894,-13,o),
(1536,12,o),
(1437,19,c)
);
}
);
width = 2260;
}
);
unicode = 1063;
},
{
glyphname = "Tse-cy";
lastChange = "2023-06-29 06:57:00 +0000";
layers = (
{
layerId = m001;
shapes = (
{
closed = 1;
nodes = (
(286,18,o),
(323,660,o),
(323,735,cs),
(323,775,o),
(327,754,o),
(344,1450,c),
(865,1457,o),
(996,1454,o),
(1071,1454,c),
(1062,1351,ls),
(1052,1236,o),
(1019,625,o),
(1010,510,c),
(1484,510,l),
(1548,1450,l),
(2238,1469,l),
(2238,1349,o),
(2234,1191,o),
(2229,1050,cs),
(2229,1035,o),
(2227,1011,o),
(2227,996,cs),
(2208,486,l),
(2202,378,o),
(2195,268,o),
(2178,102,c),
(2174,42,l),
(2162,28,l),
(2087,16,o),
(1608,-1,o),
(1495,-1,cs),
(912,-1,o),
(723,-2,o),
(287,-2,c)
);
},
{
closed = 1;
nodes = (
(2325,483,o),
(2357,482,o),
(2389,480,c),
(2351,-319,l),
(2351,-327,ls),
(2351,-344,o),
(2351,-361,o),
(2353,-379,c),
(2258,-391,o),
(2008,-391,o),
(1866,-403,c),
(1865,-403,ls),
(1832,-403,o),
(1799,-403,o),
(1767,-395,c),
(1767,-351,o),
(1774,-219,o),
(1784,-41,cs),
(1789,107,o),
(1800,353,o),
(1815,453,c),
(1968,461,o),
(2130,468,o),
(2289,483,c),
(2293,483,ls)
);
}
);
width = 2421;
}
);
unicode = 1062;
},
{
glyphname = "Sha-cy";
lastChange = "2023-06-29 06:57:00 +0000";
layers = (
{
layerId = m001;
shapes = (
{
closed = 1;
nodes = (
(2489,-1,ls),
(2602,-1,o),
(3041,16,o),
(3116,28,c),
(3128,42,l),
(3132,102,l),
(3149,268,o),
(3156,378,o),
(3162,486,c),
(3181,996,ls),
(3181,1011,o),
(3183,1035,o),
(3183,1050,cs),
(3188,1191,o),
(3192,1349,o),
(3192,1469,c),
(2542,1450,l),
(2478,510,l),
(2079,510,l),
(2138,1469,l),
(1518,1450,l),
(1454,510,l),
(1044,510,l),
(1053,625,o),
(1086,1236,o),
(1096,1351,cs),
(1105,1454,l),
(1030,1454,o),
(929,1457,o),
(408,1450,c),
(391,754,o),
(387,775,o),
(387,735,cs),
(387,660,o),
(350,18,o),
(351,-2,c),
(774,-2,o),
(876,0,o),
(1415,0,c),
(1415,-1,l)
);
}
);
width = 3373;
}
);
unicode = 1064;
},
{
glyphname = "Shcha-cy";
lastChange = "2023-06-29 06:57:00 +0000";
layers = (
{
layerId = m001;
shapes = (
{
closed = 1;
nodes = (
(2489,-1,ls),
(2602,-1,o),
(3041,16,o),
(3116,28,c),
(3128,42,l),
(3132,102,l),
(3149,268,o),
(3156,378,o),
(3162,486,c),
(3181,996,ls),
(3181,1011,o),
(3183,1035,o),
(3183,1050,cs),
(3188,1191,o),
(3192,1349,o),
(3192,1469,c),
(2542,1450,l),
(2478,510,l),
(2079,510,l),
(2138,1469,l),
(1518,1450,l),
(1454,510,l),
(1044,510,l),
(1053,625,o),
(1086,1236,o),
(1096,1351,cs),
(1105,1454,l),
(1030,1454,o),
(929,1457,o),
(408,1450,c),
(391,754,o),
(387,775,o),
(387,735,cs),
(387,660,o),
(350,18,o),
(351,-2,c),
(774,-2,o),
(876,0,o),
(1415,0,c),
(1415,-1,l)
);
},
{
closed = 1;
nodes = (
(3333,483,l),
(3174,468,o),
(3012,461,o),
(2859,453,c),
(2844,353,o),
(2833,107,o),
(2828,-41,cs),
(2818,-219,o),
(2811,-351,o),
(2811,-395,c),
(2843,-403,o),
(2876,-403,o),
(2909,-403,cs),
(2910,-403,l),
(3052,-391,o),
(3302,-391,o),
(3397,-379,c),
(3395,-361,o),
(3395,-344,o),
(3395,-327,cs),
(3395,-319,l),
(3433,480,l),
(3401,482,o),
(3369,483,o),
(3337,483,cs)
);
}
);
width = 3530;
}
);
unicode = 1065;
},
{
glyphname = "Dzhe-cy";
lastChange = "2023-06-29 06:57:00 +0000";
layers = (
{
layerId = m001;
shapes = (
{
closed = 1;
nodes = (
(1129,-408,o),
(1379,-408,o),
(1474,-401,c),
(1494,-50,l),
(1495,-50,ls),
(1608,-50,o),
(2087,-33,o),
(2162,-21,c),
(2174,-7,l),
(2220,947,l),
(2220,1047,o),
(2238,1278.82,o),
(2238,1420,c),
(2108,1426,ls),
(2088,1426,ls),
(1548,1431,l),
(1484,461,l),
(950,461,l),
(959,576,o),
(991,1187,o),
(996,1302,cs),
(1002,1434,l),
(927,1434,o),
(805,1438,o),
(719,1437,cs),
(284,1431,l),
(257,876,o),
(225,-20,o),
(227,-51,c),
(251,-51,l),
(497,-51,o),
(686,-51,o),
(913,-50,c),
(900,-246,o),
(888,-372,o),
(888,-410,c),
(920,-416,o),
(953,-416,o),
(986,-416,cs),
(987,-416,l)
);
}
);
width = 2421;
}
);
unicode = 1039;
},
{
glyphname = "Softsign-cy";
lastChange = "2023-06-29 06:57:00 +0000";
layers = (
{
layerId = m001;
shapes = (
{
closed = 1;
nodes = (
(940,447,l),
(987,447,o),
(1178,441,o),
(1306,441,cs),
(1732,441,o),
(2177,532,o),
(2177,939,cs),
(2177,1349,o),
(1754,1453,o),
(1331,1453,cs),
(987,1453,o),
(595,1421,o),
(265,1363,c),
(259,1109,o),
(245,470,o),
(237,270,c),
(234,98,ls),
(233,64,o),
(232,28,o),
(229,-9,c),
(240,-12,o),
(266,-13,o),
(302,-13,cs),
(462,-13,o),
(820,12,o),
(919,19,c)
);
},
{
closed = 1;
nodes = (
(1463,835,o),
(1372,773,o),
(1162,773,cs),
(1102,773,o),
(1032,778,o),
(952,789,c),
(952,803,o),
(953,898,o),
(966,1044,c),
(994,1058,o),
(1221,1071,o),
(1265,1071,cs),
(1359,1071,o),
(1463,1057,o),
(1463,936,cs)
);
}
);
width = 2260;
}
);
unicode = 1068;
},
{
glyphname = "Yeru-cy";
lastChange = "2023-06-29 06:57:00 +0000";
layers = (
{
layerId = m001;
shapes = (
{
closed = 1;
nodes = (
(1462,-7,o),
(2474,4,o),
(2474,4,c),
(3027,4,o),
(3266,217,o),
(3266,528,cs),
(3266,860,o),
(2968,1015,o),
(2630,1007,cs),
(2215,997,l),
(2237,1454,l),
(2126,1447.06,o),
(2111,1449,o),
(2096,1449,c),
(1509,1439,l),
(1488,943,l),
(1476,432,l),
(1467,317,o),
(1462,216,o),
(1462,101,c),
(1462,-7,l)
);
},
{
closed = 1;
nodes = (
(2390,730,ls),
(2509,730,o),
(2574,650,o),
(2574,546,cs),
(2574,414,o),
(2480,338,o),
(2352,338,cs),
(2292,338,o),
(2255,336,o),
(2189,342,c),
(2189,342,o),
(2206,730,o),
(2206,730,c)
);
}
);
width = 3315;
}
);
unicode = 1067;
},
{
glyphname = "Hardsign-cy";
lastChange = "2023-06-29 06:57:00 +0000";
layers = (
{
layerId = m001;
shapes = (
{
closed = 1;
nodes = (
(2474,4,l),
(3027,4,o),
(3266,217,o),
(3266,528,cs),
(3266,860,o),
(2968,1015,o),
(2630,1007,cs),
(2215,997,l),
(2237,1454,l),
(1168,1432,l),
(1152,1332,o),
(1131,1103,o),
(1129,1063,c),
(1493,1063,l),
(1488,943,l),
(1476,432,l),
(1467,317,o),
(1462,216,o),
(1462,101,c),
(1462,-7,l)
);
},
{
closed = 1;
nodes = (
(2255,336,o),
(2189,342,c),
(2206,730,l),
(2390,730,ls),
(2509,730,o),
(2574,650,o),
(2574,546,cs),
(2574,414,o),
(2480,338,o),
(2352,338,cs),
(2292,338,o)
);
}
);
width = 3315;
}
);
unicode = 1066;
},
{
glyphname = "Lje-cy";
lastChange = "2023-06-29 06:57:00 +0000";
layers = (
{
layerId = m001;
shapes = (
{
closed = 1;
nodes = (
(941,385,o),
(947,736,o),
(959,1026,c),
(1273,1026,l),
(1264,911,o),
(1242,216,o),
(1242,101,c),
(1242,-7,l),
(2254,4,l),
(2807,4,o),
(3046,217,o),
(3046,528,cs),
(3046,852,o),
(2762,1007,o),
(2435,1007,c),
(2410,1007,l),
(1995,997,l),
(2017,1454,l),
(307,1440,l),
(286,966,l),
(263,633,l),
(263,632,l),
(255,381,o),
(171,253,o),
(-18,217,c),
(79,-2,o),
(134,-134,o),
(146,-154,c),
(505,-121,o),
(741,2,o),
(878,266,cs)
);
},
{
closed = 1;
nodes = (
(2038,338,o),
(2009,338,o),
(1969,342,c),
(1986,730,l),
(2170,730,ls),
(2289,730,o),
(2354,650,o),
(2354,546,cs),
(2354,414,o),
(2260,338,o),
(2132,338,cs),
(2068,338,ls)
);
}
);
width = 3170;
}
);
unicode = 1033;
},
{
glyphname = "Nje-cy";
lastChange = "2023-06-29 06:57:00 +0000";
layers = (
{
layerId = m001;
shapes = (
{
closed = 1;
nodes = (
(1462,-7,o),
(2474,4,o),
(2474,4,c),
(3027,4,o),
(3266,217,o),
(3266,528,cs),
(3266,860,o),
(2968,1015,o),
(2630,1007,cs),
(2215,997,l),
(2237,1454,l),
(2141,1448,l),
(2126,1449,o),
(2111,1449,o),
(2096,1449,cs),
(2079,1449,o),
(2026,1444,o),
(1962,1437,c),
(1661,1419,l),
(1619,1418,o),
(1554,1415,o),
(1509,1409,c),
(1488,943,l),
(950,943,l),
(988,1453,l),
(969,1453,ls),
(856,1453,o),
(377,1436,o),
(302,1424,c),
(290,1410,l),
(286,1350,l),
(269,1184,o),
(262,1074,o),
(256,966,c),
(237,441,o),
(226,103,o),
(226,-17,c),
(356,-23,ls),
(916,2,l),
(942,432,l),
(1476,432,l),
(1467,317,o),
(1462,216,o),
(1462,101,c),
(1462,-7,l)
);
},
{
closed = 1;
nodes = (
(2390,730,ls),
(2509,730,o),
(2574,650,o),
(2574,546,cs),
(2574,414,o),
(2480,338,o),
(2352,338,cs),
(2292,338,o),
(2255,336,o),
(2189,342,c),
(2189,342,o),
(2206,730,o),
(2206,730,c)
);
}
);
width = 3315;
}
);
unicode = 1034;
},
{
glyphname = "E-cy";
lastChange = "2023-06-29 06:57:00 +0000";
layers = (
{
layerId = m001;
shapes = (
{
closed = 1;
nodes = (
(133,125,o),
(698,-45,o),
(1236,-45,cs),
(1321,-45,o),
(1428,-42,o),
(1536,-30,c),
(1536,409,l),
(1442,391,o),
(1327,374,o),
(1262,374,c),
(1055,379,o),
(903,461,o),
(903,710,cs),
(903,933,o),
(1059,1015,o),
(1268,1015,cs),
(1366,1015,o),
(1456,1008,o),
(1536,997,c),
(1536,1453,l),
(1474,1460,o),
(1409,1463,o),
(1343,1463,cs),
(1291,1463,o),
(1238,1461,o),
(1185,1457,cs),
(665,1415,o),
(133,1246,o),
(133,702,cs)
);
}
);
width = 1700;
}
);
unicode = 1028;
},
{
glyphname = "Ereversed-cy";
lastChange = "2023-06-29 06:57:00 +0000";
layers = (
{
layerId = m001;
shapes = (
{
closed = 1;
nodes = (
(259,-45,o),
(325,-45,cs),
(377,-45,o),
(430,-43,o),
(483,-39,cs),
(1003,3,o),
(1535,172,o),
(1535,716,cs),
(1535,1293,o),
(970,1463,o),
(432,1463,cs),
(347,1463,o),
(240,1460,o),
(132,1448,c),
(132,1009,l),
(226,1027,o),
(341,1044,o),
(406,1044,c),
(562,1040,o),
(687,993,o),
(739,863,c),
(269,858,l),
(261,591,l),
(746,589,l),
(699,455,o),
(566,403,o),
(400,403,cs),
(302,403,o),
(212,410,o),
(132,421,c),
(132,-35,l),
(194,-42,o)
);
}
);
width = 1661;
}
);
unicode = 1069;
},
{
glyphname = "Tshe-cy";
lastChange = "2023-06-29 06:57:00 +0000";
layers = (
{
layerId = m001;
shapes = (
{
closed = 1;
nodes = (
(1292,44,o),
(1312,590,o),
(1323,835,c),
(1329,1051,l),
(1850,1051,l),
(1881,1151,o),
(1911,1360,o),
(1921,1446,c),
(1871,1447,o),
(1812,1449,o),
(1755,1449,cs),
(1287,1446,o),
(526,1432,o),
(138,1420,c),
(122,1320,o),
(101,1091,o),
(99,1051,c),
(377.667,1051,o),
(499,1051.44,o),
(567.889,1051.44,cs),
(602.333,1051.44,o),
(623.667,1051.33,o),
(645,1051,c),
(638,919,o),
(635,826,o),
(630,669,cs),
(618,265,l),
(610,93,o),
(609,34,o),
(609,-25,c),
(610.417,-25.07,o),
(612.108,-25.104,o),
(614.059,-25.104,cs),
(696.072,-25.104,o),
(1238.3,35.116,o),
(1293,40,c)
);
}
);
width = 1972;
}
);
unicode = 1035;
},
{
glyphname = "Yu-cy";
lastChange = "2023-06-29 06:57:00 +0000";
layers = (
{
layerId = m001;
shapes = (
{
closed = 1;
nodes = (
(1790,-45,o),
(2197,-45,cs),
(2719,-45,o),
(3301,113,o),
(3301,753,cs),
(3301,1340,o),
(2770,1481,o),
(2240,1481,cs),
(1983,1481,o),
(1397,1381,o),
(1232,943,c),
(930,943,l),
(968,1453,l),
(949,1453,ls),
(836,1453,o),
(377,1436,o),
(302,1424,c),
(290,1410,l),
(286,1350,ls),
(269,1184,o),
(262,1074,o),
(256,966,cs),
(237,456,l),
(237,441,o),
(235,417,o),
(235,402,c),
(230,261,o),
(226,103,o),
(226,-17,c),
(356,-23,l),
(376,-23,l),
(896,2,l),
(922,432,l),
(1229,432,l),
(1361,60,o)
);
},
{
closed = 1;
nodes = (
(2476,368,o),
(2245,361,c),
(2028,361,o),
(1929,454,o),
(1929,705,c),
(1931,944,o),
(2031,1066,o),
(2256,1066,cs),
(2465,1066,o),
(2568,989,o),
(2568,742,cs),
(2568,484,o)
);
}
);
width = 3427;
}
);
unicode = 1070;
},
{
glyphname = "Dje-cy";
lastChange = "2023-06-29 06:57:00 +0000";
layers = (
{
layerId = m001;
shapes = (
{
closed = 1;
nodes = (
(1292,44,o),
(1312,590,o),
(1323,835,c),
(1329,1051,l),
(1850,1051,l),
(1881,1151,o),
(1911,1360,o),
(1921,1446,c),
(1871,1447,o),
(1812,1449,o),
(1755,1449,cs),
(1287,1446,o),
(526,1432,o),
(138,1420,c),
(122,1320,o),
(101,1091,o),
(99,1051,c),
(377.667,1051,o),
(499,1051.44,o),
(567.889,1051.44,cs),
(602.333,1051.44,o),
(623.667,1051.33,o),
(645,1051,c),
(638,919,o),
(635,826,o),
(630,669,cs),
(618,265,l),
(610,93,o),
(609,34,o),
(609,-25,c),
(610.417,-25.07,o),
(612.108,-25.104,o),
(614.059,-25.104,cs),
(696.072,-25.104,o),
(1238.3,35.116,o),
(1293,40,c)
);
}
);
width = 1972;
}
);
unicode = 1026;
},
{
glyphname = "be-cy";
lastChange = "2023-06-29 06:57:00 +0000";
layers = (
{
layerId = m001;
shapes = (
{
closed = 1;
nodes = (
(665,1241,o),
(132,948,o),
(132,430,cs),
(132,291,o),
(255,-45,o),
(829,-45,cs),
(1350,-45,o),
(1609,137,o),
(1609,434,cs),
(1609,613,o),
(1441,806,o),
(1027,806,cs),
(979,806,o),
(927,804,o),
(871,798,c),
(978,890,o),
(1195,950,o),
(1271,960,c),
(1169,1326,l)
);
},
{
closed = 1;
nodes = (
(731,284,o),
(731,390,cs),
(731,493,o),
(763,614,o),
(889,614,cs),
(1000,614,o),
(1038,545,o),
(1038,424,cs),
(1038,304,o),
(1003,208,o),
(880,208,cs),
(768,208,o)
);
}
);
width = 1761;
}
);
unicode = 1073;
},
{
glyphname = "ve-cy";
lastChange = "2023-06-29 06:57:00 +0000";
layers = (
{
layerId = m001;
shapes = (
{
closed = 1;
nodes = (
(1388,-4,o),
(1656,102,o),
(1656,319,cs),
(1656,431,o),
(1557,522,o),
(1419,544,c),
(1552,571,o),
(1626,647,o),
(1633,739,cs),
(1652,972,o),
(1358,1026,o),
(1046,1026,cs),
(186,1009,l),
(184,967,l),
(183,967,l),
(178,887,l),
(173,787,l),
(154,493,l),
(156,492,l),
(134,97,l),
(135,95,l),
(133,65,o),
(132,40,o),
(131,10,c),
(147,0,o),
(166,-4,o),
(191,-4,c),
(1018,-4,l)
);
},
{
closed = 1;
nodes = (
(1022,613,o),
(910,613,c),
(702,613,l),
(715,821,l),
(941,821,l),
(1045,821,o),
(1111,803,o),
(1111,725,cs),
(1111,626,o)
);
},
{
closed = 1;
nodes = (
(1006,210,o),
(894,210,c),
(688,210,l),
(696,419,l),
(923,419,l),
(1027,419,o),
(1094,397,o),
(1094,319,cs),
(1094,220,o)
);
}
);
width = 1757;
}
);
unicode = 1074;
},
{
glyphname = "ge-cy";
kernLeft = afii10068;
kernRight = afii10068;
lastChange = "2023-06-29 06:57:00 +0000";
layers = (
{
anchors = (
{
name = top;
pos = (737,1026);
}
);
layerId = m001;
shapes = (
{
closed = 1;
nodes = (
(1360,1023,o),
(1346,703,o),
(1341,661,c),
(836,661,l),
(784,-5,l),
(347,-23,l),
(332,-23,l),
(226,-19,l),
(226,66,o),
(229,178,o),
(233,278,cs),
(233,289,o),
(235,306,o),
(235,316,cs),
(245,562,o),
(259,744,o),
(278,992,c),
(288,1002,l),
(348,1011,o),
(736,1023,o),
(827,1023,cs),
(1299,1023,o),
(1007,1024,o),
(1360,1023,c)
);
}
);
width = 1474;
}
);
unicode = 1075;
},
{
glyphname = "gje-cy";
kernLeft = afii10068;
kernRight = afii10068;
lastChange = "2023-06-29 06:57:00 +0000";
layers = (
{
layerId = m001;
shapes = (
{
closed = 1;
nodes = (
(1265,1023,o),
(1251,703,o),
(1246,661,c),
(741,661,l),
(689,-5,l),
(252,-23,l),
(237,-23,l),
(131,-19,l),
(131,66,o),
(134,178,o),
(138,278,cs),
(138,289,o),
(140,306,o),
(140,316,cs),
(150,562,o),
(164,744,o),
(183,992,c),
(193,1002,l),
(253,1011,o),
(641,1023,o),
(732,1023,cs),
(1204,1023,o),
(912,1024,o),
(1265,1023,c)
);
}
);
width = 1346;
}
);
unicode = 1107;
},
{
glyphname = "de-cy";
lastChange = "2023-06-29 06:57:00 +0000";
layers = (
{
layerId = m001;
shapes = (
{
closed = 1;
nodes = (
(734,651,l),
(1141,651,l),
(1112,-11,l),
(1375,-9,l),
(1690,-13,l),
(1709,500,l),
(1723,1029,l),
(1155,1023,l),
(182,1017,l),
(171,1007,l),
(167,964,l),
(131,-7,l),
(131,-7,o),
(271,-7,o),
(271,-7,c),
(694,-3,l)
);
}
);
width = 1854;
}
);
unicode = 1076;
},
{
glyphname = "zhe-cy";
lastChange = "2023-06-29 06:57:00 +0000";
layers = (
{
layerId = m001;
shapes = (
{
closed = 1;
nodes = (
(1878,98,l),
(1443,541,l),
(1919,1008,l),
(1459,1018,ls),
(1425,1018,o),
(1408,1018,o),
(1375,1017,c),
(1375,1017,o),
(1113,677,o),
(1113,677,c),
(1113,677,o),
(1092,314,o),
(1092,314,c),
(1385,-10,l),
(1957,19,l)
);
},
{
closed = 1;
nodes = (
(1129,-23,l),
(1128,-17,l),
(1128,-17,o),
(1151,1011,o),
(1151,1011,c),
(832,1009,l),
(832,943,l),
(819,-21,l)
);
},
{
closed = 1;
nodes = (
(620,1007,l),
(110,1018,l),
(533,489,l),
(133,104,l),
(27,-2,l),
(487,-11,l),
(524,-11,o),
(513,-11,o),
(550,-9,c),
(834,283,l),
(835,717,l)
);
}
);
width = 1987;
}
);
unicode = 1078;
},
{
glyphname = "ze-cy";
lastChange = "2023-06-29 06:57:00 +0000";
layers = (
{
anchors = (
{
name = bottom;
pos = (624,-10);
},
{
name = top;
pos = (624,743);
}
);
layerId = m001;
shapes = (
{
closed = 1;
nodes = (
(1230,461,o),
(1089,532,o),
(991,564,c),
(1078,605,o),
(1206,681,o),
(1206,802,cs),
(1206,1000,o),
(944,1080,o),
(617,1080,cs),
(468,1080,o),
(305,1063,o),
(147,1034,c),
(147,813,l),
(222,830,o),
(332,849,o),
(427,849,cs),
(500,849,o),
(543,800,o),
(543,750,cs),
(543,700,o),
(501,652,o),
(405,652,cs),
(287,652,l),
(262,441,l),
(443,441,ls),
(520,441,o),
(557,395,o),
(557,349,cs),
(557,300,o),
(517,251,o),
(438,251,cs),
(352,251,o),
(245,267,o),
(157,287,c),
(155,37,l),
(255,-3,o),
(439,-38,o),
(621,-38,cs),
(1025,-38,o),
(1230,115,o),
(1230,306,cs)
);
}
);
width = 1393;
}
);
unicode = 1079;
},
{
glyphname = "ii-cy";
kernLeft = afii10074;
kernRight = afii10074;
lastChange = "2023-06-29 06:57:00 +0000";
layers = (
{
anchors = (
{
name = top;
pos = (844,1027);
}
);
layerId = m001;
shapes = (
{
closed = 1;
nodes = (
(1649,25,o),
(1649,62,o),
(1649,82,c),
(1649,89,l),
(1687,1023,l),
(1154,1017,l),
(1153,1017,l),
(1050,898,o),
(692,477,o),
(643,411,c),
(653,586,o),
(660,761,o),
(668,936,c),
(673,1026,l),
(606,1031,o),
(492,1040,o),
(167,1028,c),
(131,117,l),
(131,13,l),
(213,11,l),
(307,8,o),
(657,3,o),
(772,9,c),
(772,9,o),
(1119,398,o),
(1119,398,c),
(1111,225,o),
(1105,49,o),
(1105,4,c),
(1651,4,l)
);
}
);
width = 1818;
}
);
unicode = 1080;
},
{
glyphname = "iishort-cy";
kernLeft = afii10074;
kernRight = afii10074;
lastChange = "2023-06-29 06:57:00 +0000";
layers = (
{
anchors = (
{
name = top;
pos = (844,1027);
}
);
layerId = m001;
shapes = (
{
closed = 1;
nodes = (
(1649,25,o),
(1649,62,o),
(1649,82,c),
(1649,89,l),
(1687,1023,l),
(1154,1017,l),
(1153,1017,l),
(1050,898,o),
(692,477,o),
(643,411,c),
(653,586,o),
(660,761,o),
(668,936,c),
(673,1026,l),
(606,1031,o),
(492,1040,o),
(167,1028,c),
(131,117,l),
(131,13,l),
(213,11,l),
(307,8,o),
(657,3,o),
(772,9,c),
(772,9,o),
(1119,398,o),
(1119,398,c),
(1111,225,o),
(1105,49,o),
(1105,4,c),
(1651,4,l)
);
}
);
width = 1818;
}
);
unicode = 1081;
},
{
glyphname = "ka-cy";
kernLeft = afii10076;
kernRight = afii10076;
lastChange = "2023-06-29 06:57:00 +0000";
layers = (
{
anchors = (
{
name = top;
pos = (884,1026);
}
);
layerId = m001;
shapes = (
{
closed = 1;
nodes = (
(1762,7,l),
(1613.14,151.603,o),
(1443,318,o),
(1263,509,c),
(1384,630,l),
(1384,630,o),
(1720,987,o),
(1720,987,c),
(1681,988,o),
(1641,989,o),
(1599,989,c),
(1047,978,l),
(912,831,l),
(738,638,l),
(750,920,l),
(752,990,l),
(752,990,o),
(336,995,o),
(336,995,c),
(165,995,l),
(135,122,l),
(130,-11,l),
(713,-2,ls),
(713,-2,o),
(718,241,o),
(718,241,c),
(833,331,l),
(1146,-18,l)
);
}
);
width = 1768;
}
);
unicode = 1082;
},
{
glyphname = "el-cy";
lastChange = "2023-06-29 06:57:00 +0000";
layers = (
{
layerId = m001;
shapes = (
{
closed = 1;
nodes = (
(175,-58,o),
(268,-58,cs),
(678,-58,o),
(811,62,o),
(859,495,cs),
(859,495,o),
(875,653,o),
(875,653,c),
(1284,653,l),
(1255,-11,l),
(1518,-9,l),
(1793,-13,l),
(1812,500,l),
(1826,1029,l),
(1298,1023,l),
(415,1021,l),
(404,1011,l),
(400,968,l),
(364,574,ls),
(339,306,o),
(236,267,o),
(81,267,c),
(68,-48,l),
(68,-49,l),
(101,-51,o)
);
}
);
width = 1997;
}
);
unicode = 1083;
},
{
glyphname = "em-cy";
lastChange = "2023-06-29 06:57:00 +0000";
layers = (
{
layerId = m001;
shapes = (
{
closed = 1;
nodes = (
(506,-9,l),
(571,-9,o),
(629,-8,o),
(684,-5,c),
(724,453,l),
(804,298,o),
(988,3,o),
(988,3,c),
(1168,3,l),
(1231,7,l),
(1577,481,l),
(1589,349,l),
(1617,-9,l),
(1749,-9,o),
(1995,-7,o),
(2128,1,c),
(2121,89,l),
(2121,89,o),
(2057,1016,o),
(2057,1016,c),
(1472,1029,l),
(1147,521,l),
(1147,521,o),
(862,1021,o),
(862,1021,c),
(204,1021,l),
(202,1021,o),
(200,1021,o),
(200,1021,c),
(129,-6,l)
);
}
);
width = 2256;
}
);
unicode = 1084;
},
{
glyphname = "en-cy";
lastChange = "2023-06-29 06:57:00 +0000";
layers = (
{
layerId = m001;
shapes = (
{
closed = 1;
nodes = (
(779,1022,l),
(776,1022,o),
(770,1022,o),
(763,1022,c),
(184,1030,l),
(157,684,l),
(141,330,ls),
(141,320,o),
(139,303,o),
(139,293,cs),
(135,195,o),
(131,86,o),
(131,2,c),
(731,0,l),
(754,314,l),
(1210,314,l),
(1207,84,l),
(1207,-11,l),
(1273,-11,o),
(1379,-10,o),
(1454,-9,c),
(1822,-4,l),
(1850,511,l),
(1850,564,o),
(1877,1008,o),
(1876,1023,c),
(1391,1011,l),
(1248,1011,l),
(1230,668,l),
(762,668,l)
);
}
);
width = 2007.027;
}
);
unicode = 1085;
},
{
glyphname = "pe-cy";
lastChange = "2023-06-29 06:57:00 +0000";
layers = (
{
layerId = m001;
shapes = (
{
closed = 1;
nodes = (
(734,651,l),
(1141,651,l),
(1112,-11,l),
(1375,-9,l),
(1690,-13,l),
(1709,500,l),
(1723,1029,l),
(1155,1023,l),
(182,1017,l),
(171,1007,l),
(167,964,l),
(131,-7,l),
(131,-7,o),
(271,-7,o),
(271,-7,c),
(694,-3,l)
);
}
);
width = 1854;
}
);
unicode = 1087;
},
{
glyphname = "te-cy";
lastChange = "2023-06-29 06:57:00 +0000";
layers = (
{
layerId = m001;
shapes = (
{
closed = 1;
nodes = (
(1017,651,l),
(1393,651,l),
(1393,651,o),
(1418,1013,o),
(1418,1013,c),
(1395,1023,l),
(103,1017,l),
(92,1007,l),
(92,981,l),
(71,656,l),
(439,656,l),
(414,-7,l),
(414,-7,o),
(554,-7,o),
(554,-7,c),
(977,-3,l)
);
}
);
width = 1491;
}
);
unicode = 1090;
},
{
glyphname = "ef-cy";
lastChange = "2023-06-29 06:57:00 +0000";
layers = (
{
layerId = m001;
shapes = (
{
closed = 1;
nodes = (
(1220.19,-36,l),
(1552.19,-13,o),
(1994.19,46,o),
(2007.19,534,cs),
(2015.19,881,o),
(1684.19,1029,o),
(1268.19,1065,c),
(1278.19,1311,l),
(921.193,1306,l),
(910.193,1069,l),
(454.193,1035,o),
(125.193,905,o),
(114.193,483,cs),
(103.193,44,o),
(544,-11,o),
(867,-37,c),
(861,-283,l),
(1217,-287,l)
);
},
{
closed = 1;
nodes = (
(1415.19,776,o),
(1469.19,665,o),
(1466.19,525,cs),
(1461.19,363,o),
(1408.19,242,o),
(1242.19,237,c),
(1242.19,237,o),
(1259.19,774,o),
(1259.19,774,c)
);
},
{
closed = 1;
nodes = (
(712.193,233,o),
(650.193,328,o),
(654.193,496,cs),
(658.193,627,o),
(722.193,770,o),
(886.193,771,c),
(874.193,234,l)
);
}
);
width = 2121.335;
}
);
unicode = 1092;
},
{
glyphname = "che-cy";
lastChange = "2023-06-29 06:57:00 +0000";
layers = (
{
layerId = m001;
shapes = (
{
closed = 1;
nodes = (
(1505,-9,l),
(1860,-13,l),
(1875,486,o),
(1879,471,o),
(1879,500,c),
(1893,1019,l),
(1285,1019,l),
(1269,681,l),
(954,681,ls),
(810,681,o),
(773,691,o),
(777,845,cs),
(781,1017,l),
(777,1017,o),
(771,1018,o),
(763,1018,c),
(182,1029,l),
(171,1019,l),
(167,964,l),
(158,645,ls),
(154,501,o),
(215,315,o),
(595,315,cs),
(1254,315,l),
(1242,-11,l)
);
}
);
width = 2024;
}
);
unicode = 1095;
},
{
glyphname = "tse-cy";
lastChange = "2023-06-29 06:57:00 +0000";
layers = (
{
layerId = m001;
shapes = (
{
closed = 1;
nodes = (
(1505,-9,l),
(1860,-13,l),
(1875,486,o),
(1879,471,o),
(1879,500,c),
(1893,1029,l),
(1285,1017,l),
(1252,355,l),
(751,355,l),
(781,1028,l),
(777,1028,o),
(771,1029,o),
(763,1029,cs),
(658,1029,o),
(252,1026,o),
(182,1017,c),
(171,1007,l),
(167,964,l),
(131,-12,l),
(131,-12,o),
(271,-16,o),
(271,-16,cs),
(1242,-11,l)
);
},
{
pos = (1475,-273);
ref = period;
}
);
width = 2024;
}
);
unicode = 1094;
},
{
glyphname = "sha-cy";
lastChange = "2023-06-29 06:57:00 +0000";
layers = (
{
layerId = m001;
shapes = (
{
closed = 1;
nodes = (
(2376,-9,l),
(2691,-13,l),
(2706,486,o),
(2710,471,o),
(2710,500,c),
(2724,1029,l),
(2156,1017,l),
(2123,355,l),
(1712,355,l),
(1717,481,o),
(1719,482,o),
(1719,500,c),
(1733,1029,l),
(1505,1024,l),
(1158,1024,l),
(1135,355,l),
(711,355,l),
(741,1025,l),
(182,1023,l),
(171,1013,l),
(167,964,l),
(131,-12,l),
(131,-12,o),
(1262,-16,o),
(1262,-16,cs),
(2113,-11,l)
);
}
);
width = 2855;
}
);
unicode = 1096;
},
{
glyphname = "shcha-cy";
lastChange = "2023-06-29 06:57:00 +0000";
layers = (
{
layerId = m001;
shapes = (
{
closed = 1;
nodes = (
(2376,-9,l),
(2691,-13,l),
(2706,486,o),
(2710,471,o),
(2710,500,c),
(2724,1029,l),
(2156,1017,l),
(2123,355,l),
(1712,355,l),
(1717,481,o),
(1719,482,o),
(1719,500,c),
(1733,1029,l),
(1505,1024,l),
(1158,1024,l),
(1135,355,l),
(711,355,l),
(741,1025,l),
(182,1023,l),
(171,1013,l),
(167,964,l),
(131,-12,l),
(131,-12,o),
(1262,-16,o),
(1262,-16,cs),
(2113,-11,l)
);
},
{
pos = (2302,-267);
ref = period;
}
);
width = 2855;
}
);
unicode = 1097;
},
{
glyphname = "dzhe-cy";
lastChange = "2023-06-29 06:57:00 +0000";
layers = (
{
layerId = m001;
shapes = (
{
closed = 1;
nodes = (
(761,436,o),
(778,860,o),
(786,1009,c),
(783,1010,o),
(778,1010,o),
(770,1010,c),
(192,1007,l),
(173,671,l),
(157,317,ls),
(157,307,o),
(155,290,o),
(155,280,cs),
(152,181,o),
(148,82,o),
(148,-2,c),
(1383,-3,l),
(1747,1,l),
(1762,486,o),
(1765,471,o),
(1765,498,cs),
(1765,551,o),
(1784,1001,o),
(1783,1014,c),
(1313,1016,l),
(1278,1016,o),
(1224,1013,o),
(1186,1009,c),
(1186,951,ls),
(1186,919,o),
(1176,475,o),
(1172,362,c),
(758,362,l)
);
},
{
closed = 1;
nodes = (
(634,-151,o),
(627,-305,o),
(627,-356,c),
(659,-366,o),
(692,-366,o),
(725,-366,c),
(726,-366,l),
(1213,-361,l),
(1211,-340,o),
(1211,-298,o),
(1222,117,c),
(644,56,l)
);
}
);
width = 1981.023;
}
);
unicode = 1119;
},
{
glyphname = "softsign-cy";
lastChange = "2023-06-29 06:57:00 +0000";
layers = (
{
layerId = m001;
shapes = (
{
closed = 1;
nodes = (
(722,252,l),
(726,540,l),
(927,539,l),
(1063,539,o),
(1137,541,o),
(1140,415,cs),
(1144,254,o),
(1038,250,o),
(892,250,c)
);
},
{
closed = 1;
nodes = (
(1417,-5,o),
(1725,98,o),
(1718,409,cs),
(1710,741,o),
(1420,818,o),
(1082,818,c),
(731,818,l),
(733,921,l),
(733,953,o),
(734,986,o),
(733,1018,c),
(692,1027,o),
(645,1029,o),
(599,1029,c),
(199,1027,l),
(193,939,l),
(164,140,l),
(165,137,l),
(164,94,o),
(164,61,o),
(164,18,c),
(182,4,o),
(203,-2,o),
(230,-2,c),
(1046,-5,l)
);
}
);
width = 1835.117;
}
);
unicode = 1100;
},
{
glyphname = "yeru-cy";
lastChange = "2023-06-29 06:57:00 +0000";
layers = (
{
layerId = m001;
shapes = (
{
closed = 1;
nodes = (
(689,252,l),
(693,548,l),
(894,548,l),
(1030,548,o),
(1104,550,o),
(1107,424,cs),
(1111,263,o),
(1005,250,o),
(859,250,c)
);
},
{
closed = 1;
nodes = (
(1384,-5,o),
(1692,98,o),
(1685,409,cs),
(1677,741,o),
(1387,827,o),
(1049,827,c),
(698,827,l),
(700,921,l),
(700,953,o),
(701,994,o),
(700,1026,c),
(659,1035,o),
(612,1037,o),
(566,1037,c),
(166,1027,l),
(160,849,l),
(131,140,l),
(132,137,l),
(131,94,o),
(131,61,o),
(131,18,c),
(149,4,o),
(170,-2,o),
(197,-2,c),
(1013,-5,l)
);
},
{
closed = 1;
nodes = (
(2412,1026,l),
(1936,1020,l),
(1927,416,l),
(1917,209,o),
(1920,60,o),
(1920,9,c),
(1952,-1,o),
(1985,-1,o),
(2018,-1,c),
(2019,-1,l),
(2496,12,l),
(2496,12,o),
(2512,1023,o),
(2512,1023,c),
(2480,1025,o),
(2448,1026,o),
(2416,1026,c)
);
}
);
width = 2643;
}
);
unicode = 1099;
},
{
glyphname = "hardsign-cy";
lastChange = "2023-06-29 06:57:00 +0000";
layers = (
{
layerId = m001;
shapes = (
{
closed = 1;
nodes = (
(1544,-5,o),
(1849,96,o),
(1849,399,cs),
(1849,409,ls),
(1841,741,o),
(1551,827,o),
(1213,827,c),
(862,827,l),
(864,921,l),
(864,1018,l),
(823,1027,o),
(776,1027,o),
(730,1027,c),
(730,1027,o),
(56,1027,o),
(56,1027,c),
(41,694,l),
(185,692,l),
(318,692,l),
(295,140,l),
(296,137,l),
(295,94,o),
(295,61,o),
(295,18,c),
(313,4,o),
(334,-2,o),
(361,-2,c),
(1177,-5,l)
);
},
{
closed = 1;
nodes = (
(857,549,l),
(1058,548,l),
(1070,548,ls),
(1198,548,o),
(1268,546,o),
(1271,424,cs),
(1271,415,ls),
(1271,263,o),
(1166,250,o),
(1023,250,c),
(853,252,l)
);
}
);
width = 1996;
}
);
unicode = 1098;
},
{
glyphname = "lje-cy";
lastChange = "2023-06-29 06:57:00 +0000";
layers = (
{
layerId = m001;
shapes = (
{
closed = 1;
nodes = (
(938,117,o),
(959,530,c),
(964,694,l),
(1239,694,l),
(1219,-1,l),
(1285,-2,l),
(2021,-5,ls),
(2392,-7,o),
(2643,98,o),
(2643,409,cs),
(2643,741,o),
(2375,827,o),
(2037,827,c),
(1786,827,l),
(1788,921,l),
(1788,1027,l),
(1788,1027,o),
(452,1023,o),
(452,1023,c),
(452,1023,o),
(452,964,o),
(452,964,cs),
(439,611,l),
(438,611,l),
(425,342,o),
(320,304,o),
(165,304,cs),
(132,304,o),
(95,306,o),
(57,308,c),
(57,281,o),
(54,12,o),
(54,-11,cs),
(54,-12,l),
(87,-14,o),
(259,-21,o),
(352,-21,cs),
(762,-21,o)
);
},
{
closed = 1;
nodes = (
(2003,250,o),
(1857,250,c),
(1777,252,l),
(1781,549,l),
(1892,548,l),
(2028,548,o),
(2102,550,o),
(2105,424,cs),
(2109,263,o)
);
}
);
width = 2725;
}
);
unicode = 1113;
},
{
glyphname = "nje-cy";
lastChange = "2023-06-29 06:57:00 +0000";
layers = (
{
layerId = m001;
shapes = (
{
closed = 1;
nodes = (
(760,1022,l),
(757,1022,o),
(751,1022,o),
(744,1022,c),
(171,1030,l),
(171,1030,o),
(144,2,o),
(144,2,c),
(731,0,l),
(741,314,l),
(1197,314,l),
(1217,668,l),
(749,668,l)
);
},
{
closed = 1;
nodes = (
(1664,252,l),
(1668,549,l),
(1789,548,l),
(1925,548,o),
(1999,550,o),
(2002,424,cs),
(2006,263,o),
(1900,250,o),
(1754,250,c)
);
},
{
closed = 1;
nodes = (
(2259,-5,o),
(2567,98,o),
(2560,409,cs),
(2552,741,o),
(2262,827,o),
(1924,827,c),
(1673,827,l),
(1675,921,l),
(1675,953,o),
(1676,997,o),
(1675,1029,c),
(1675,1029,o),
(1141,1027,o),
(1141,1027,c),
(1135,939,l),
(1106,2,l),
(1107,-1,l),
(1172,-2,l),
(1888,-5,l)
);
}
);
width = 2629.117;
}
);
unicode = 1114;
},
{
glyphname = "e-cy";
lastChange = "2023-06-29 06:57:00 +0000";
layers = (
{
layerId = m001;
shapes = (
{
closed = 1;
nodes = (
(1196,-39,o),
(1360,-18,o),
(1470,11,c),
(1393,326,l),
(1281,307,o),
(1184,298,o),
(1103,298,cs),
(851,298,o),
(742,383,o),
(742,501,cs),
(742,659,o),
(953,697,o),
(1183,697,cs),
(1292,697,o),
(1366,685,o),
(1463,667,c),
(1488,988,l),
(1366,1014,o),
(1127,1048,o),
(1017,1048,cs),
(599,1048,o),
(119,902,o),
(119,490,cs),
(119,79,o),
(603,-39,o),
(1020,-39,cs)
);
}
);
width = 1607;
}
);
unicode = 1108;
},
{
glyphname = "ereversed-cy";
lastChange = "2023-06-29 06:57:00 +0000";
layers = (
{
layerId = m001;
shapes = (
{
closed = 1;
nodes = (
(1196,-39,o),
(1360,-18,o),
(1470,11,c),
(1393,326,l),
(1281,307,o),
(1184,298,o),
(1103,298,cs),
(851,298,o),
(742,383,o),
(742,501,cs),
(742,659,o),
(953,697,o),
(1183,697,cs),
(1292,697,o),
(1366,685,o),
(1463,667,c),
(1488,988,l),
(1366,1014,o),
(1127,1048,o),
(1017,1048,cs),
(599,1048,o),
(119,902,o),
(119,490,cs),
(119,79,o),
(603,-39,o),
(1020,-39,cs)
);
}
);
width = 1607;
}
);
unicode = 1101;
},
{
glyphname = "tshe-cy";
lastChange = "2023-06-29 06:57:00 +0000";
layers = (
{
layerId = m001;
shapes = (
{
closed = 1;
nodes = (
(1161,1246,ls),
(1164,1281,o),
(1171,1355,o),
(1171,1372,c),
(1123,1372,ls),
(1106,1372,o),
(572,1366,o),
(524,1366,cs),
(36,1366,l),
(29,1150,l),
(176,1150,l),
(1152,1150,l)
);
},
{
closed = 1;
nodes = (
(1729,5,o),
(1764,7,o),
(1794,11,c),
(1806,530,ls),
(1806,545,ls),
(1806,835.588,o),
(1550,1002,o),
(1145,1002,cs),
(980,1002,o),
(872,987,o),
(747,961,c),
(752,1198,l),
(755,1465,l),
(653,1465,l),
(628,1465,l),
(166,1464,l),
(131,96,l),
(131,-7,l),
(261,-7,l),
(738,1,l),
(754,626,l),
(836,642,o),
(904,649,o),
(960,649,cs),
(1158,649,o),
(1206,560,o),
(1206,468,cs),
(1206,465,o),
(1206,462,o),
(1206,459,cs),
(1198,0,l),
(1198,-1,l),
(1683,2,ls)
);
}
);
width = 1931;
}
);
unicode = 1115;
},
{
glyphname = "yu-cy";
lastChange = "2023-06-29 06:57:00 +0000";
layers = (
{
layerId = m001;
shapes = (
{
closed = 1;
nodes = (
(1895,-37,o),
(2270,38,o),
(2270,526,cs),
(2270,873,o),
(2015,1070,o),
(1622,1070,cs),
(1242,1070,o),
(969,958,o),
(894,668,c),
(713,668,l),
(729,1022,l),
(714,1022,l),
(175,1030,l),
(155,684,l),
(140,320,o),
(131,86,o),
(131,2,c),
(685,0,l),
(706,314,l),
(897,314,l),
(982,28,o),
(1283,-37,o),
(1569,-37,cs)
);
},
{
closed = 1;
nodes = (
(1738,239,o),
(1585,236,c),
(1435,236,o),
(1385,332,o),
(1385,500,cs),
(1385,631,o),
(1428,773,o),
(1579,773,cs),
(1727,773,o),
(1771,662,o),
(1771,522,cs),
(1771,360,o)
);
}
);
width = 2384;
}
);
unicode = 1102;
},
{
glyphname = "ya-cy";
lastChange = "2023-06-29 06:57:00 +0000";
layers = (
{
layerId = m001;
shapes = (
{
closed = 1;
nodes = (
(1023,795,o),
(979,797,o),
(901,797,cs),
(832,797,o),
(709,788,o),
(704,713,cs),
(698,603,o),
(772,587,o),
(1085,587,c),
(1084,792,l)
);
},
{
closed = 1;
nodes = (
(752,-5,o),
(200,1,o),
(157,2,c),
(389,435,l),
(247,481,o),
(134,577,o),
(142,726,cs),
(159,1008,o),
(490,1029,o),
(855,1028,c),
(1655,1019,l),
(1655,1019,o),
(1643,445,o),
(1643,445,cs),
(1640,270,o),
(1638,123,o),
(1631,-9,c),
(1085,0,l),
(1080,0,o),
(1080,3,o),
(1080,6,cs),
(1085,357,l),
(890,361,l),
(864,292,o),
(764,27,o),
(753,-5,c)
);
}
);
width = 1790;
}
);
unicode = 1103;
},
{
glyphname = "dje-cy";
lastChange = "2023-06-29 06:57:00 +0000";
layers = (
{
layerId = m001;
shapes = (
{
closed = 1;
nodes = (
(1022,-516,o),
(1115,-516,cs),
(1525,-516,o),
(1771,-419,o),
(1790,143,cs),
(1790,143,o),
(1792,545,o),
(1792,545,cs),
(1792,836,o),
(1550,1002,o),
(1145,1002,cs),
(980,1002,o),
(872,987,o),
(747,961,c),
(752,1198,l),
(752,1465,l),
(625,1465,l),
(163,1464,l),
(131,96,l),
(131,-7,l),
(261,-7,l),
(738,1,l),
(754,626,l),
(836,642,o),
(904,649,o),
(960,649,cs),
(1158,649,o),
(1206,560,o),
(1206,468,c),
(1201,116,l),
(1188,-153,o),
(1083,-191,o),
(928,-191,c),
(915,-506,l),
(915,-507,l),
(948,-509,o)
);
}
);
width = 1931;
}
);
unicode = 1106;
},
{
glyphname = mu;
layers = (
{
layerId = m001;
shapes = (
{
closed = 1;
nodes = (
(676,-405,o),
(679,-405,o),
(679,-405,c),
(694,-37,l),
(711,-38,o),
(728,-38,o),
(746,-38,cs),
(953,-38,o),
(1173,33,o),
(1310,190,c),
(1406,-17,l),
(1569,5,o),
(1647,17,o),
(1721,30,c),
(1770,918,l),
(1770,956,o),
(1770,992,o),
(1769,1031,c),
(1487,1015,o),
(1342,1007,o),
(1200,997,c),
(1200,568,o),
(1192,245,o),
(922,245,cs),
(779,245,o),
(720,361,o),
(720,507,cs),
(720,518,o),
(735,850,o),
(744,1023,c),
(701,1027,o),
(654,1031,o),
(598,1031,cs),
(452,1031,o),
(223,1001,o),
(141,987,c),
(136,822,o),
(121,711,o),
(119,478,c),
(119,472,l),
(118,453,o),
(118,430,o),
(118,407,cs),
(118,399,o),
(119,390,o),
(118,-466,c),
(678,-420,l)
);
}
);
width = 1277;
}
);
unicode = 956;
},
{
glyphname = zero;
layers = (
{
layerId = m001;
shapes = (
{
closed = 1;
nodes = (
(1563,-54,o),
(1953,202,o),
(1953,741,cs),
(1953,1120,o),
(1706,1493,o),
(1098,1493,cs),
(444,1493,o),
(126,1142,o),
(126,666,cs),
(126,206,o),
(511,-54,o),
(1010,-54,cs)
);
},
{
closed = 1;
nodes = (
(868,326,o),
(847,542,o),
(847,716,cs),
(847,899,o),
(881,1122,o),
(1116,1122,cs),
(1308,1122,o),
(1335,877,o),
(1335,741,cs),
(1335,558,o),
(1307,326,o),
(1078,326,cs)
);
}
);
width = 2079;
}
);
unicode = 48;
},
{
glyphname = one;
layers = (
{
layerId = m001;
shapes = (
{
closed = 1;
nodes = (
(329,3,l),
(330,3,o),
(330,6,o),
(332,11,c),
(345,-16,o),
(377,-25,o),
(415,-25,c),
(1009,-7,l),
(1108,1308,l),
(1117,1402,l),
(1117,1416,o),
(1115,1423,o),
(1105,1424,c),
(1105,1427,ls),
(1105,1434,o),
(1101,1436,o),
(1095,1436,c),
(1096,1437,o),
(1096,1438,o),
(1096,1438,c),
(132,1306,l),
(166,1006,l),
(437,1051,l),
(409,800,o),
(341,54,o),
(332,11,c),
(330,14,o),
(329,18,o),
(329,22,cs)
);
}
);
width = 1293;
}
);
unicode = 49;
},
{
glyphname = two;
layers = (
{
layerId = m001;
shapes = (
{
closed = 1;
nodes = (
(173,-3,o),
(190,-13,o),
(219,-13,cs),
(1409,-7,l),
(1430,91,o),
(1486,296,o),
(1496,344,cs),
(1496,345,ls),
(1496,353,o),
(1480,357,o),
(1451,357,cs),
(1158,348,l),
(1157,348,l),
(1261,475,o),
(1532,804,o),
(1532,1085,cs),
(1532,1100,ls),
(1522,1395,o),
(1228,1469,o),
(930,1469,cs),
(670,1469,o),
(414,1413,o),
(367,1398,c),
(288,1029,ls),
(288,1025,o),
(290,1018,o),
(298,1018,cs),
(302,1018,l),
(437,1046,o),
(540,1057,o),
(619,1057,cs),
(775,1057,o),
(811,1009,o),
(811,963,cs),
(811,945,o),
(806,927,o),
(800,913,cs),
(772,841,o),
(321,247,o),
(201,80,cs),
(182,53,o),
(173,32,o),
(173,18,cs)
);
}
);
width = 1681;
}
);
unicode = 50;
},
{
glyphname = three;
layers = (
{
layerId = m001;
shapes = (
{
closed = 1;
nodes = (
(1553,642,o),
(1382,738,o),
(1264,782,c),
(1369,838,o),
(1524,941,o),
(1524,1106,cs),
(1524,1376,o),
(1207,1485,o),
(811,1485,cs),
(630,1485,o),
(432,1462,o),
(241,1422,c),
(241,1121,l),
(332,1144,o),
(465,1171,o),
(580,1171,cs),
(669,1171,o),
(721,1103,o),
(721,1035,cs),
(721,968,o),
(670,902,o),
(553,902,cs),
(411,902,l),
(380,614,l),
(600,614,ls),
(693,614,o),
(738,552,o),
(738,489,cs),
(738,423,o),
(689,356,o),
(593,356,cs),
(489,356,o),
(360,378,o),
(253,405,c),
(251,64,l),
(372,10,o),
(595,-38,o),
(815,-38,cs),
(1305,-38,o),
(1553,170,o),
(1553,430,cs)
);
}
);
width = 1637;
}
);
unicode = 51;
},
{
glyphname = four;
layers = (
{
layerId = m001;
shapes = (
{
closed = 1;
nodes = (
(1013,1032,l),
(944,568,l),
(723,568,l)
);
},
{
closed = 1;
nodes = (
(1893,577,o),
(1860,582,o),
(1832,585,c),
(1815,585,o),
(1800,582,o),
(1651,581,c),
(1703,1438,l),
(1702,1450,l),
(1701,1476,o),
(1686,1484,o),
(1661,1484,cs),
(1647,1484,o),
(1632,1480,o),
(1615,1481,c),
(946,1480,l),
(84,278,l),
(81,272,o),
(79,267,o),
(79,261,cs),
(79,241,o),
(99,226,o),
(135,226,cs),
(908,226,l),
(879,17,ls),
(879,14,ls),
(879,-13,o),
(908,-21,o),
(937,-21,cs),
(1008,-21,o),
(1543,-2,o),
(1590,10,cs),
(1611,16,o),
(1615,29,o),
(1617,42,c),
(1630,231,l),
(1720,231,l),
(1880,229,o),
(1844,236,o),
(1855,270,c),
(1892,537,ls),
(1893,539,o),
(1893,543,o),
(1893,548,cs)
);
}
);
width = 1956;
}
);
unicode = 52;
},
{
glyphname = five;
layers = (
{
layerId = m001;
shapes = (
{
closed = 1;
nodes = (
(827,-26,o),
(1441,23,o),
(1441,559,cs),
(1441,864,o),
(1204,927,o),
(784,973,c),
(784,1100,l),
(815,1100,o),
(875,1098,o),
(945,1098,cs),
(1128,1098,o),
(1381,1114,o),
(1387,1235,cs),
(1399,1475,l),
(265,1461,l),
(226,738,l),
(230,692,l),
(284,695,o),
(336,697,o),
(385,697,cs),
(601,697,o),
(760,664,o),
(760,568,cs),
(760,558,o),
(759,547,o),
(755,536,cs),
(705,378,o),
(163,374,o),
(163,371,c),
(161,-26,l)
);
}
);
width = 1554;
}
);
unicode = 53;
},
{
glyphname = six;
layers = (
{
layerId = m001;
shapes = (
{
closed = 1;
nodes = (
(892,270,o),
(848,364,o),
(848,496,cs),
(848,624,o),
(886,774,o),
(1036,774,cs),
(1169,774,o),
(1214,689,o),
(1214,538,cs),
(1214,389,o),
(1173,270,o),
(1026,270,cs)
);
},
{
closed = 1;
nodes = (
(830,1561,l),
(319,970,ls),
(183,813,o),
(132,693,o),
(132,546,cs),
(132,372.667,o),
(279.118,-45,o),
(965,-45,cs),
(1587,-45,o),
(1896,181,o),
(1896,551,cs),
(1896,762,o),
(1701,1005,o),
(1291,1005,cs),
(1224,1005,ls),
(1204,1005,o),
(1184,1005,o),
(1158,1003,c),
(1238,1118,o),
(1396,1301,o),
(1491,1414,c),
(1463,1429,o),
(881,1550,o),
(831,1561,c)
);
}
);
width = 2008;
}
);
unicode = 54;
},
{
glyphname = seven;
layers = (
{
layerId = m001;
shapes = (
{
closed = 1;
nodes = (
(1059,1420,o),
(867,1418,o),
(300,1414,c),
(232,1015,l),
(232,1007,o),
(268,1006,o),
(314,1006,cs),
(422,1006,ls),
(743,1008,l),
(558,589,l),
(420,288,o),
(303,23,o),
(292,-1,cs),
(289,-6,o),
(285,-12,o),
(285,-17,c),
(1019,-23,l),
(1373,747,l),
(1690,1411,l),
(1338,1420,l)
);
}
);
width = 1695;
}
);
unicode = 55;
},
{
glyphname = eight;
layers = (
{
layerId = m001;
shapes = (
{
closed = 1;
nodes = (
(1192,1226,o),
(1272,1175,o),
(1272,1083,cs),
(1272,985,o),
(1196,940,o),
(1118,940,cs),
(1039,940,o),
(959,987,o),
(959,1075,cs),
(959,1178,o),
(1035,1226,o),
(1112,1226,cs)
);
},
{
closed = 1;
nodes = (
(1302,383,o),
(1245,294,o),
(1126,294,cs),
(997,294,o),
(936,377,o),
(936,463,cs),
(936,554,o),
(1005,647,o),
(1136,647,cs),
(1245,647,o),
(1302,559,o),
(1302,471,cs)
);
},
{
closed = 1;
nodes = (
(1067,1502,ls),
(667,1502,o),
(357,1396,o),
(357,1083,cs),
(357,980,o),
(403,887,o),
(554,817,c),
(352,735,o),
(201,584,o),
(201,372,cs),
(201,48,o),
(656,-54,o),
(1071,-54,cs),
(1600,-54,o),
(1951,95,o),
(1951,442,cs),
(1951,645,o),
(1825,757,o),
(1669,839,c),
(1773,903,o),
(1856,1012,o),
(1856,1148,cs),
(1856,1391,o),
(1511,1498,o),
(1090,1502,cs)
);
}
);
width = 2099;
}
);
unicode = 56;
},
{
glyphname = nine;
layers = (
{
layerId = m001;
shapes = (
{
closed = 1;
nodes = (
(1155,1160,o),
(1199,1066,o),
(1199,934,cs),
(1199,806,o),
(1161,656,o),
(1011,656,cs),
(878,656,o),
(833,741,o),
(833,892,cs),
(833,1041,o),
(874,1160,o),
(1021,1160,cs)
);
},
{
closed = 1;
nodes = (
(1728,460,ls),
(1864,617,o),
(1915,737,o),
(1915,884,cs),
(1915,1057,o),
(1768,1475,o),
(1082,1475,cs),
(460,1475,o),
(151,1249,o),
(151,879,cs),
(151,689,o),
(320,416,o),
(761,416,cs),
(810,416,o),
(832,420,o),
(889,427,c),
(809,312,o),
(651,129,o),
(556,16,c),
(584,1,o),
(1166,-120,o),
(1216,-131,c),
(1217,-131,l)
);
}
);
width = 2024;
}
);
unicode = 57;
},
{
glyphname = fraction;
layers = (
{
layerId = m001;
shapes = (
{
closed = 1;
nodes = (
(1225,1471,l),
(1231,1486,l),
(1243,1510,l)
);
},
{
closed = 1;
nodes = (
(399,580,o),
(225,212,o),
(37,-164,c),
(49,-164,ls),
(85,-164,o),
(214,-188,o),
(264,-188,cs),
(316,-188,o),
(358,-182,o),
(417,-182,c),
(424,-158,o),
(441,-141,o),
(450,-123,cs),
(1231,1486,l),
(1258,1549,ls),
(1267,1571,o),
(1281,1595,o),
(1294,1619,c),
(1221,1617,o),
(1149,1611,o),
(1077,1610,c),
(1024,1618,o),
(972,1624,o),
(919,1630,c),
(903,1582,o),
(881,1540,o),
(864,1512,c),
(807,1459,o),
(664,1119,o),
(591,970,cs)
);
}
);
width = 1314;
}
);
unicode = 8260;
},
{
glyphname = onehalf;
layers = (
{
layerId = m001;
shapes = (
{
closed = 1;
nodes = (
(2179,795,o),
(2003,845,o),
(1818,845,cs),
(1645,845,o),
(1464,802,o),
(1407,773,c),
(1403,765,o),
(1362,648,o),
(1345,590,c),
(1365,577,l),
(1393,589,ls),
(1459,617,o),
(1517,632,o),
(1562,632,cs),
(1623,632,o),
(1660,605,o),
(1660,551,cs),
(1660,481,o),
(1598,364,o),
(1448,199,cs),
(1346,87,l),
(1322,63,o),
(1303,45,o),
(1303,30,cs),
(1303,9,o),
(1342,-3,o),
(1459,-3,cs),
(1633,-3,o),
(1710,-2,o),
(2017,1,cs),
(2032,2,o),
(2054,1,o),
(2077,15,cs),
(2078,15,o),
(2079,20,o),
(2081,20,c),
(2212,172,l),
(2212,172,o),
(2225,186,o),
(2225,196,cs),
(2225,204,o),
(2209,209,o),
(2178,209,cs),
(2088,209,o),
(1853,191,o),
(1815,191,cs),
(1812,191,ls),
(1811,191,l),
(1953,332,ls),
(2027,405,o),
(2104,483,o),
(2123,509,c),
(2162,549,o),
(2179,588,o),
(2179,624,cs)
);
},
{
closed = 1;
nodes = (
(460,88,o),
(458,82,o),
(458,77,cs),
(458,44,o),
(556,25,o),
(581,18,cs),
(708,-22,l),
(719,-27,o),
(731,-29,o),
(741,-29,cs),
(767,-29,o),
(763,-10,o),
(777,13,cs),
(1583,1360,l),
(1583,1363,ls),
(1583,1370,o),
(1574,1373,o),
(1564,1375,cs),
(1475,1388,o),
(1388,1427,o),
(1297,1454,c),
(1289,1454,ls),
(1265,1454,o),
(1258,1442,o),
(1237,1405,cs),
(1136,1231,o),
(1046,1065,o),
(944,897,cs),
(737,558,o),
(619,342,o),
(464,95,cs)
);
},
{
closed = 1;
nodes = (
(166,568,l),
(167,568,o),
(167,570,o),
(168,573,c),
(176,557,o),
(195,551,o),
(218,551,cs),
(573,562,l),
(633,1350,l),
(638,1406,ls),
(638,1415,o),
(637,1419,o),
(631,1420,c),
(631,1421,ls),
(631,1426,o),
(629,1427,o),
(625,1427,c),
(626,1427,o),
(626,1428,o),
(626,1428,c),
(48,1349,l),
(68,1169,l),
(231,1196,l),
(214,1046,o),
(173,599,o),
(168,573,c),
(167,575,o),
(166,577,o),
(166,580,cs)
);
}
);
width = 2358;
}
);
unicode = 189;
},
{
glyphname = onequarter;
layers = (
{
layerId = m001;
shapes = (
{
closed = 1;
nodes = (
(1777,823,l),
(1727,391,l),
(1516,391,l)
);
},
{
closed = 1;
nodes = (
(2217,402,ls),
(2206,402,o),
(2179,401,o),
(2097,400,c),
(2113,631,o),
(2127,720,o),
(2142,949,c),
(2142,955,ls),
(2142,972,o),
(2135,975,o),
(2120,975,cs),
(2113,975,o),
(2106,975,o),
(2096,974,cs),
(1712,973,ls),
(1663,973,o),
(1657,967,o),
(1649,955,cs),
(1145,222,l),
(1137,215,o),
(1136,209,o),
(1136,206,cs),
(1136,188,o),
(1178,185,o),
(1287,185,cs),
(1353,185,o),
(1493,187,o),
(1702,187,c),
(1686,14,ls),
(1684,-5,o),
(1701,-9,o),
(1719,-9,cs),
(1757,-9,o),
(2010,-2,o),
(2035,6,c),
(2048,9,o),
(2051,17,o),
(2051,24,cs),
(2068,189,l),
(2241,189,l),
(2249,402,l)
);
},
{
closed = 1;
nodes = (
(737,558,o),
(619,342,o),
(464,95,cs),
(460,88,o),
(458,82,o),
(458,77,cs),
(458,44,o),
(556,25,o),
(581,18,cs),
(708,-22,l),
(719,-27,o),
(731,-29,o),
(741,-29,cs),
(767,-29,o),
(763,-10,o),
(777,13,cs),
(1583,1360,l),
(1583,1363,ls),
(1583,1370,o),
(1574,1373,o),
(1564,1375,cs),
(1475,1388,o),
(1388,1427,o),
(1297,1454,c),
(1289,1454,ls),
(1265,1454,o),
(1258,1442,o),
(1237,1405,cs),
(1136,1231,o),
(1046,1065,o),
(944,897,cs)
);
},
{
closed = 1;
nodes = (
(633,1350,l),
(638,1406,ls),
(638,1415,o),
(637,1419,o),
(631,1420,c),
(631,1421,ls),
(631,1426,o),
(629,1427,o),
(625,1427,c),
(626,1427,o),
(626,1428,o),
(626,1428,c),
(48,1349,l),
(68,1169,l),
(231,1196,l),
(214,1046,o),
(173,599,o),
(168,573,c),
(167,575,o),
(166,577,o),
(166,580,cs),
(166,568,l),
(167,568,o),
(167,570,o),
(168,573,c),
(176,557,o),
(195,551,o),
(218,551,cs),
(573,562,l)
);
}
);
width = 2325;
}
);
unicode = 188;
},
{
glyphname = threequarters;
layers = (
{
layerId = m001;
shapes = (
{
closed = 1;
nodes = (
(2085,823,l),
(2035,391,l),
(1824,391,l)
);
},
{
closed = 1;
nodes = (
(1045,558,o),
(927,342,o),
(772,95,cs),
(768,88,o),
(766,82,o),
(766,77,cs),
(766,44,o),
(864,25,o),
(889,18,cs),
(1016,-22,l),
(1027,-27,o),
(1039,-29,o),
(1049,-29,cs),
(1075,-29,o),
(1071,-10,o),
(1085,13,cs),
(1891,1360,l),
(1891,1363,ls),
(1891,1370,o),
(1882,1373,o),
(1872,1375,cs),
(1783,1388,o),
(1696,1427,o),
(1605,1454,c),
(1597,1454,ls),
(1573,1454,o),
(1566,1442,o),
(1545,1405,cs),
(1444,1231,o),
(1354,1065,o),
(1252,897,cs)
);
},
{
closed = 1;
nodes = (
(2525,402,ls),
(2514,402,o),
(2487,401,o),
(2405,400,c),
(2421,631,o),
(2435,720,o),
(2450,949,c),
(2450,955,ls),
(2450,972,o),
(2443,975,o),
(2428,975,cs),
(2421,975,o),
(2414,975,o),
(2404,974,cs),
(2020,973,ls),
(1971,973,o),
(1965,967,o),
(1957,955,cs),
(1453,222,l),
(1445,215,o),
(1444,209,o),
(1444,206,cs),
(1444,188,o),
(1486,185,o),
(1595,185,cs),
(1661,185,o),
(1801,187,o),
(2010,187,c),
(1994,14,ls),
(1992,-5,o),
(2009,-9,o),
(2027,-9,cs),
(2065,-9,o),
(2318,-2,o),
(2343,6,c),
(2356,9,o),
(2359,17,o),
(2359,24,cs),
(2376,189,l),
(2549,189,l),
(2557,402,l)
);
},
{
closed = 1;
nodes = (
(942,963,o),
(854,1022,o),
(793,1049,c),
(847,1084,o),
(927,1148,o),
(927,1250,cs),
(927,1417,o),
(763,1485,o),
(558,1485,cs),
(464,1485,o),
(362,1471,o),
(263,1446,c),
(263,1259,l),
(310,1274,o),
(379,1290,o),
(439,1290,cs),
(485,1290,o),
(512,1248,o),
(512,1206,cs),
(512,1165,o),
(485,1124,o),
(425,1124,cs),
(351,1124,l),
(335,945,l),
(449,945,ls),
(497,945,o),
(520,907,o),
(520,868,cs),
(520,827,o),
(495,785,o),
(445,785,cs),
(391,785,o),
(325,799,o),
(269,816,c),
(268,604,l),
(331,571,o),
(446,541,o),
(560,541,cs),
(814,541,o),
(942,670,o),
(942,831,cs)
);
}
);
width = 2633;
}
);
unicode = 190;
},
{
glyphname = onesuperior;
lastChange = "2023-06-29 06:57:00 +0000";
layers = (
{
layerId = m001;
shapes = (
{
closed = 1;
nodes = (
(166,568,l),
(167,568,o),
(167,570,o),
(168,573,c),
(176,557,o),
(195,551,o),
(218,551,cs),
(573,562,l),
(633,1350,l),
(638,1406,ls),
(638,1415,o),
(637,1419,o),
(631,1420,c),
(631,1421,ls),
(631,1426,o),
(629,1427,o),
(625,1427,c),
(626,1427,o),
(626,1428,o),
(626,1428,c),
(48,1349,l),
(68,1169,l),
(231,1196,l),
(214,1046,o),
(173,599,o),
(168,573,c),
(167,575,o),
(166,577,o),
(166,580,cs)
);
}
);
width = 698;
}
);
unicode = 185;
},
{
glyphname = onesuperior;
layers = (
{
layerId = m001;
shapes = (
{
closed = 1;
nodes = (
(633,1350,l),
(638,1406,ls),
(638,1415,o),
(637,1419,o),
(631,1420,c),
(631,1421,ls),
(631,1426,o),
(629,1427,o),
(625,1427,c),
(626,1427,o),
(626,1428,o),
(626,1428,c),
(48,1349,l),
(68,1169,l),
(231,1196,l),
(214,1046,o),
(173,599,o),
(168,573,c),
(167,575,o),
(166,577,o),
(166,580,cs),
(166,568,l),
(167,568,o),
(167,570,o),
(168,573,c),
(176,557,o),
(195,551,o),
(218,551,cs),
(573,562,l)
);
}
);
width = 2325;
}
);
unicode = 185;
},
{
glyphname = twosuperior;
lastChange = "2023-06-29 06:57:00 +0000";
layers = (
{
layerId = m001;
shapes = (
{
closed = 1;
nodes = (
(941,1443,o),
(765,1493,o),
(580,1493,cs),
(407,1493,o),
(226,1450,o),
(169,1421,c),
(165,1413,o),
(124,1296,o),
(107,1238,c),
(127,1225,l),
(155,1237,ls),
(221,1265,o),
(279,1280,o),
(324,1280,cs),
(385,1280,o),
(422,1253,o),
(422,1199,cs),
(422,1129,o),
(360,1012,o),
(210,847,cs),
(108,735,l),
(84,711,o),
(65,693,o),
(65,678,cs),
(65,657,o),
(104,645,o),
(221,645,cs),
(395,645,o),
(472,646,o),
(779,649,cs),
(794,650,o),
(816,649,o),
(839,663,cs),
(840,663,o),
(841,668,o),
(843,668,c),
(974,820,l),
(974,820,o),
(987,834,o),
(987,844,cs),
(987,852,o),
(971,857,o),
(940,857,cs),
(850,857,o),
(615,839,o),
(577,839,cs),
(574,839,ls),
(573,839,l),
(715,980,ls),
(789,1053,o),
(866,1131,o),
(885,1157,c),
(924,1197,o),
(941,1236,o),
(941,1272,cs)
);
}
);
width = 1060;
}
);
unicode = 178;
},
{
glyphname = twosuperior;
layers = (
{
layerId = m001;
shapes = (
{
closed = 1;
nodes = (
(1649,1405,o),
(1473,1455,o),
(1288,1455,cs),
(1115,1455,o),
(934,1412,o),
(877,1383,c),
(873,1375,o),
(832,1258,o),
(815,1200,c),
(835,1187,l),
(863,1199,ls),
(929,1227,o),
(987,1242,o),
(1032,1242,cs),
(1093,1242,o),
(1130,1215,o),
(1130,1161,cs),
(1130,1091,o),
(1068,974,o),
(918,809,cs),
(816,697,l),
(792,673,o),
(773,655,o),
(773,640,cs),
(773,619,o),
(812,607,o),
(929,607,cs),
(1103,607,o),
(1180,608,o),
(1487,611,cs),
(1502,612,o),
(1524,611,o),
(1547,625,cs),
(1548,625,o),
(1549,630,o),
(1551,630,c),
(1682,782,l),
(1682,782,o),
(1695,796,o),
(1695,806,cs),
(1695,814,o),
(1679,819,o),
(1648,819,cs),
(1558,819,o),
(1323,801,o),
(1285,801,cs),
(1282,801,ls),
(1281,801,l),
(1423,942,ls),
(1497,1015,o),
(1574,1093,o),
(1593,1119,c),
(1632,1159,o),
(1649,1198,o),
(1649,1234,cs)
);
}
);
width = 2358;
}
);
unicode = 178;
},
{
glyphname = threesuperior;
layers = (
{
layerId = m001;
shapes = (
{
closed = 1;
nodes = (
(942,963,o),
(854,1022,o),
(793,1049,c),
(847,1084,o),
(927,1148,o),
(927,1250,cs),
(927,1417,o),
(763,1485,o),
(558,1485,cs),
(464,1485,o),
(362,1471,o),
(263,1446,c),
(263,1259,l),
(310,1274,o),
(379,1290,o),
(439,1290,cs),
(485,1290,o),
(512,1248,o),
(512,1206,cs),
(512,1165,o),
(485,1124,o),
(425,1124,cs),
(351,1124,l),
(335,945,l),
(449,945,ls),
(497,945,o),
(520,907,o),
(520,868,cs),
(520,827,o),
(495,785,o),
(445,785,cs),
(391,785,o),
(325,799,o),
(269,816,c),
(268,604,l),
(331,571,o),
(446,541,o),
(560,541,cs),
(814,541,o),
(942,670,o),
(942,831,cs)
);
}
);
width = 2633;
}
);
unicode = 179;
},
{
glyphname = threesuperior;
lastChange = "2023-06-29 06:57:00 +0000";
layers = (
{
layerId = m001;
shapes = (
{
closed = 1;
nodes = (
(942,963,o),
(854,1022,o),
(793,1049,c),
(847,1084,o),
(927,1148,o),
(927,1250,cs),
(927,1417,o),
(763,1485,o),
(558,1485,cs),
(464,1485,o),
(362,1471,o),
(263,1446,c),
(263,1259,l),
(310,1274,o),
(379,1290,o),
(439,1290,cs),
(485,1290,o),
(512,1248,o),
(512,1206,cs),
(512,1165,o),
(485,1124,o),
(425,1124,cs),
(351,1124,l),
(335,945,l),
(449,945,ls),
(497,945,o),
(520,907,o),
(520,868,cs),
(520,827,o),
(495,785,o),
(445,785,cs),
(391,785,o),
(325,799,o),
(269,816,c),
(268,604,l),
(331,571,o),
(446,541,o),
(560,541,cs),
(814,541,o),
(942,670,o),
(942,831,cs)
);
}
);
width = 1183;
}
);
unicode = 179;
},
{
glyphname = foursuperior;
lastChange = "2023-06-29 06:57:00 +0000";
layers = (
{
layerId = m001;
shapes = (
{
closed = 1;
nodes = (
(793,1391,l),
(743,959,l),
(532,959,l)
);
},
{
closed = 1;
nodes = (
(1233,970,ls),
(1222,970,o),
(1195,969,o),
(1113,968,c),
(1129,1199,o),
(1143,1288,o),
(1158,1517,c),
(1158,1523,ls),
(1158,1540,o),
(1151,1543,o),
(1136,1543,cs),
(1129,1543,o),
(1122,1543,o),
(1112,1542,cs),
(728,1541,ls),
(679,1541,o),
(673,1535,o),
(665,1523,cs),
(161,790,l),
(153,783,o),
(152,777,o),
(152,774,cs),
(152,756,o),
(194,753,o),
(303,753,cs),
(369,753,o),
(509,755,o),
(718,755,c),
(702,582,ls),
(700,563,o),
(717,559,o),
(735,559,cs),
(773,559,o),
(1026,566,o),
(1051,574,c),
(1064,577,o),
(1067,585,o),
(1067,592,cs),
(1084,757,l),
(1257,757,l),
(1265,970,l)
);
}
);
width = 1441;
}
);
unicode = 8308;
},
{
glyphname = period;
layers = (
{
layerId = m001;
shapes = (
{
closed = 1;
nodes = (
(495,351,l),
(156,351,l),
(156,118,ls),
(156,46,o),
(156,17,o),
(158,-21,c),
(217,-21,ls),
(554,-21,l),
(558,56,l),
(558,348,l)
);
}
);
width = 728;
}
);
unicode = 46;
},
{
glyphname = comma;
layers = (
{
layerId = m001;
shapes = (
{
closed = 1;
nodes = (
(323,-331,o),
(545,-235,o),
(548,18,cs),
(552,347,l),
(143,347,l),
(129,-13,l),
(268,-13,l),
(258,-88,o),
(226,-158,o),
(129,-171,c),
(121,-324,l),
(139,-329,o),
(160,-331,o),
(182,-331,cs)
);
}
);
width = 652;
}
);
unicode = 44;
},
{
glyphname = colon;
layers = (
{
layerId = m001;
shapes = (
{
closed = 1;
nodes = (
(576,414,l),
(199,411,l),
(199,71,l),
(201,-1,l),
(261,-1,ls),
(371,-1,o),
(502,0,o),
(637,4,c),
(643,414,l)
);
},
{
closed = 1;
nodes = (
(576,1111,l),
(199,1108,l),
(199,768,l),
(201,696,l),
(261,696,ls),
(371,696,o),
(502,697,o),
(637,701,c),
(643,1111,l)
);
}
);
width = 820;
}
);
unicode = 58;
},
{
glyphname = semicolon;
layers = (
{
layerId = m001;
shapes = (
{
closed = 1;
nodes = (
(626,268,l),
(627,287,o),
(625,367,o),
(624,384,c),
(609,386,o),
(592,387,o),
(575,387,cs),
(467,387,o),
(309,386,o),
(200,386,c),
(201,332,o),
(197,93,o),
(197,22,cs),
(197,-35,l),
(416,-35,l),
(399,-89,o),
(296,-227,o),
(171,-262,c),
(171,-411,l),
(473,-359,o),
(627,-150,o),
(627,30,cs)
);
},
{
closed = 1;
nodes = (
(576,1111,l),
(199,1108,l),
(199,768,l),
(201,696,l),
(261,696,ls),
(371,696,o),
(502,697,o),
(637,701,c),
(643,1111,l)
);
}
);
width = 848;
}
);
unicode = 59;
},
{
glyphname = ellipsis;
layers = (
{
layerId = m001;
shapes = (
{
closed = 1;
nodes = (
(1248,-49,o),
(1251,-49,o),
(1259,-49,cs),
(1388,-49,o),
(1507,-47,o),
(1620,-46,c),
(1645,-43,o),
(1645,-30,o),
(1650,14,c),
(1678,328,l),
(1678,347,o),
(1669,352,o),
(1657,352,cs),
(1544,351,o),
(1409,350,o),
(1292,350,c),
(1268,346,o),
(1265,333,o),
(1263,289,cs),
(1246,0,o),
(1259,214,o),
(1248,-38,c),
(1248,-42,ls)
);
},
{
closed = 1;
nodes = (
(669,-49,o),
(672,-49,o),
(680,-49,cs),
(809,-49,o),
(928,-47,o),
(1041,-46,c),
(1066,-43,o),
(1066,-30,o),
(1071,14,c),
(1099,328,l),
(1099,347,o),
(1090,352,o),
(1078,352,cs),
(965,351,o),
(830,350,o),
(713,350,c),
(689,346,o),
(686,333,o),
(684,289,cs),
(667,0,o),
(680,214,o),
(669,-38,c),
(669,-42,ls)
);
},
{
closed = 1;
nodes = (
(90,-49,o),
(93,-49,o),
(101,-49,cs),
(230,-49,o),
(349,-47,o),
(462,-46,c),
(487,-43,o),
(487,-30,o),
(492,14,c),
(520,328,l),
(520,347,o),
(511,352,o),
(499,352,cs),
(386,351,o),
(251,350,o),
(134,350,c),
(110,346,o),
(107,333,o),
(105,289,cs),
(88,0,o),
(101,214,o),
(90,-38,c),
(90,-42,ls)
);
}
);
width = 1731;
}
);
unicode = 8230;
},
{
glyphname = exclam;
layers = (
{
layerId = m001;
shapes = (
{
closed = 1;
nodes = (
(735,-35,o),
(756,203,o),
(759,244,c),
(611,244,o),
(376,254,o),
(236,251,c),
(197,-157,l),
(384,-157,o),
(696,-160,o),
(723,-155,c)
);
},
{
closed = 1;
nodes = (
(909,1535,ls),
(699.588,1535,o),
(432,1532,o),
(352,1532,cs),
(333,1532,o),
(320,1524,o),
(319,1499,c),
(369,436,l),
(565,436,ls),
(612,436,o),
(658,436,o),
(705,435,c),
(1118,1535,l)
);
}
);
width = 1179;
}
);
unicode = 33;
},
{
glyphname = question;
layers = (
{
layerId = m001;
shapes = (
{
closed = 1;
nodes = (
(788,-49,o),
(837,-47,o),
(950,-46,c),
(1010,-46,l),
(1008,276,l),
(874,276,o),
(809,274,o),
(650,274,c),
(648,-38,ls),
(648,-49,o),
(648,-49,o),
(659,-49,cs)
);
},
{
closed = 1;
nodes = (
(973,929,o),
(861,749,o),
(609,603,c),
(758,403,l),
(1102,499,o),
(1463,750,o),
(1463,1074,cs),
(1463,1371,o),
(1224,1542,o),
(883,1542,cs),
(633,1542,o),
(229,1447,o),
(229,1072,cs),
(229,1030,o),
(250,962,o),
(274,926,c),
(356,942,l),
(679,1014,l),
(679,1023,o),
(662,1055,o),
(662,1090,cs),
(662,1161,o),
(739,1199,o),
(816,1199,cs),
(917,1199,o),
(973,1139,o),
(973,1053,cs)
);
}
);
width = 1531;
}
);
unicode = 63;
},
{
glyphname = periodcentered;
layers = (
{
layerId = m001;
shapes = (
{
closed = 1;
nodes = (
(156,804,o),
(159,804,o),
(167,804,cs),
(296,804,o),
(415,806,o),
(528,807,c),
(553,810,o),
(553,823,o),
(558,867,c),
(586,1181,l),
(586,1200,o),
(577,1205,o),
(565,1205,cs),
(452,1204,o),
(317,1203,o),
(200,1203,c),
(176,1199,o),
(173,1186,o),
(171,1142,cs),
(154,853,o),
(167,1067,o),
(156,815,c),
(156,811,ls)
);
}
);
width = 561;
}
);
unicode = 183;
},
{
glyphname = bullet;
layers = (
{
layerId = m001;
shapes = (
{
closed = 1;
nodes = (
(763,299,o),
(968,464,o),
(968,740,cs),
(968,944,o),
(814,1106,o),
(598,1106,cs),
(347,1106,o),
(132,937,o),
(132,685,cs),
(132,486,o),
(263,299,o),
(515,299,cs)
);
}
);
width = 977;
}
);
unicode = 8226;
},
{
glyphname = asterisk;
layers = (
{
layerId = m001;
shapes = (
{
closed = 1;
nodes = (
(975,144,o),
(971,148,o),
(968,149,c),
(984,149,o),
(982,150,o),
(988,205,cs),
(997,290,o),
(1017,354,o),
(1032,438,c),
(1317,251,l),
(1330,251,o),
(1341,256,o),
(1349,266,cs),
(1422,364,o),
(1472,432,o),
(1493,461,c),
(1504,497,o),
(1513,503,o),
(1513,507,c),
(1183,778,l),
(1523,1021,o),
(1530,1023,o),
(1530,1039,cs),
(1530,1041,ls),
(1530,1046,o),
(1476,1124,o),
(1351,1302,cs),
(1350,1303,o),
(1349,1303,o),
(1347,1303,cs),
(1346,1303,o),
(1345,1302,o),
(1344,1302,cs),
(1343,1302,o),
(1342,1303,o),
(1340,1303,cs),
(1310,1303,o),
(1192,1193,o),
(1081,1101,c),
(1127,1425,l),
(1127,1431,ls),
(1127,1448,o),
(1126,1463,o),
(1112,1463,c),
(1107,1462,o),
(1071,1462,o),
(1025,1462,cs),
(876,1462,o),
(775,1461,o),
(750,1460,c),
(748,1455,o),
(746,1450,o),
(746,1447,cs),
(696,1086,l),
(624,1139,o),
(441,1291,o),
(407,1291,cs),
(377,1291,o),
(335,1212,o),
(309,1172,cs),
(238,1065,o),
(218,1035,o),
(218,1028,cs),
(218,1015,o),
(320,945,o),
(564,778,c),
(236,507,l),
(236,504,o),
(245,495,o),
(255,461,c),
(269,440,o),
(321,388,o),
(386,315,c),
(393,305,o),
(404,300,o),
(418,300,cs),
(451,300,o),
(588,395,o),
(648,429,c),
(640,340,o),
(632,260,o),
(626,174,c),
(627,148,o),
(640,137,o),
(660,137,cs),
(664,137,l),
(818,131,o),
(899,123,o),
(940,123,cs),
(951,123,ls),
(965,123,o),
(975,124,o),
(975,138,cs)
);
}
);
width = 1683;
}
);
unicode = 42;
},
{
glyphname = numbersign;
layers = (
{
layerId = m001;
shapes = (
{
closed = 1;
nodes = (
(938,840,l),
(1179,839,l),
(1156,705,l),
(916,705,l)
);
},
{
closed = 1;
nodes = (
(100,456,l),
(368,455,l),
(307,12,l),
(799,17,l),
(871,453,l),
(1117,451,l),
(1061,7,l),
(1565,-2,l),
(1624,445,l),
(1915,445,l),
(1948,712,l),
(1670,712,l),
(1692,843,l),
(1950,842,l),
(1986,1088,l),
(1734,1088,l),
(1779,1461,l),
(1273,1461,l),
(1221,1087,l),
(979,1089,l),
(1024,1462,l),
(519,1462,l),
(467,1094,l),
(167,1097,l),
(137,840,l),
(423,837,l),
(407,715,l),
(132,715,l)
);
}
);
width = 2016;
}
);
unicode = 35;
},
{
glyphname = slash;
layers = (
{
layerId = m001;
shapes = (
{
closed = 1;
nodes = (
(257,-163,l),
(539,-218,l),
(615,-36,l),
(1239,1473,l),
(1291,1597,l),
(783,1639,l),
(727,1507,o),
(589,1189,o),
(512,1005,cs),
(356,632,o),
(238,332,o),
(100,2,c),
(85,-40,o),
(70,-79,o),
(55,-119,c)
);
}
);
width = 1280;
}
);
unicode = 47;
},
{
glyphname = backslash;
layers = (
{
layerId = m001;
shapes = (
{
closed = 1;
nodes = (
(554,1623,o),
(484,1628,o),
(399,1628,c),
(305,1617,o),
(168,1588,o),
(99,1588,c),
(171,1403,l),
(194,1351,o),
(217,1297,o),
(239,1244,cs),
(757,-10,l),
(779,-67,o),
(796,-121,o),
(822,-168,c),
(973,-168,o),
(1190,-137,o),
(1325,-119,c),
(1255,65,l),
(1101,440,o),
(940,837,o),
(769,1259,c),
(725,1363,o),
(680,1476,o),
(634,1595,c)
);
}
);
width = 1372;
}
);
unicode = 92;
},
{
glyphname = hyphen;
layers = (
{
layerId = m001;
shapes = (
{
closed = 1;
nodes = (
(227,526,l),
(381,526,l),
(512,526,o),
(980,532,o),
(1290,538,c),
(1301,588,o),
(1326,853,o),
(1326,881,c),
(1326,915,l),
(1056,907,o),
(557,897,o),
(290,887,c)
);
}
);
width = 1577;
}
);
unicode = 45;
},
{
glyphname = softhyphen;
lastChange = "2023-06-29 06:57:00 +0000";
layers = (
{
layerId = m001;
shapes = (
{
closed = 1;
nodes = (
(930,-12,o),
(944,-13,o),
(954,-13,cs),
(976,-13,o),
(979,-8,o),
(982,2,c),
(994,79,l),
(1007,144,o),
(1010,175,o),
(1010,181,cs),
(1010,206,o),
(986,209,o),
(964,209,cs),
(882,209,o),
(566,201,o),
(537,201,cs),
(179,189,l),
(176,190,o),
(172,190,o),
(169,190,cs),
(93,190,o),
(-3,38,o),
(-3,18,c),
(-5,14,o),
(-6,11,o),
(-6,9,cs),
(-6,-8,o),
(37,-12,o),
(138,-12,c),
(329,-8,o),
(468,-4,o),
(692,-4,cs),
(754,-4,o),
(818,-4,o),
(909,-10,cs)
);
}
);
width = 1042;
}
);
unicode = 173;
},
{
glyphname = endash;
layers = (
{
layerId = m001;
shapes = (
{
closed = 1;
nodes = (
(656,522,o),
(736,523,o),
(803,523,cs),
(925,523,ls),
(968,523,o),
(972,531,o),
(974,546,cs),
(983,613,ls),
(988,648,o),
(993,687,o),
(993,704,cs),
(993,729,o),
(965,739,o),
(945,739,cs),
(928,739,o),
(655,733,o),
(607,733,c),
(255,723,l),
(195,719,o),
(112,573,o),
(112,541,cs),
(112,521,o),
(155,517,o),
(259,517,c),
(604,522,ls)
);
}
);
width = 1007;
}
);
unicode = 8211;
},
{
glyphname = emdash;
layers = (
{
layerId = m001;
shapes = (
{
closed = 1;
nodes = (
(783,522,o),
(922,524,o),
(1046,524,cs),
(1284,524,ls),
(1327,524,o),
(1331,532,o),
(1333,547,cs),
(1342,614,ls),
(1347,649,o),
(1352,688,o),
(1352,705,cs),
(1352,730,o),
(1324,740,o),
(1304,740,cs),
(1288,740,o),
(781,733,o),
(734,733,cs),
(255,724,l),
(195,720,o),
(112,574,o),
(112,542,cs),
(112,524.318,o),
(149.241,517.895,o),
(238.232,517.895,cs),
(244.865,517.895,o),
(251.786,517.931,o),
(259,518,cs),
(731,522,ls)
);
}
);
width = 1366;
}
);
unicode = 8212;
},
{
glyphname = underscore;
layers = (
{
layerId = m001;
shapes = (
{
closed = 1;
nodes = (
(993,204,l),
(911,204,o),
(566,201,o),
(537,201,cs),
(179,201,l),
(176,202,o),
(12,202,o),
(9,202,c),
(-6,-10,l),
(982,-13,l)
);
}
);
width = 1042;
}
);
unicode = 95;
},
{
glyphname = parenleft;
layers = (
{
layerId = m001;
shapes = (
{
closed = 1;
nodes = (
(682,159,o),
(624,357,o),
(624,577,cs),
(624,866,o),
(724,1195,o),
(874,1226,c),
(876,1534,l),
(320,1512,o),
(92,1104,o),
(92,625,cs),
(92,-34,o),
(622,-175,o),
(818,-175,c),
(818,132,l)
);
}
);
width = 953;
}
);
unicode = 40;
},
{
glyphname = parenright;
layers = (
{
layerId = m001;
shapes = (
{
closed = 1;
nodes = (
(208,-180,o),
(252,-173,o),
(295,-160,c),
(714,-66,o),
(909,319,o),
(909,706,cs),
(909,849,o),
(880,1005,o),
(811,1138,c),
(711,1340,o),
(504,1524,o),
(205,1534,c),
(197,1500,o),
(165,1393,o),
(165,1221,c),
(214,1214,o),
(255,1172,o),
(285,1111,c),
(380,1029,o),
(435,863,o),
(435,689,cs),
(435,436,o),
(346,173,o),
(157,146,c),
(148,113,o),
(146,76,o),
(146,11,cs),
(146,-38,o),
(146,-150,o),
(157,-180,c)
);
}
);
width = 955;
}
);
unicode = 41;
},
{
glyphname = braceleft;
layers = (
{
layerId = m001;
shapes = (
{
closed = 1;
nodes = (
(1040,88,l),
(865,88,o),
(865,221,o),
(865,460,cs),
(865,641,o),
(780,719,o),
(648,761,c),
(1001,785,o),
(656,1302,o),
(1072,1302,c),
(1039,1556,l),
(1032,1557,o),
(731,1563,o),
(699,1563,cs),
(115,1563,o),
(535,890,o),
(163,890,c),
(164,592,l),
(328,592,o),
(332,455,o),
(332,301,cs),
(332,278,ls),
(332,85,o),
(338,-126,o),
(648,-126,cs),
(756,-126,o),
(1009,-116,o),
(1031,-111,c)
);
}
);
width = 1121;
}
);
unicode = 123;
},
{
glyphname = braceright;
layers = (
{
layerId = m001;
shapes = (
{
closed = 1;
nodes = (
(147,1349,l),
(322,1349,o),
(322,1216,o),
(322,977,cs),
(322,796,o),
(377,718,o),
(539,696,c),
(136,642,o),
(531,135,o),
(115,135,c),
(148,-119,l),
(155,-120,o),
(456,-126,o),
(488,-126,cs),
(1072,-126,o),
(652,547,o),
(1024,547,c),
(1023,845,l),
(859,845,o),
(855,982,o),
(855,1136,cs),
(855,1159,ls),
(855,1352,o),
(849,1563,o),
(539,1563,cs),
(431,1563,o),
(178,1553,o),
(156,1548,c)
);
}
);
width = 1121;
}
);
unicode = 125;
},
{
glyphname = bracketleft;
layers = (
{
layerId = m001;
shapes = (
{
closed = 1;
nodes = (
(660,-201,o),
(893,-201,c),
(1285,-199,l),
(1288,-110,o),
(1291,79,o),
(1291,167,c),
(1201,171,o),
(1107,171,o),
(1013,171,cs),
(976,171,o),
(938,171,o),
(901,171,c),
(911,641,l),
(923,846,o),
(933,1072,o),
(936,1196,c),
(1349,1206,l),
(1360,1571,l),
(384,1571,ls),
(199,1569,l),
(184,802,l),
(172,473,o),
(161,112,o),
(161,-45,cs),
(161,-94,o),
(161,-142,o),
(167,-186,c),
(397,-198,o)
);
}
);
width = 1424;
}
);
unicode = 91;
},
{
glyphname = bracketright;
layers = (
{
layerId = m001;
shapes = (
{
closed = 1;
nodes = (
(364,-189,o),
(480,-187,o),
(592,-185,c),
(1088,-181,ls),
(1269,-181,l),
(1288,576,ls),
(1296,881,o),
(1314,1232,o),
(1314,1407,cs),
(1314,1467,o),
(1314,1530,o),
(1307,1584,c),
(182,1584,ls),
(182,1221,l),
(573,1219,l),
(565,859,o),
(546,426,o),
(545,194,c),
(133,176,l),
(128,9,l),
(130,-185,l),
(296,-189,l)
);
}
);
width = 1425;
}
);
unicode = 93;
},
{
glyphname = quotesinglbase;
layers = (
{
layerId = m001;
shapes = (
{
closed = 1;
nodes = (
(323,-331,o),
(545,-235,o),
(548,18,cs),
(552,347,l),
(123,347,l),
(129,-13,l),
(268,-13,l),
(258,-88,o),
(226,-158,o),
(129,-171,c),
(121,-324,l),
(139,-329,o),
(160,-331,o),
(182,-331,cs)
);
}
);
width = 652;
}
);
unicode = 8218;
},
{
glyphname = quotedblleft;
layers = (
{
layerId = m001;
shapes = (
{
closed = 1;
nodes = (
(419,1576,o),
(197,1480,o),
(194,1227,cs),
(190,898,l),
(599,898,l),
(613,1258,l),
(474,1258,l),
(484,1333,o),
(516,1403,o),
(613,1416,c),
(621,1569,l),
(603,1574,o),
(582,1576,o),
(560,1576,cs)
);
},
{
closed = 1;
nodes = (
(1019,1576,o),
(797,1480,o),
(794,1227,cs),
(790,898,l),
(1199,898,l),
(1213,1258,l),
(1074,1258,l),
(1084,1333,o),
(1116,1403,o),
(1213,1416,c),
(1221,1569,l),
(1203,1574,o),
(1182,1576,o),
(1160,1576,cs)
);
}
);
width = 1373;
}
);
unicode = 8220;
},
{
glyphname = quotedblright;
layers = (
{
layerId = m001;
shapes = (
{
closed = 1;
nodes = (
(992,898,o),
(1214,994,o),
(1217,1247,cs),
(1221,1576,l),
(812,1576,l),
(798,1216,l),
(937,1216,l),
(927,1141,o),
(895,1071,o),
(798,1058,c),
(790,905,l),
(808,900,o),
(829,898,o),
(851,898,cs)
);
},
{
closed = 1;
nodes = (
(392,898,o),
(614,994,o),
(617,1247,cs),
(621,1576,l),
(212,1576,l),
(198,1216,l),
(337,1216,l),
(327,1141,o),
(295,1071,o),
(198,1058,c),
(190,905,l),
(208,900,o),
(229,898,o),
(251,898,cs)
);
}
);
width = 1373;
}
);
unicode = 8221;
},
{
glyphname = quoteleft;
layers = (
{
layerId = m001;
shapes = (
{
closed = 1;
nodes = (
(421,1592,o),
(199,1496,o),
(196,1243,cs),
(192,914,l),
(601,914,l),
(615,1274,l),
(476,1274,l),
(486,1349,o),
(518,1419,o),
(615,1432,c),
(623,1585,l),
(605,1590,o),
(584,1592,o),
(562,1592,cs)
);
}
);
width = 771;
}
);
unicode = 8216;
},
{
glyphname = quoteright;
layers = (
{
layerId = m001;
shapes = (
{
closed = 1;
nodes = (
(394,914,o),
(616,1010,o),
(619,1263,cs),
(623,1592,l),
(214,1592,l),
(200,1232,l),
(339,1232,l),
(329,1157,o),
(297,1087,o),
(200,1074,c),
(192,921,l),
(210,916,o),
(231,914,o),
(253,914,cs)
);
}
);
width = 771;
}
);
unicode = 8217;
},
{
glyphname = guillemetleft;
lastChange = "2023-06-29 06:57:00 +0000";
layers = (
{
layerId = m001;
shapes = (
{
closed = 1;
nodes = (
(949,825,o),
(946,815,o),
(944,806,cs),
(944,805,o),
(945,804,o),
(945,802,cs),
(951,712,o),
(951,629,o),
(951,549,cs),
(951,489,ls),
(951,461,o),
(959,453,o),
(995,432,c),
(1535,53,l),
(1551,45,o),
(1558,41,o),
(1567,41,cs),
(1578,41,o),
(1585,47,o),
(1589,60,cs),
(1705,368,ls),
(1707,373,o),
(1708,378,o),
(1708,380,cs),
(1708,384,o),
(1705,389,o),
(1701,392,cs),
(1645,426,o),
(1361,597,o),
(1324,621,c),
(1701,781,l),
(1708,782,o),
(1712,788,o),
(1712,804,c),
(1690,1123,ls),
(1689,1133,o),
(1684,1138,o),
(1677,1138,cs),
(1669,1138,o),
(1657,1135,o),
(1639,1131,c),
(1400,1022,o),
(1071,889,o),
(956,825,c)
);
},
{
closed = 1;
nodes = (
(113,825,o),
(110,815,o),
(108,806,cs),
(108,805,o),
(109,804,o),
(109,802,cs),
(114,712,o),
(115,629,o),
(115,549,cs),
(115,489,ls),
(115,461,o),
(122,453,o),
(159,432,c),
(699,53,l),
(715,45,o),
(722,41,o),
(731,41,cs),
(743,41,o),
(750,47,o),
(754,60,cs),
(869,368,ls),
(871,373,o),
(872,378,o),
(872,380,cs),
(872,384,o),
(869,389,o),
(865,392,cs),
(809,426,o),
(524,597,o),
(489,621,c),
(865,781,l),
(872,782,o),
(876,788,o),
(876,804,c),
(855,1123,l),
(853,1133,o),
(849,1138,o),
(842,1138,cs),
(833,1138,o),
(820,1135,o),
(803,1131,c),
(563,1022,o),
(235,889,o),
(120,825,c)
);
}
);
width = 2032;
}
);
unicode = 171;
},
{
glyphname = guillemetright;
lastChange = "2023-06-29 06:57:00 +0000";
layers = (
{
layerId = m001;
shapes = (
{
closed = 1;
nodes = (
(1022,852,o),
(1018,861,o),
(1010,861,c),
(877,925,o),
(567,1070,o),
(287,1178,c),
(266,1184,o),
(251,1187,o),
(242,1187,cs),
(233,1187,o),
(228,1182,o),
(226,1171,cs),
(187,850,l),
(187,835,o),
(191,828,o),
(199,827,c),
(579,655,l),
(534,631,o),
(252,470,o),
(183,434,cs),
(176,431,o),
(175,428,o),
(175,423,cs),
(175,419,o),
(176,415,o),
(177,411,cs),
(302,100,ls),
(307,87,o),
(312,81,o),
(327,81,cs),
(338,81,o),
(346,85,o),
(365,93,c),
(961,465,l),
(1004,486,o),
(1015,494,o),
(1015,521,cs),
(1022,837,ls),
(1022,840,o),
(1023,841,o),
(1023,842,cs)
);
},
{
closed = 1;
nodes = (
(1945,822,o),
(1943,853,o),
(1933,859,c),
(1800,923,o),
(1527,1060,o),
(1247,1168,c),
(1226,1174,o),
(1211,1177,o),
(1202,1177,cs),
(1193,1177,o),
(1188,1172,o),
(1186,1161,cs),
(1147,840,l),
(1147,825,o),
(1151,818,o),
(1159,817,c),
(1489,655,l),
(1444,631,o),
(1222,460,o),
(1153,424,cs),
(1146,421,o),
(1145,418,o),
(1145,413,cs),
(1145,409,o),
(1146,405,o),
(1147,401,cs),
(1272,90,ls),
(1277,77,o),
(1282,71,o),
(1297,71,cs),
(1308,71,o),
(1316,75,o),
(1335,83,c),
(1891,475,l),
(1932,500,o),
(1945,514,o),
(1945,541,cs),
(1945,807,ls),
(1945,810,o),
(1946,811,o),
(1946,812,cs)
);
}
);
width = 2011;
}
);
unicode = 187;
},
{
glyphname = guilsinglleft;
layers = (
{
layerId = m001;
shapes = (
{
closed = 1;
nodes = (
(108.129,761,o),
(104.374,751.618,o),
(103,742,cs),
(103,741,o),
(104,740,o),
(104,737,cs),
(116,625,o),
(120,522,o),
(124,421,c),
(124,394,o),
(135,386,o),
(178,365,c),
(834,-17,l),
(853,-25,o),
(861,-29,o),
(872,-29,cs),
(884,-29,o),
(892,-23,o),
(897,-10,cs),
(934,94,o),
(966,201,o),
(1022,301,c),
(1023,305,o),
(1024,309,o),
(1024,313,cs),
(1024,317,o),
(1021,321,o),
(1016,324,cs),
(947,360,o),
(605,531,o),
(560,555,c),
(1000,717,l),
(1008,718,o),
(1012,725,o),
(1012,740,c),
(988,840,o),
(981,958,o),
(973,1061,c),
(971,1072,o),
(966,1077,o),
(957,1077,cs),
(948,1077,o),
(933,1074,o),
(912,1068,c),
(632,960,o),
(249,825,o),
(116,761,c)
);
}
);
width = 1050;
}
);
unicode = 8249;
},
{
glyphname = guilsinglright;
layers = (
{
layerId = m001;
shapes = (
{
closed = 1;
nodes = (
(1034.63,751.617,o),
(1030.9,761,o),
(1023,761,c),
(890,825,o),
(507,960,o),
(227,1068,c),
(206,1074,o),
(191,1077,o),
(182,1077,cs),
(173,1077,o),
(168,1072,o),
(166,1061,c),
(158,958,o),
(151,840,o),
(127,740,c),
(127,725,o),
(131,718,o),
(139,717,c),
(579,555,l),
(534,531,o),
(192,360,o),
(123,324,cs),
(116,321,o),
(115,318,o),
(115,313,cs),
(115,309,o),
(116,305,o),
(117,301,cs),
(169,201,o),
(203,94,o),
(242,-10,cs),
(247,-23,o),
(252,-29,o),
(267,-29,cs),
(278,-29,o),
(286,-25,o),
(305,-17,c),
(961,365,l),
(1004,386,o),
(1015,394,o),
(1015,421,c),
(1019,522,o),
(1023,625,o),
(1035,737,cs),
(1035,740,o),
(1036,741,o),
(1036,742,cs)
);
}
);
width = 1021;
}
);
unicode = 8250;
},
{
glyphname = quotedbl;
layers = (
{
layerId = m001;
shapes = (
{
closed = 1;
nodes = (
(753,771,o),
(754,721,o),
(774,721,cs),
(854,721,o),
(918,723,o),
(990,723,cs),
(1015,723,o),
(1015,740,o),
(1026,783,cs),
(1182,1420,l),
(1182,1426,ls),
(1182,1445,o),
(1173,1450,o),
(1161,1450,cs),
(1038,1450,o),
(884,1448,o),
(756,1448,c),
(733,1444,o),
(727,1435,o),
(727,1400,cs),
(727,1387,l),
(736,1186,o),
(744,973,o),
(753,785,cs)
);
},
{
closed = 1;
nodes = (
(200,771,o),
(201,721,o),
(221,721,cs),
(301,721,o),
(365,723,o),
(437,723,cs),
(462,723,o),
(462,740,o),
(473,783,cs),
(629,1420,l),
(629,1426,ls),
(629,1445,o),
(620,1450,o),
(608,1450,cs),
(485,1450,o),
(331,1448,o),
(203,1448,c),
(180,1444,o),
(174,1435,o),
(174,1400,cs),
(174,1387,l),
(183,1186,o),
(191,973,o),
(200,785,cs)
);
}
);
width = 1196;
}
);
unicode = 34;
},
{
glyphname = quotesingle;
layers = (
{
layerId = m001;
shapes = (
{
closed = 1;
nodes = (
(200,770,o),
(201,720,o),
(221,720,cs),
(301,720,o),
(365,722,o),
(437,722,cs),
(462,722,o),
(462,739,o),
(473,782,cs),
(629,1419,l),
(629,1425,ls),
(629,1444,o),
(620,1449,o),
(608,1449,cs),
(485,1449,o),
(331,1447,o),
(203,1447,c),
(180,1443,o),
(174,1434,o),
(174,1399,cs),
(174,1386,l),
(183,1185,o),
(191,972,o),
(200,784,cs)
);
}
);
width = 626;
}
);
unicode = 39;
},
{
glyphname = florin;
layers = (
{
layerId = m001;
shapes = (
{
closed = 1;
nodes = (
(247,162,o),
(245,-58,o),
(101,-58,cs),
(56,-58,o),
(8,-42,o),
(-39,-23,c),
(-54,-23,o),
(-64,-24,o),
(-72,-13,c),
(-101,-13,o),
(-95,-56,o),
(-175,-214,cs),
(-180,-223,o),
(-182,-230,o),
(-182,-235,cs),
(-182,-271,o),
(99,-347,o),
(177,-347,cs),
(460,-347,o),
(584,-196,o),
(627,120,cs),
(659,357,o),
(680,568,o),
(705,771,c),
(878,771,l),
(909,774,o),
(914,782,o),
(923,802,cs),
(959,883,ls),
(989,950,o),
(1004,993,o),
(1005,1000,c),
(1005,1017,o),
(993,1024,o),
(982,1024,cs),
(721,1024,l),
(729,1092,o),
(736,1164,o),
(751,1224,cs),
(776,1328,o),
(820,1358,o),
(880,1358,cs),
(923,1358,o),
(971,1341,o),
(1018,1324,cs),
(1033,1318,o),
(1039,1314,o),
(1047,1314,cs),
(1079,1314,o),
(1068,1350,o),
(1151,1511,cs),
(1156,1520,o),
(1158,1527,o),
(1158,1532,cs),
(1158,1567,o),
(882,1642,o),
(805,1642,cs),
(533,1642,o),
(398,1492,o),
(363,1183,c),
(343,1024,l),
(221,1024,l),
(209,1008,o),
(74,806,o),
(74,791,cs),
(74,772,o),
(104,768,o),
(176,768,cs),
(309,768,l),
(280,502,o),
(266,306,o),
(263,282,cs)
);
}
);
width = 918;
}
);
unicode = 402;
},
{
glyphname = at;
layers = (
{
layerId = m001;
shapes = (
{
closed = 1;
nodes = (
(1669,212,o),
(1833,457,o),
(1833,737,cs),
(1833,1178,o),
(1537,1468,o),
(1109,1468,cs),
(597,1468,o),
(132,1116,o),
(132,579,cs),
(132,234,o),
(376.118,-176,o),
(1022,-176,c),
(1080,0,l),
(677,0,o),
(388,241,o),
(388,569,cs),
(388,944,o),
(655,1271,o),
(1080,1271,cs),
(1420,1271,o),
(1614,1075,o),
(1614,738,cs),
(1614,466,o),
(1514,367,o),
(1432,367,cs),
(1376,367,o),
(1328,415,o),
(1328,485,cs),
(1328,494,o),
(1328,544,o),
(1329,551,cs),
(1395,1033,l),
(1177,1043,l),
(1138,957,l),
(1115,1016,o),
(1045,1051,o),
(985,1051,cs),
(780,1051,o),
(600,867,o),
(588,599,cs),
(588,577,ls),
(588,361,o),
(731,256,o),
(885,256,cs),
(950,256,o),
(1058,309,o),
(1102,422,c),
(1147,255,o),
(1277,226,o),
(1390,222,cs)
);
},
{
closed = 1;
nodes = (
(1027,457,o),
(965,442,o),
(941,442,cs),
(843,442,o),
(803,518,o),
(803,606,cs),
(803,727,o),
(878,869,o),
(985,869,cs),
(1022,869,o),
(1086,843,o),
(1106,824,c),
(1060,480,l)
);
}
);
width = 1951;
}
);
unicode = 64;
},
{
glyphname = ampersand;
layers = (
{
layerId = m001;
shapes = (
{
closed = 1;
nodes = (
(1611,-61,l),
(1664,9,o),
(1841,274,o),
(1841,276,c),
(1660,394,l),
(1902,599,l),
(1718,826,l),
(1609,731,o),
(1484,662,o),
(1377,584,c),
(1122,756,l),
(1353,901,o),
(1443,1039,o),
(1443,1154,cs),
(1443,1342,o),
(1203,1470,o),
(952,1470,cs),
(606,1470,o),
(399,1298,o),
(399,1088,cs),
(399,979,o),
(455,859,o),
(577,748,c),
(171,556,o),
(144,381,o),
(144,294,cs),
(144,69,o),
(383,-40,o),
(620,-40,cs),
(870,-40,o),
(1071,0,o),
(1299,143,c)
);
},
{
closed = 1;
nodes = (
(731,274,o),
(693,322,o),
(693,378,cs),
(693,432,o),
(728,494,o),
(793,531,c),
(1031,356,l),
(937,297,o),
(863,274,o),
(809,274,cs)
);
},
{
closed = 1;
nodes = (
(1016,1221,o),
(1037,1191,o),
(1037,1155,cs),
(1037,1116,o),
(1001,1035,o),
(894,967,c),
(857,995,o),
(841,1050,o),
(841,1096,cs),
(841,1155,o),
(870,1221,o),
(966,1221,cs)
);
}
);
width = 1967;
}
);
unicode = 38;
},
{
glyphname = paragraph;
layers = (
{
layerId = m001;
shapes = (
{
closed = 1;
nodes = (
(810,305,l),
(826,1173,l),
(943,1166,l),
(900,-75,l),
(1248,-71,l),
(1251,15,o),
(1258,166,o),
(1260,296,c),
(1269,537,l),
(1281,748,o),
(1275,1040,o),
(1283,1167,c),
(1360,1163,o),
(1431,1161,o),
(1456,1161,c),
(1456,1161,o),
(1451,1412,o),
(1451,1412,c),
(1356,1420,o),
(936,1441,o),
(723,1446,cs),
(695,1446,ls),
(397,1446,o),
(77,1357,o),
(77,1085,cs),
(77,1071,o),
(78,1056,o),
(80,1041,cs),
(100,865,o),
(250,739,o),
(473,669,c),
(451,-61,ls),
(450,-62,o),
(450,-66,o),
(450,-70,c),
(800,-62,l)
);
}
);
width = 1486;
}
);
unicode = 182;
},
{
glyphname = section;
layers = (
{
layerId = m001;
shapes = (
{
closed = 1;
nodes = (
(1362,320,o),
(1272,438,o),
(1194,484,c),
(1389,521,o),
(1445,593,o),
(1445,718,cs),
(1445,944,o),
(1215,981,o),
(775,1046,cs),
(694,1058,o),
(651,1095,o),
(651,1130,cs),
(651,1165,o),
(695,1197,o),
(788,1197,cs),
(977,1197,o),
(1255,1168,o),
(1343,1149,c),
(1395,1411,l),
(1215,1458,o),
(999,1491,o),
(798,1491,cs),
(453,1491,o),
(152,1395,o),
(152,1113,cs),
(152,1000,o),
(213,893,o),
(280,845,c),
(190,802,o),
(149,709,o),
(149,624,cs),
(149,615,o),
(150,605,o),
(151,596,cs),
(172,401,o),
(372,348,o),
(775,291,cs),
(868,278,o),
(913,245,o),
(913,211,cs),
(913,168,o),
(840,141,o),
(703,141,cs),
(571,141,o),
(378,166,o),
(135,228,c),
(64,-68,l),
(216,-136,o),
(422,-165,o),
(613,-165,cs),
(1221,-165,o),
(1362,13,o),
(1362,210,cs)
);
},
{
closed = 1;
nodes = (
(555,728,o),
(612,771,o),
(613,771,cs),
(786,742,ls),
(888,725,o),
(952,707,o),
(952,677,cs),
(952,642,o),
(910,609,o),
(882,609,cs),
(878,609,ls),
(746,627,o),
(555,644,o),
(555,686,cs)
);
}
);
width = 1475;
}
);
unicode = 167;
},
{
glyphname = copyright;
layers = (
{
layerId = m001;
shapes = (
{
closed = 1;
nodes = (
(1333,293,o),
(1326,401,o),
(1322,464,c),
(1307,464,l),
(1258,436,o),
(1201,421,o),
(1145,421,cs),
(1019,421,o),
(899,495,o),
(888,659,c),
(878,824,o),
(963,945,o),
(1105,945,cs),
(1223,945,o),
(1305,888,o),
(1335,870,c),
(1359,870,l),
(1355,934,o),
(1336,1059,o),
(1334,1085,c),
(1334,1090,l),
(1295,1122,o),
(1217,1167,o),
(1064,1167,cs),
(776,1167,o),
(576,937,o),
(594,646,cs),
(611,380,o),
(840,217,o),
(1072,217,cs),
(1161,217,o),
(1251,242,o),
(1330,293,c)
);
},
{
closed = 1;
nodes = (
(624,79,o),
(397,346,o),
(384,652,cs),
(384,661,o),
(383,671,o),
(383,680,cs),
(383,1040,o),
(702,1277,o),
(1085,1277,cs),
(1428,1277,o),
(1679,1034,o),
(1692,730,cs),
(1692,720,o),
(1693,710,o),
(1693,700,cs),
(1693,326,o),
(1380,79,o),
(983,79,cs)
);
},
{
closed = 1;
nodes = (
(1491,-84,o),
(1910,236,o),
(1910,720,cs),
(1910,732,o),
(1910,745,o),
(1909,757,cs),
(1891,1150,o),
(1556,1464,o),
(1098,1464,cs),
(586,1464,o),
(158,1157,o),
(158,690,cs),
(158,679,o),
(158,667,o),
(159,655,cs),
(177,261,o),
(483,-84,o),
(960,-84,cs)
);
}
);
width = 2072;
}
);
unicode = 169;
},
{
glyphname = registered;
layers = (
{
layerId = m001;
shapes = (
{
closed = 1;
nodes = (
(1000,973,l),
(1020,976,o),
(1037,979,o),
(1063,979,cs),
(1139,979,o),
(1179,946,o),
(1182,879,cs),
(1185,821,o),
(1077,729,o),
(984,729,c)
);
},
{
closed = 1;
nodes = (
(1254,251,o),
(1264,251,o),
(1273,258,c),
(1354,296,o),
(1398,312,o),
(1439,328,cs),
(1448,331,o),
(1466,338,o),
(1483,346,c),
(1296,607,o),
(1231,686,o),
(1231,689,c),
(1253,701,o),
(1444,771,o),
(1438,909,cs),
(1430,1082,o),
(1249,1141,o),
(1065,1141,cs),
(932,1141,o),
(825,1126,o),
(735,1110,c),
(733,1053,o),
(726,945,o),
(726,944,cs),
(715,714,o),
(696,363,o),
(699,289,cs),
(700,274,o),
(712,270,o),
(724,270,cs),
(729,270,o),
(916,324,o),
(951,339,cs),
(960,342,o),
(960,350,o),
(961,357,cs),
(979,658,l),
(1194,293,ls),
(1200,281,o),
(1212,251,o),
(1246,251,cs)
);
},
{
closed = 1;
nodes = (
(624,79,o),
(397,346,o),
(384,652,cs),
(367,1028,o),
(692,1277,o),
(1085,1277,cs),
(1428,1277,o),
(1679,1034,o),
(1692,730,cs),
(1709,339,o),
(1390,79,o),
(983,79,cs)
);
},
{
closed = 1;
nodes = (
(1504,-84,o),
(1931,252,o),
(1909,757,cs),
(1891,1150,o),
(1556,1464,o),
(1098,1464,cs),
(573,1464,o),
(137,1142,o),
(159,655,cs),
(177,261,o),
(483,-84,o),
(960,-84,cs)
);
}
);
width = 2071;
}
);
unicode = 174;
},
{
glyphname = trademark;
layers = (
{
layerId = m001;
shapes = (
{
closed = 1;
nodes = (
(786,487,o),
(786,496,o),
(787,503,cs),
(828,903,l),
(846,1059,o),
(856,1126,o),
(867,1217,c),
(1074,1217,ls),
(1092,1217,o),
(1186,1217,o),
(1197,1216,c),
(1219,1459,l),
(1219,1461,o),
(1220,1461,o),
(1220,1465,c),
(240,1464,l),
(203,1239,l),
(203,1235,ls),
(203,1229,o),
(205,1219,o),
(217,1219,cs),
(510,1217,l),
(440,494,l),
(440,492,ls),
(440,474,o),
(456,469,o),
(472,469,cs),
(773,482,l)
);
},
{
closed = 1;
nodes = (
(1854,1043,l),
(1679,1440,l),
(1679,1440,o),
(1388,1451,o),
(1388,1451,c),
(1199,508,l),
(1199,506,o),
(1198,505,o),
(1198,504,cs),
(1198,493,o),
(1211,489,o),
(1216,487,c),
(1476,476,l),
(1487,476,o),
(1492,478,o),
(1494,483,c),
(1585,979,l),
(1778,604,ls),
(1783,587,o),
(1797,574,o),
(1817,574,cs),
(1836,574,o),
(1851,584,o),
(1868,604,c),
(2092,980,l),
(2177,498,l),
(2182,479,o),
(2193,474,o),
(2208,474,cs),
(2222,474,o),
(2495,494,o),
(2502,511,cs),
(2509,532,l),
(2377,1412,ls),
(2374,1436,o),
(2361,1448,o),
(2344,1448,cs),
(2338,1448,o),
(2335,1447,o),
(2328,1447,c),
(2066,1446,l)
);
}
);
width = 2663;
}
);
unicode = 8482;
},
{
glyphname = degree;
layers = (
{
layerId = m001;
shapes = (
{
closed = 1;
nodes = (
(758,911.579,o),
(694.553,796,o),
(557,796,c),
(441,799,o),
(411,911,o),
(411,994,cs),
(411,1100,o),
(479,1214,o),
(619,1214,cs),
(725,1214,o),
(758,1107,o),
(758,1026,cs)
);
},
{
closed = 1;
nodes = (
(873,558,o),
(1050,798,o),
(1050,1035,cs),
(1050,1284,o),
(860,1448,o),
(616,1448,cs),
(340,1448,o),
(131,1239,o),
(131,990,cs),
(131,717,o),
(330,558,o),
(587,558,cs)
);
}
);
width = 1007;
}
);
unicode = 176;
},
{
glyphname = bar;
layers = (
{
layerId = m001;
shapes = (
{
closed = 1;
nodes = (
(131,14,o),
(121,-91,c),
(121,-97,ls),
(121,-97,o),
(462,-109,o),
(462,-109,c),
(462,-109,o),
(612,1516,o),
(612,1516,c),
(269,1532,l),
(252,1292,o)
);
}
);
width = 595;
}
);
unicode = 124;
},
{
glyphname = brokenbar;
layers = (
{
layerId = m001;
shapes = (
{
closed = 1;
nodes = (
(447,-15,l),
(486,-13,l),
(486,26,l),
(505,667,l),
(494,667,l),
(154,668,l),
(154,612,l),
(129,-16,l)
);
},
{
closed = 1;
nodes = (
(477,894,l),
(516,896,l),
(516,935,l),
(535,1576,l),
(524,1576,l),
(184,1577,l),
(184,1521,l),
(159,893,l)
);
}
);
width = 725;
}
);
unicode = 166;
},
{
glyphname = dagger;
layers = (
{
layerId = m001;
shapes = (
{
closed = 1;
nodes = (
(858,759,l),
(967,760,o),
(1133,758,o),
(1133,759,c),
(1142,1031,l),
(1114,1031,o),
(978,1029,o),
(867,1028,c),
(886,1465,l),
(423,1462,l),
(422,1394,o),
(412,1211,o),
(405,1024,c),
(399,1024,l),
(348,1023,o),
(314,1025,o),
(314,1024,c),
(123,1024,l),
(116,758,l),
(396,757,l),
(366,10,l),
(367,4,ls),
(828,0,l)
);
}
);
width = 1212;
}
);
unicode = 8224;
},
{
glyphname = daggerdbl;
layers = (
{
layerId = m001;
shapes = (
{
closed = 1;
nodes = (
(840,291,l),
(989,291,o),
(1115,292,o),
(1115,292,c),
(1124,564,l),
(1096,564,o),
(961,562,o),
(850,561,c),
(858,759,l),
(967,760,o),
(1133,758,o),
(1133,759,c),
(1142,1031,l),
(1114,1031,o),
(978,1029,o),
(867,1028,c),
(886,1465,l),
(423,1462,l),
(422,1394,o),
(412,1211,o),
(405,1024,c),
(399,1024,l),
(348,1023,o),
(314,1025,o),
(314,1024,c),
(123,1024,l),
(116,758,l),
(396,757,l),
(388,557,l),
(381,557,l),
(105,557,l),
(98,291,l),
(377,290,l),
(366,10,l),
(367,4,ls),
(828,0,l)
);
}
);
width = 1212;
}
);
unicode = 8225;
},
{
glyphname = cent;
layers = (
{
layerId = m001;
shapes = (
{
closed = 1;
nodes = (
(1082,-245,l),
(1175,1244,l),
(1018,1244,l),
(932,-242,l)
);
},
{
ref = c;
}
);
width = 1613;
}
);
unicode = 162;
},
{
glyphname = currency;
layers = (
{
layerId = m001;
shapes = (
{
closed = 1;
nodes = (
(983,972,o),
(983,831,cs),
(983,685,o),
(887,536,o),
(695,536,cs),
(514,536,o),
(426,672,o),
(426,812,cs),
(426,959,o),
(524,1110,o),
(713,1110,cs),
(894,1110,o)
);
},
{
closed = 1;
nodes = (
(513,358,o),
(600,337,o),
(694,337,cs),
(785,337,o),
(883,357,o),
(963,408,c),
(1123,268,l),
(1262,438,l),
(1133,555,l),
(1193,626,o),
(1223,724,o),
(1223,821,cs),
(1223,920,o),
(1192,1019,o),
(1131,1087,c),
(1276,1253,l),
(1097,1404,l),
(952,1243,l),
(882,1278,o),
(799,1297,o),
(713,1297,cs),
(635,1297,o),
(555,1281,o),
(482,1247,c),
(352,1394,l),
(163,1247,l),
(290,1105,l),
(219,1018,o),
(183,915,o),
(183,812,cs),
(183,713,o),
(216,614,o),
(281,528,c),
(166,395,l),
(340,244,l),
(458,390,l)
);
}
);
width = 1277;
}
);
unicode = 164;
},
{
glyphname = dollar;
layers = (
{
layerId = m001;
shapes = (
{
closed = 1;
nodes = (
(951,1582,l),
(922,1376,l),
(804,1357,l),
(825,1570,l),
(592,1550,l),
(574,1305,l),
(327,1217,o),
(251,1093,o),
(251,967,cs),
(251,764,o),
(448,555,o),
(448,481,cs),
(448,398,o),
(440,342,o),
(165,326,c),
(122,27,l),
(263,27,o),
(391,39,o),
(480,54,c),
(463,-161,l),
(475,-161,o),
(601,-159,o),
(681,-157,c),
(703,85,l),
(806,119,l),
(787,-162,l),
(829,-161,o),
(957,-152,o),
(994,-152,cs),
(999,-152,ls),
(1006,-52,o),
(1025,115,o),
(1029,161,c),
(1267,230,o),
(1471,344,o),
(1471,496,cs),
(1471,766,o),
(1153,823,o),
(1153,980,cs),
(1153,1061,o),
(1247,1081,o),
(1338,1081,cs),
(1421,1081,o),
(1501,1065,o),
(1510,1065,c),
(1469,1365,l),
(1409,1374,o),
(1274,1385,o),
(1150,1385,c),
(1182,1593,l)
);
}
);
width = 1593;
}
);
unicode = 36;
},
{
glyphname = euro;
lastChange = "2023-06-29 06:57:00 +0000";
layers = (
{
layerId = m001;
shapes = (
{
closed = 1;
nodes = (
(1616,389,l),
(1528,372,o),
(1447,364,o),
(1373,364,cs),
(1198,364,o),
(1068,413,o),
(1007,519,c),
(1104,520,o),
(1218,520,o),
(1303,521,c),
(1300,657,l),
(986,656,l),
(984,673,o),
(983,691,o),
(983,710,cs),
(983,720,o),
(983,730,o),
(984,739,c),
(1090,739,o),
(1199,740,o),
(1307,741,c),
(1312,876,l),
(1003,876,l),
(1042,984,o),
(1182,1063,o),
(1418,1063,cs),
(1478,1063,o),
(1544,1058,o),
(1616,1047,c),
(1616,1453,l),
(1554,1460,o),
(1489,1463,o),
(1423,1463,cs),
(926,1463,o),
(353,1355,o),
(233,875,c),
(98,875,l),
(87,736,l),
(214,736,l),
(213,725,o),
(213,714,o),
(213,702,cs),
(213,686,o),
(213,670,o),
(214,655,c),
(100,655,l),
(90,520,l),
(234,520,l),
(342,88,o),
(840,-45,o),
(1316,-45,cs),
(1401,-45,o),
(1508,-42,o),
(1616,-30,c)
);
}
);
width = 1813;
}
);
unicode = 8364;
},
{
glyphname = sterling;
layers = (
{
layerId = m001;
shapes = (
{
closed = 1;
nodes = (
(1090,1042,o),
(1218,1122,o),
(1397,1122,cs),
(1500,1122,o),
(1620,1096,o),
(1743,1048,c),
(1775,1332,l),
(1567,1441,o),
(1343,1491,o),
(1137,1491,cs),
(756,1491,o),
(440,1319,o),
(417,1042,c),
(402,853,l),
(122,853,l),
(107,623,l),
(208,621,l),
(392,621,l),
(378,462,o),
(343,323,o),
(231,141,cs),
(219,121,o),
(212,100,o),
(212,79,cs),
(212,25,o),
(260,-25,o),
(406,-25,c),
(410,-26,o),
(415,-26,o),
(421,-26,cs),
(776,-27,o),
(1621,-27,o),
(1644,-27,cs),
(1752,-27,l),
(1773,336,l),
(1704,336,ls),
(1680,336,o),
(1641,337,o),
(1589,337,cs),
(1473,337,o),
(1192,335,o),
(973,332,c),
(1068,413,o),
(1059,514,o),
(1064,621,c),
(1473,619,l),
(1463,719,l),
(1447,848,l),
(1090,850,l),
(1090,859,ls)
);
}
);
width = 1910;
}
);
unicode = 163;
},
{
glyphname = yen;
layers = (
{
layerId = m001;
shapes = (
{
closed = 1;
nodes = (
(1446,-25,o),
(1453,-24,o),
(1453,-23,cs),
(1460,98,l),
(1748,95,l),
(1751,309,l),
(1663,309,l),
(1646,308,o),
(1574,308,o),
(1471,308,c),
(1476,408,l),
(1754,409,l),
(1766,631,l),
(1546,630,l),
(2081,1406,l),
(2079,1448,ls),
(2078,1448,o),
(2077,1448,o),
(2076,1449,c),
(1452,1449,l),
(1146,955,l),
(858,1448,l),
(818,1451,o),
(744,1452,o),
(633,1452,cs),
(478,1452,o),
(242,1454,o),
(170,1454,c),
(167,1432,l),
(673,619,l),
(430,618,l),
(423,407,l),
(513,405,l),
(737,406,l),
(735,308,l),
(422,308,l),
(418,108,l),
(445,104,l),
(734,103,l),
(734,-38,l),
(1314,-24,o),
(1408,-25,o),
(1434,-25,cs)
);
}
);
width = 2152;
}
);
unicode = 165;
},
{
glyphname = plus;
layers = (
{
layerId = m001;
shapes = (
{
closed = 1;
nodes = (
(391,450,l),
(391,197,l),
(391,121,l),
(478,121,o),
(632,120,o),
(714,120,c),
(714,282,l),
(714,454,l),
(877,454,l),
(1029,454,l),
(1034,569,l),
(1036,644,o),
(1039,715,o),
(1039,756,c),
(976,756,l),
(729,756,l),
(729,834,o),
(731,963,o),
(731,1090,c),
(503,1089,ls),
(481,1089,o),
(433,1088,o),
(411,1088,c),
(411,816,l),
(411,754,l),
(97,754,l),
(91,668,o),
(77,520,o),
(77,450,c)
);
}
);
width = 1073;
}
);
unicode = 43;
},
{
glyphname = minus;
layers = (
{
layerId = m001;
shapes = (
{
closed = 1;
nodes = (
(1022,613,ls),
(1025,648,o),
(1032,722,o),
(1032,739,c),
(984,739,ls),
(967,739,o),
(694,733,o),
(646,733,cs),
(174,733,l),
(151,517,l),
(298,517,l),
(1013,517,l)
);
}
);
width = 1090;
}
);
unicode = 8722;
},
{
glyphname = multiply;
layers = (
{
layerId = m001;
shapes = (
{
closed = 1;
nodes = (
(973,482,l),
(973,482,o),
(768,695,o),
(768,695,c),
(882,806,ls),
(985,910,l),
(775,1128,l),
(775,1128,o),
(561,903,o),
(561,903,c),
(354,1140,l),
(116,933,l),
(343,702,l),
(357,685,l),
(131,446,ls),
(324,227,l),
(548,461,l),
(751,249,ls)
);
}
);
width = 1130;
}
);
unicode = 215;
},
{
glyphname = divide;
layers = (
{
layerId = m001;
shapes = (
{
closed = 1;
nodes = (
(96,527,l),
(1331,530,l),
(1333,806,l),
(576,804,l),
(117,802,l)
);
},
{
closed = 1;
nodes = (
(955,-76,l),
(958,-16,l),
(976,328,l),
(561,328,l),
(546,-38,l),
(545,-78,l)
);
},
{
closed = 1;
nodes = (
(566,926,o),
(569,926,o),
(577,926,cs),
(706,926,o),
(850,928,o),
(963,929,c),
(968,989,l),
(996,1327,l),
(975,1327,l),
(581,1327,l),
(566,937,l),
(566,933,ls)
);
}
);
width = 1362;
}
);
unicode = 247;
},
{
glyphname = equal;
layers = (
{
layerId = m001;
shapes = (
{
closed = 1;
nodes = (
(638,287,o),
(770,287,o),
(876,290,c),
(874,546,l),
(592,542,l),
(176,542,l),
(170,288,l),
(211,288,o),
(354,287,o),
(516,287,cs)
);
},
{
closed = 1;
nodes = (
(405,765,o),
(649,769,o),
(878,774,c),
(889,1028,l),
(495,1025,l),
(186,1025,l),
(181,971,l),
(168,765,l),
(307,765,ls)
);
}
);
width = 1057;
}
);
unicode = 61;
},
{
glyphname = greater;
layers = (
{
layerId = m001;
shapes = (
{
closed = 1;
nodes = (
(1051.63,751.617,o),
(1047.9,761,o),
(1040,761,c),
(907,825,o),
(524,960,o),
(244,1068,c),
(223,1074,o),
(208,1077,o),
(199,1077,cs),
(190,1077,o),
(185,1072,o),
(183,1061,c),
(175,958,o),
(168,840,o),
(144,740,c),
(144,725,o),
(148,718,o),
(156,717,c),
(596,555,l),
(551,531,o),
(209,360,o),
(140,324,cs),
(133,321,o),
(132,318,o),
(132,313,cs),
(132,309,o),
(133,305,o),
(134,301,cs),
(186,201,o),
(220,94,o),
(259,-10,cs),
(264,-23,o),
(269,-29,o),
(284,-29,cs),
(295,-29,o),
(303,-25,o),
(322,-17,c),
(978,365,l),
(1021,386,o),
(1032,394,o),
(1032,421,c),
(1036,522,o),
(1040,625,o),
(1052,737,cs),
(1052,740,o),
(1053,741,o),
(1053,742,cs)
);
}
);
width = 1051;
}
);
unicode = 62;
},
{
glyphname = less;
layers = (
{
layerId = m001;
shapes = (
{
closed = 1;
nodes = (
(120.129,761,o),
(116.374,751.618,o),
(115,742,cs),
(115,741,o),
(116,740,o),
(116,737,cs),
(128,625,o),
(132,522,o),
(136,421,c),
(136,394,o),
(147,386,o),
(190,365,c),
(846,-17,l),
(865,-25,o),
(873,-29,o),
(884,-29,cs),
(896,-29,o),
(904,-23,o),
(909,-10,cs),
(946,94,o),
(978,201,o),
(1034,301,c),
(1035,305,o),
(1036,309,o),
(1036,313,cs),
(1036,317,o),
(1033,321,o),
(1028,324,cs),
(959,360,o),
(617,531,o),
(572,555,c),
(1012,717,l),
(1020,718,o),
(1024,725,o),
(1024,740,c),
(1000,840,o),
(993,958,o),
(985,1061,c),
(983,1072,o),
(978,1077,o),
(969,1077,cs),
(960,1077,o),
(945,1074,o),
(924,1068,c),
(644,960,o),
(261,825,o),
(128,761,c)
);
}
);
width = 1076;
}
);
unicode = 60;
},
{
glyphname = plusminus;
layers = (
{
layerId = m001;
shapes = (
{
closed = 1;
nodes = (
(636,13,o),
(716,13,o),
(783,13,c),
(995,13,ls),
(1005,229,l),
(115,223,l),
(92,31,l),
(89,7,l),
(584,12,ls)
);
},
{
closed = 1;
nodes = (
(990,969,o),
(836.203,968.365,o),
(745,963,c),
(745,963,o),
(764,1232,o),
(764,1241,c),
(736,1241,l),
(641,1238,l),
(592,1238,o),
(488,1235,o),
(472,1235,c),
(453,979,l),
(451,958,l),
(181,955,ls),
(178,922,l),
(153,687,l),
(151,659,l),
(182,659,o),
(355,659,o),
(423,660,c),
(403,445,l),
(403,439,ls),
(399,397,l),
(458,397,o),
(611,393,o),
(656,393,c),
(708,393,l),
(721,665,l),
(994,668,l),
(1012,969,l)
);
}
);
width = 1045;
}
);
unicode = 177;
},
{
glyphname = asciitilde;
layers = (
{
layerId = m001;
shapes = (
{
closed = 1;
nodes = (
(573,888,o),
(432,898,cs),
(424,899,o),
(415,899,o),
(407,899,cs),
(229,899,o),
(114,754,o),
(114,562,c),
(348,569,l),
(348,610,o),
(365,657,o),
(429,657,cs),
(521,657,o),
(704,546,o),
(810,526,cs),
(829,522,o),
(847,521,o),
(865,521,cs),
(1043,521,o),
(1130,698,o),
(1130,837,c),
(895,845,l),
(893,828,o),
(893,758,o),
(831,758,cs),
(825,758,o),
(818,758,o),
(810,760,cs),
(739,775,o)
);
}
);
width = 1265;
}
);
unicode = 126;
},
{
glyphname = logicalnot;
layers = (
{
layerId = m001;
shapes = (
{
closed = 1;
nodes = (
(732,374,l),
(717,148,l),
(714,93,l),
(737,90,l),
(1022,83,l),
(1024,113,o),
(1045,482,o),
(1045,539,c),
(1051,741,l),
(964,741,ls),
(922,741,o),
(772,740,o),
(606,736,c),
(140,732,l),
(113,367,l),
(284,367,l),
(603,374,l)
);
}
);
width = 1216;
}
);
unicode = 172;
},
{
glyphname = asciicircum;
layers = (
{
layerId = m001;
shapes = (
{
closed = 1;
nodes = (
(748,87,o),
(752,84,o),
(757,84,cs),
(761,84,o),
(765,85,o),
(769,86,cs),
(882,115,o),
(998,132,o),
(1111,151,c),
(1126,156,o),
(1133,166,o),
(1133,182,cs),
(1133,190,o),
(1131,199,o),
(1128,214,c),
(876,910,ls),
(860,953,o),
(853,964,o),
(828,964,cs),
(728,967,o),
(623,972,o),
(515,984,cs),
(512,984,o),
(511,985,o),
(510,985,cs),
(499.651,983.522,o),
(490.895,979.58,o),
(489,972,c),
(402,842,o),
(209,456,o),
(57,176,c),
(46,152,o),
(41,136,o),
(41,128,cs),
(41,121,o),
(46,117,o),
(55,115,c),
(154,107,o),
(273,100,o),
(369,76,c),
(382,76,o),
(391,80,o),
(394,88,c),
(625,528,l),
(636,486,o),
(727,157,o),
(747,92,cs)
);
}
);
width = 1190;
}
);
unicode = 94;
},
{
glyphname = increment;
lastChange = "2023-06-29 06:57:00 +0000";
layers = (
{
layerId = m001;
shapes = (
{
closed = 1;
nodes = (
(811,245,l),
(496,245,l),
(666,876,l)
);
},
{
closed = 1;
nodes = (
(60,-6,l),
(271,-3,o),
(768,3,o),
(1255,3,c),
(1236,61,ls),
(1119,421,o),
(958,876,o),
(819,1234,c),
(781,1233,l),
(488,1235,l),
(409,1017,o),
(130,213,o),
(104,130,cs)
);
}
);
width = 1280;
}
);
unicode = 8710;
},
{
glyphname = percent;
layers = (
{
layerId = m001;
shapes = (
{
closed = 1;
nodes = (
(2502,-49,o),
(2687,150,o),
(2687,392,cs),
(2687,608,o),
(2527,821,o),
(2190,821,cs),
(1846,821,o),
(1675,610,o),
(1675,378,cs),
(1675,147,o),
(1860,-49,o),
(2176,-49,cs)
);
},
{
closed = 1;
nodes = (
(2308,580,o),
(2360,492,o),
(2360,381,cs),
(2360,268,o),
(2310,178,o),
(2183,178,cs),
(2063,178,o),
(2015,262,o),
(2015,375,cs),
(2015,491,o),
(2068,580,o),
(2193,580,cs)
);
},
{
closed = 1;
nodes = (
(1059,74,o),
(1182,-1,o),
(1217,-1,c),
(1941,1205,l),
(2033,1356,l),
(1605,1531,l),
(1352,1077,o),
(1091,582,o),
(847,148,c)
);
},
{
closed = 1;
nodes = (
(932,563,o),
(1119,770,o),
(1119,1022,cs),
(1119,1248,o),
(957,1467,o),
(618,1467,cs),
(267,1467,o),
(95,1250,o),
(95,1006,cs),
(95,767,o),
(281,563,o),
(603,563,cs)
);
},
{
closed = 1;
nodes = (
(736,1225,o),
(794,1132,o),
(794,1017,cs),
(794,899,o),
(740,806,o),
(606,806,cs),
(475,806,o),
(427,892,o),
(427,1010,cs),
(427,1132,o),
(482,1225,o),
(614,1225,cs)
);
}
);
width = 2729;
}
);
unicode = 37;
},
{
glyphname = perthousand;
layers = (
{
layerId = m001;
shapes = (
{
closed = 1;
nodes = (
(2546,496,o),
(2582,626,o),
(2709,626,cs),
(2816,626,o),
(2852,497,o),
(2852,406,cs),
(2852,298,o),
(2816,159,o),
(2691,159,cs),
(2574,159,o),
(2546,280,o),
(2546,384,cs)
);
},
{
closed = 1;
nodes = (
(2290,111,o),
(2453,-52,o),
(2686,-52,cs),
(2935,-52,o),
(3103,118,o),
(3103,403,cs),
(3103,622,o),
(2982,830,o),
(2714,830,cs),
(2431,830,o),
(2290,627,o),
(2290,364,cs)
);
},
{
closed = 1;
nodes = (
(1619,496,o),
(1655,626,o),
(1782,626,cs),
(1889,626,o),
(1925,497,o),
(1925,406,cs),
(1925,298,o),
(1889,159,o),
(1764,159,cs),
(1647,159,o),
(1619,280,o),
(1619,384,cs)
);
},
{
closed = 1;
nodes = (
(1363,111,o),
(1526,-52,o),
(1759,-52,cs),
(2008,-52,o),
(2176,118,o),
(2176,403,cs),
(2176,622,o),
(2055,830,o),
(1787,830,cs),
(1504,830,o),
(1363,627,o),
(1363,364,cs)
);
},
{
closed = 1;
nodes = (
(408,1259,o),
(444,1389,o),
(571,1389,cs),
(678,1389,o),
(714,1260,o),
(714,1169,cs),
(714,1061,o),
(678,922,o),
(553,922,cs),
(436,922,o),
(408,1043,o),
(408,1147,cs)
);
},
{
closed = 1;
nodes = (
(152,874,o),
(315,711,o),
(548,711,cs),
(797,711,o),
(965,881,o),
(965,1166,cs),
(965,1385,o),
(844,1593,o),
(576,1593,cs),
(293,1593,o),
(152,1390,o),
(152,1127,cs)
);
},
{
closed = 1;
nodes = (
(897,670,o),
(771,507,o),
(613,328,c),
(613,312,o),
(612,302,o),
(623,295,c),
(636,282,o),
(657,278,o),
(809,153,c),
(824,150,o),
(831,148,o),
(838,148,cs),
(850,148,o),
(847,154,o),
(858,167,cs),
(1646,1122,ls),
(1648,1124,o),
(1649,1126,o),
(1649,1129,cs),
(1649,1140,o),
(1627,1149,o),
(1616,1153,c),
(1552,1192,o),
(1491,1239,o),
(1426,1291,cs),
(1425,1292,o),
(1422,1292,o),
(1417,1292,cs),
(1404,1292,o),
(1399,1283,o),
(1383,1263,cs),
(1275,1130,o),
(1162,993,o),
(1057,864,c)
);
}
);
width = 3120;
}
);
unicode = 8240;
},
{
glyphname = dblgravecomb;
lastChange = "2023-06-29 06:57:00 +0000";
layers = (
{
anchors = (
{
name = _top;
pos = (524,1026);
}
);
layerId = m001;
shapes = (
{
closed = 1;
nodes = (
(287,1256,o),
(316,1188,o),
(340,1188,cs),
(345,1188,o),
(348,1189,o),
(351,1192,c),
(415,1229,o),
(451,1244,o),
(506,1269,cs),
(519,1275,o),
(522,1287,o),
(522,1299,cs),
(522,1310,o),
(519,1320,o),
(516,1337,cs),
(404,1922,ls),
(403,1927,o),
(400,1930,o),
(396,1930,cs),
(393,1930,o),
(389,1928,o),
(382,1925,c),
(283,1856,o),
(163,1798,o),
(64,1742,cs),
(51,1735,o),
(44,1728,o),
(44,1713,cs),
(44,1704,o),
(46,1689,o),
(54,1674,cs),
(113,1561,o),
(130,1538,o),
(191,1427,c)
);
},
{
closed = 1;
nodes = (
(760,1256,o),
(780,1188,o),
(804,1188,cs),
(809,1188,o),
(813,1189,o),
(816,1192,c),
(889,1230,o),
(921,1245,o),
(983,1269,c),
(1000,1280,o),
(1004,1286,o),
(1004,1309,cs),
(1004,1316,o),
(1003,1325,o),
(1003,1337,c),
(946,1922,ls),
(946,1927,o),
(943,1930,o),
(938,1930,cs),
(937,1930,o),
(935,1929,o),
(934,1929,c),
(934,1928,o),
(925,1928,o),
(925,1925,c),
(825,1853,o),
(710,1797,o),
(610,1742,cs),
(593,1733,o),
(585,1725,o),
(585,1705,cs),
(585,1697,o),
(587,1687,o),
(590,1674,c),
(635,1562,o),
(646,1539,o),
(691,1427,cs)
);
}
);
width = 1069;
}
);
unicode = 783;
},
{
glyphname = breveinvertedcomb;
lastChange = "2023-06-29 06:57:00 +0000";
layers = (
{
layerId = m001;
shapes = (
{
closed = 1;
nodes = (
(436,1226,o),
(435,1226,o),
(435,1223,cs),
(435,1210,o),
(448,1202,o),
(520,1202,cs),
(610,1202,o),
(617,1212,o),
(617,1239,cs),
(617,1362,o),
(542,1488,o),
(361,1488,cs),
(192,1488,o),
(57,1401,o),
(57,1253,cs),
(57,1221,o),
(61,1207,o),
(152,1207,cs),
(218,1207,o),
(223,1216,o),
(226,1230,cs),
(226,1231,o),
(225,1232,o),
(225,1233,cs),
(225,1272,o),
(250,1332,o),
(336,1332,cs),
(405,1332,o),
(440,1292,o),
(440,1256,cs),
(440,1245,o),
(437,1236,o),
(436,1229,cs)
);
}
);
width = 681;
}
);
unicode = 785;
},
{
glyphname = dieresis;
layers = (
{
anchors = (
{
name = _top;
pos = (595,1026);
}
);
layerId = m001;
shapes = (
{
closed = 1;
nodes = (
(1101,1219,l),
(1101,1576,l),
(1082,1576,l),
(729,1576,l),
(721,1220,l),
(1049,1219,l)
);
},
{
closed = 1;
nodes = (
(89,1218,o),
(92,1218,o),
(99,1218,cs),
(216,1218,o),
(322.995,1220,o),
(470,1220,c),
(475,1578,l),
(457,1578,ls),
(357,1578,o),
(233,1576,o),
(129,1576,cs),
(102,1576,l),
(89,1228,l),
(89,1225,ls)
);
}
);
width = 1189;
}
);
unicode = 168;
},
{
glyphname = dotaccent;
layers = (
{
anchors = (
{
name = _top;
pos = (288,1026);
}
);
layerId = m001;
shapes = (
{
closed = 1;
nodes = (
(73,1389,o),
(76,1389,o),
(84,1389,cs),
(213,1389,o),
(332,1391,o),
(445,1392,c),
(470,1395,o),
(470,1408,o),
(475,1452,c),
(503,1766,l),
(503,1785,o),
(494,1790,o),
(482,1790,cs),
(369,1789,o),
(234,1788,o),
(117,1788,c),
(93,1784,o),
(90,1771,o),
(88,1727,cs),
(71,1438,o),
(84,1652,o),
(73,1400,c),
(73,1396,ls)
);
}
);
width = 579;
}
);
unicode = 729;
},
{
glyphname = grave;
layers = (
{
anchors = (
{
name = _top;
pos = (310,1026);
}
);
layerId = m001;
shapes = (
{
closed = 1;
nodes = (
(375,1670,l),
(372,1670,ls),
(367,1670,o),
(85.984,1579.46,o),
(25,1560,c),
(442,1195,l),
(470,1206,l),
(595,1251,l)
);
}
);
width = 664;
}
);
unicode = 96;
},
{
glyphname = acute;
layers = (
{
anchors = (
{
name = _top;
pos = (366.5,1026);
}
);
layerId = m001;
shapes = (
{
closed = 1;
nodes = (
(235,1206,o),
(237,1205,o),
(237,1205,c),
(322.882,1269.71,o),
(569,1471,o),
(670,1552,c),
(623,1566,o),
(372,1638,o),
(326,1650,c),
(304,1619,o),
(144,1382,o),
(63,1247,c),
(99,1238,o),
(216,1209,o),
(234,1206,cs)
);
}
);
width = 694;
}
);
unicode = 180;
},
{
glyphname = hungarumlaut;
layers = (
{
anchors = (
{
name = _top;
pos = (662.5,1026);
}
);
layerId = m001;
shapes = (
{
closed = 1;
nodes = (
(597,1759,l),
(234,2022,l),
(15,1295,l),
(215,1162,l)
);
},
{
closed = 1;
nodes = (
(1310,1748,l),
(946,2047,l),
(631,1318,ls),
(630,1316,o),
(629,1315,o),
(629,1313,c),
(794,1151,l)
);
}
);
width = 1278;
}
);
unicode = 733;
},
{
glyphname = circumflex;
layers = (
{
anchors = (
{
name = _top;
pos = (501.5,1026);
}
);
layerId = m001;
shapes = (
{
closed = 1;
nodes = (
(343,1243,o),
(457,1372,o),
(516,1421,c),
(554,1370,o),
(593,1321,o),
(631,1271,c),
(658,1248,o),
(682,1232,o),
(708,1221,c),
(743,1221,o),
(896,1260,o),
(933,1281,c),
(918,1308,o),
(877,1353,o),
(857,1376,cs),
(790,1451,o),
(675,1591,o),
(636,1628,c),
(619,1630,o),
(601,1630,o),
(582,1630,cs),
(554.889,1630,o),
(527.383,1631.19,o),
(500.359,1631.19,cs),
(466.58,1631.19,o),
(433.556,1629.33,o),
(403,1621,c),
(358,1573,o),
(316,1528,o),
(270,1482,cs),
(146,1356,ls),
(116,1325,o),
(90,1302,o),
(70,1277,c),
(107,1269,o),
(239,1222,o),
(287,1222,c)
);
}
);
width = 1010;
}
);
unicode = 710;
},
{
glyphname = caron;
layers = (
{
anchors = (
{
name = _top;
pos = (559,1026);
}
);
layerId = m001;
shapes = (
{
closed = 1;
nodes = (
(55,1782,o),
(53,1778,o),
(53,1772,cs),
(53,1765,o),
(56,1757,o),
(62,1747,cs),
(159,1590,o),
(389,1247,o),
(391,1247,c),
(394,1245,o),
(401,1245,o),
(405,1245,cs),
(583,1245,l),
(584,1244,o),
(587,1243,o),
(589,1243,cs),
(593,1243,o),
(597,1245,o),
(601,1249,cs),
(741,1412,o),
(886,1579,o),
(1036,1747,c),
(1057,1766,o),
(1065,1780,o),
(1065,1790,cs),
(1065,1793,o),
(1064,1795,o),
(1063,1798,c),
(1064,1799,o),
(1064,1801,o),
(1064,1803,cs),
(1064,1836,o),
(899,1905,o),
(856,1937,c),
(815,1958,o),
(795,1965,o),
(787,1965,c),
(787,1965,o),
(786,1964,o),
(786,1963,cs),
(787,1962,l),
(703.194,1847.47,o),
(614.121,1738.21,o),
(528,1626,c),
(380,1936,l),
(371,1958,o),
(368,1966,o),
(363,1966,cs),
(335,1966,o),
(57,1830,o),
(57,1789,cs),
(57,1788,o),
(57,1787,o),
(58,1786,c)
);
}
);
width = 1104;
}
);
unicode = 711;
},
{
glyphname = breve;
layers = (
{
anchors = (
{
name = _top;
pos = (406,1026);
}
);
layerId = m001;
shapes = (
{
closed = 1;
nodes = (
(489,1339,o),
(396,1339,cs),
(311,1339,o),
(282,1392,o),
(282,1434,cs),
(282,1448,o),
(285,1461,o),
(285,1465,c),
(84,1465,l),
(77,1440,o),
(74,1416,o),
(74,1394,cs),
(74,1249,o),
(215,1151,o),
(382,1151,cs),
(584,1151,o),
(738,1251,o),
(738,1465,c),
(529,1463,l),
(529,1377,o)
);
}
);
width = 834;
}
);
unicode = 728;
},
{
glyphname = ring;
layers = (
{
anchors = (
{
name = _top;
pos = (354.5,1026);
}
);
layerId = m001;
shapes = (
{
closed = 1;
nodes = (
(457,1408.05,o),
(417.55,1338,o),
(334,1338,c),
(263,1341,o),
(245,1405,o),
(245,1456,cs),
(245,1522,o),
(284,1594,o),
(373,1594,cs),
(437,1594,o),
(457,1527,o),
(457,1478,cs)
);
},
{
closed = 1;
nodes = (
(527,1192,o),
(636,1339,o),
(636,1484,cs),
(636,1637,o),
(519,1737,o),
(371,1737,cs),
(203,1737,o),
(73,1609,o),
(73,1457,cs),
(73,1290,o),
(195,1192,o),
(352,1192,cs)
);
}
);
width = 710;
}
);
unicode = 730;
},
{
glyphname = tilde;
layers = (
{
anchors = (
{
name = _top;
pos = (561.5,1026);
}
);
layerId = m001;
shapes = (
{
closed = 1;
nodes = (
(587,1698,o),
(511,1704,o),
(405,1704,cs),
(217,1704,o),
(63,1535,o),
(63,1284,cs),
(63,1272,o),
(78,1267,o),
(93,1267,cs),
(173,1267,o),
(179,1270,o),
(264,1270,cs),
(281,1270,o),
(293,1282,o),
(293,1293,cs),
(293,1344,o),
(309,1403,o),
(372,1403,cs),
(406,1403,o),
(430,1398,o),
(452,1366,cs),
(539,1239,o),
(621,1214,o),
(707,1214,cs),
(918,1214,o),
(1060,1436,o),
(1060,1628,cs),
(1060,1643,o),
(1045,1647,o),
(1034,1647,cs),
(1017,1647,o),
(837,1638,o),
(830,1638,cs),
(805,1638,o),
(829,1531,o),
(746,1531,cs),
(717,1531,o),
(697,1544,o),
(672,1579,cs)
);
}
);
width = 1120;
}
);
unicode = 732;
},
{
glyphname = macron;
layers = (
{
anchors = (
{
name = _top;
pos = (694.5,1026);
}
);
layerId = m001;
shapes = (
{
closed = 1;
nodes = (
(257,584,l),
(384,586,l),
(492,586,o),
(860,594,o),
(1116,602,c),
(1118,636,l),
(1121,687,o),
(1130,951,o),
(1132,1028,c),
(299,1010,l)
);
}
);
width = 1389;
}
);
unicode = 175;
},
{
glyphname = cedilla;
layers = (
{
anchors = (
{
name = _bottom;
pos = (276,0);
}
);
layerId = m001;
shapes = (
{
closed = 1;
nodes = (
(321,-156,o),
(303,-157,o),
(285,-159,c),
(333,-17,l),
(154,-17,l),
(91,-266,l),
(250,-287,ls),
(300,-294,o),
(320,-323,o),
(320,-355,cs),
(320,-403,o),
(286,-448,o),
(217,-448,cs),
(176,-448,o),
(125,-433,o),
(61,-394,c),
(21,-537,l),
(89,-585,o),
(174,-610,o),
(255,-610,cs),
(399,-610,o),
(531,-532,o),
(531,-365,cs),
(531,-243,o),
(478,-156,o),
(337,-156,cs)
);
}
);
width = 545;
}
);
unicode = 184;
},
